999
dxfrw 0.6.3
  0
SECTION
  2
HEADER
  9
$ACADVER
  1
AC1021
  9
$DWGCODEPAGE
  3
ANSI_1252
  9
$INSBASE
 10
0
 20
0
 30
0
  9
$EXTMIN
 10
-255.0818203602232
 20
-233.3951066243004
 30
0
  9
$EXTMAX
 10
260.2604279057683
 20
233.3951066243004
 30
0
  9
$LIMMIN
 10
0
 20
0
  9
$LIMMAX
 10
420
 20
297
  9
$ORTHOMODE
 70
    0
  9
$REGENMODE
 70
    1
  9
$FILLMODE
 70
    1
  9
$QTEXTMODE
 70
    0
  9
$MIRRTEXT
 70
    0
  9
$LTSCALE
 40
1
  9
$ATTMODE
 70
    0
  9
$TEXTSIZE
 40
2.5
  9
$TRACEWID
 40
15.68
  9
$TEXTSTYLE
  7
STANDARD
  9
$CLAYER
  8
constrcution
  9
$CELTYPE
  6
BYLAYER
  9
$CECOLOR
 62
  256
  9
$CELTSCALE
 40
1
  9
$DISPSILH
 70
    0
  9
$DIMSCALE
 40
2.5
  9
$DIMASZ
 40
2.5
  9
$DIMEXO
 40
0.625
  9
$DIMDLI
 40
3.75
  9
$DIMRND
 40
0
  9
$DIMDLE
 40
0
  9
$DIMEXE
 40
1.25
  9
$DIMTP
 40
0
  9
$DIMTM
 40
0
  9
$DIMTXT
 40
2.5
  9
$DIMCEN
 40
2.5
  9
$DIMTSZ
 40
0
  9
$DIMTOL
 70
    0
  9
$DIMLIM
 70
    0
  9
$DIMTIH
 70
    0
  9
$DIMTOH
 70
    0
  9
$DIMSE1
 70
    0
  9
$DIMSE2
 70
    0
  9
$DIMTAD
 70
    1
  9
$DIMZIN
 70
    8
  9
$DIMBLK
  1

  9
$DIMASO
 70
    1
  9
$DIMSHO
 70
    1
  9
$DIMPOST
  1

  9
$DIMAPOST
  1

  9
$DIMALT
 70
    0
  9
$DIMALTD
 70
    3
  9
$DIMALTF
 40
0.03937
  9
$DIMLFAC
 40
1
  9
$DIMTOFL
 70
    1
  9
$DIMTVP
 40
0
  9
$DIMTIX
 70
    0
  9
$DIMSOXD
 70
    0
  9
$DIMSAH
 70
    0
  9
$DIMBLK1
  1

  9
$DIMBLK2
  1

  9
$DIMSTYLE
  2
STANDARD
  9
$DIMCLRD
 70
    0
  9
$DIMCLRE
 70
    0
  9
$DIMCLRT
 70
    0
  9
$DIMTFAC
 40
1
  9
$DIMGAP
 40
0.625
  9
$DIMJUST
 70
    0
  9
$DIMSD1
 70
    0
  9
$DIMSD2
 70
    0
  9
$DIMTOLJ
 70
    0
  9
$DIMTZIN
 70
    8
  9
$DIMALTZ
 70
    0
  9
$DIMALTTZ
 70
    0
  9
$DIMUPT
 70
    0
  9
$DIMDEC
 70
    2
  9
$DIMTDEC
 70
    2
  9
$DIMALTU
 70
    2
  9
$DIMALTTD
 70
    3
  9
$DIMTXSTY
  7
standard
  9
$DIMAUNIT
 70
    0
  9
$DIMADEC
 70
    0
  9
$DIMALTRND
 40
0
  9
$DIMAZIN
 70
    0
  9
$DIMDSEP
 70
   44
  9
$DIMATFIT
 70
    3
  9
$DIMFRAC
 70
    0
  9
$DIMLDRBLK
  1
STANDARD
  9
$DIMLUNIT
 70
    2
  9
$DIMLWD
 70
   -2
  9
$DIMLWE
 70
   -2
  9
$DIMTMOVE
 70
    0
  9
$DIMFXL
 40
1
  9
$DIMFXLON
 70
    0
  9
$DIMJOGANG
 40
0.7854
  9
$DIMTFILL
 70
    0
  9
$DIMTFILLCLR
 70
    0
  9
$DIMARCSYM
 70
    0
  9
$DIMLTYPE
  6

  9
$DIMLTEX1
  6

  9
$DIMLTEX2
  6

  9
$LUNITS
 70
    2
  9
$LUPREC
 70
    4
  9
$SKETCHINC
 40
1
  9
$FILLETRAD
 40
0
  9
$AUNITS
 70
    0
  9
$AUPREC
 70
    2
  9
$MENU
  1
.
  9
$ELEVATION
 40
0
  9
$PELEVATION
 40
0
  9
$THICKNESS
 40
0
  9
$LIMCHECK
 70
    0
  9
$CHAMFERA
 40
0
  9
$CHAMFERB
 40
0
  9
$CHAMFERC
 40
0
  9
$CHAMFERD
 40
0
  9
$SKPOLY
 70
    0
  9
$USRTIMER
 70
    1
  9
$ANGBASE
 50
0
  9
$ANGDIR
 70
    0
  9
$PDMODE
 70
   34
  9
$PDSIZE
 40
0
  9
$PLINEWID
 40
0
  9
$SPLFRAME
 70
    0
  9
$SPLINETYPE
 70
    2
  9
$SPLINESEGS
 70
    8
  9
$HANDSEED
  5
20000
  9
$SURFTAB1
 70
    6
  9
$SURFTAB2
 70
    6
  9
$SURFTYPE
 70
    6
  9
$SURFU
 70
    6
  9
$SURFV
 70
    6
  9
$UCSBASE
  2

  9
$UCSNAME
  2

  9
$UCSORG
 10
0
 20
0
 30
0
  9
$UCSXDIR
 10
1
 20
0
 30
0
  9
$UCSYDIR
 10
0
 20
1
 30
0
  9
$UCSORTHOREF
  2

  9
$UCSORTHOVIEW
 70
    0
  9
$UCSORGTOP
 10
0
 20
0
 30
0
  9
$UCSORGBOTTOM
 10
0
 20
0
 30
0
  9
$UCSORGLEFT
 10
0
 20
0
 30
0
  9
$UCSORGRIGHT
 10
0
 20
0
 30
0
  9
$UCSORGFRONT
 10
0
 20
0
 30
0
  9
$UCSORGBACK
 10
0
 20
0
 30
0
  9
$PUCSBASE
  2

  9
$PUCSNAME
  2

  9
$PUCSORG
 10
0
 20
0
 30
0
  9
$PUCSXDIR
 10
1
 20
0
 30
0
  9
$PUCSYDIR
 10
0
 20
1
 30
0
  9
$PUCSORTHOREF
  2

  9
$PUCSORTHOVIEW
 70
    0
  9
$PUCSORGTOP
 10
0
 20
0
 30
0
  9
$PUCSORGBOTTOM
 10
0
 20
0
 30
0
  9
$PUCSORGLEFT
 10
0
 20
0
 30
0
  9
$PUCSORGRIGHT
 10
0
 20
0
 30
0
  9
$PUCSORGFRONT
 10
0
 20
0
 30
0
  9
$PUCSORGBACK
 10
0
 20
0
 30
0
  9
$USERI1
 70
    0
  9
$USERI2
 70
    0
  9
$USERI3
 70
    0
  9
$USERI4
 70
    0
  9
$USERI5
 70
    0
  9
$USERR1
 40
0
  9
$USERR2
 40
0
  9
$USERR3
 40
0
  9
$USERR4
 40
0
  9
$USERR5
 40
0
  9
$WORLDVIEW
 70
    1
  9
$SHADEDGE
 70
    3
  9
$SHADEDIF
 70
   70
  9
$TILEMODE
 70
    1
  9
$MAXACTVP
 70
   64
  9
$PINSBASE
 10
147.007743509087
 20
210
 30
0
  9
$PLIMCHECK
 70
    0
  9
$PEXTMIN
 10
0
 20
0
 30
0
  9
$PEXTMAX
 10
0
 20
0
 30
0
  9
$GRIDMODE
 70
    1
  9
$SNAPSTYLE
 70
    0
  9
$GRIDUNIT
 10
0
 20
0
  9
$PLIMMIN
 10
0
 20
0
  9
$PLIMMAX
 10
297
 20
210
  9
$UNITMODE
 70
    0
  9
$VISRETAIN
 70
    1
  9
$PLINEGEN
 70
    0
  9
$PSLTSCALE
 70
    1
  9
$TREEDEPTH
 70
 3020
  9
$CMLSTYLE
  2
Standard
  9
$CMLJUST
 70
    0
  9
$CMLSCALE
 40
20
  9
$PROXYGRAPHICS
 70
    1
  9
$MEASUREMENT
 70
    1
  9
$CELWEIGHT
370
   -1
  9
$ENDCAPS
280
    0
  9
$JOINSTYLE
280
    0
  9
$LWDISPLAY
290
    0
  9
$INSUNITS
 70
    4
  9
$HYPERLINKBASE
  1

  9
$STYLESHEET
  1

  9
$XEDIT
290
    1
  9
$CEPSNTYPE
380
    0
  9
$PSTYLEMODE
290
    1
  9
$EXTNAMES
290
    1
  9
$PSVPSCALE
 40
0.5763157288088706
  9
$OLESTARTUP
290
    0
  9
$SORTENTS
280
  127
  9
$INDEXCTL
280
    0
  9
$HIDETEXT
280
    1
  9
$XCLIPFRAME
290
    0
  9
$HALOGAP
280
    0
  9
$OBSCOLOR
 70
  257
  9
$OBSLTYPE
280
    0
  9
$INTERSECTIONDISPLAY
280
    0
  9
$INTERSECTIONCOLOR
 70
  257
  9
$DIMASSOC
280
    1
  9
$PROJECTNAME
  1

  9
$CAMERADISPLAY
290
    0
  9
$LENSLENGTH
 40
50
  9
$CAMERAHEIGHT
 40
0
  9
$STEPSPERSEC
 40
2
  9
$STEPSIZE
 40
50
  9
$3DDWFPREC
 40
2
  9
$PSOLWIDTH
 40
5
  9
$PSOLHEIGHT
 40
80
  9
$LOFTANG1
 40
1.570796326794897
  9
$LOFTANG2
 40
1.570796326794897
  9
$LOFTMAG1
 40
0
  9
$LOFTMAG2
 40
0
  9
$LOFTPARAM
 70
    7
  9
$LOFTNORMALS
280
    1
  9
$LATITUDE
 40
1
  9
$LONGITUDE
 40
1
  9
$NORTHDIRECTION
 40
0
  9
$TIMEZONE
 70
-8000
  9
$LIGHTGLYPHDISPLAY
280
    1
  9
$TILEMODELIGHTSYNCH
280
    1
  9
$SOLIDHIST
280
    1
  9
$SHOWHIST
280
    1
  9
$DWFFRAME
280
    2
  9
$DGNFRAME
280
    0
  9
$REALWORLDSCALE
290
    1
  9
$INTERFERECOLOR
 62
    1
  9
$CSHADOW
280
    0
  9
$SHADOWPLANELOCATION
 40
0
  0
ENDSEC
  0
SECTION
  2
CLASSES
  0
ENDSEC
  0
SECTION
  2
TABLES
  0
TABLE
  2
VPORT
  5
8
330
0
100
AcDbSymbolTable
 70
    1
  0
VPORT
  5
31
330
2
100
AcDbSymbolTableRecord
100
AcDbViewportTableRecord
  2
*ACTIVE
 70
    0
 10
0
 20
0
 11
1
 21
1
 12
239.2531079794679
 22
115.6184477993562
 13
0
 23
0
 14
10
 24
10
 15
10
 25
10
 16
0
 26
0
 36
1
 17
0
 27
0
 37
0
 40
479.1228476805323
 41
1.984555984555985
 42
50
 43
0
 44
0
 50
0
 51
0
 71
    0
 72
  100
 73
    1
 74
    3
 75
    0
 76
    1
 77
    0
 78
    0
281
    0
 65
    1
110
0
120
0
130
0
111
1
121
0
131
0
112
0
122
1
132
0
 79
    0
146
0
348
10020
 60
    7
 61
    5
292
1
282
    1
141
0
142
0
 63
  250
421
3358443
  0
ENDTAB
  0
TABLE
  2
LTYPE
  5
5
330
0
100
AcDbSymbolTable
 70
    4
  0
LTYPE
  5
14
330
5
100
AcDbSymbolTableRecord
100
AcDbLinetypeTableRecord
  2
ByBlock
 70
    0
  3

 72
   65
 73
    0
 40
0
  0
LTYPE
  5
15
330
5
100
AcDbSymbolTableRecord
100
AcDbLinetypeTableRecord
  2
ByLayer
 70
    0
  3

 72
   65
 73
    0
 40
0
  0
LTYPE
  5
16
330
5
100
AcDbSymbolTableRecord
100
AcDbLinetypeTableRecord
  2
Continuous
 70
    0
  3
Solid line
 72
   65
 73
    0
 40
0
  0
LTYPE
  5
32
330
5
100
AcDbSymbolTableRecord
100
AcDbLinetypeTableRecord
  2
DOT
 70
    0
  3
Dot . . . . . . . . . . . . . . . . . . . . . .
 72
   65
 73
    2
 40
6.35
 49
0
 74
    0
 49
-6.35
 74
    0
  0
LTYPE
  5
33
330
5
100
AcDbSymbolTableRecord
100
AcDbLinetypeTableRecord
  2
DOTTINY
 70
    0
  3
Dot (.15x) .....................................
 72
   65
 73
    2
 40
0.9525
 49
0
 74
    0
 49
-0.9525
 74
    0
  0
LTYPE
  5
34
330
5
100
AcDbSymbolTableRecord
100
AcDbLinetypeTableRecord
  2
DOT2
 70
    0
  3
Dot (.5x) .....................................
 72
   65
 73
    2
 40
3.175
 49
0
 74
    0
 49
-3.175
 74
    0
  0
LTYPE
  5
35
330
5
100
AcDbSymbolTableRecord
100
AcDbLinetypeTableRecord
  2
DOTX2
 70
    0
  3
Dot (2x) .  .  .  .  .  .  .  .  .  .  .  .  .
 72
   65
 73
    2
 40
12.7
 49
0
 74
    0
 49
-12.7
 74
    0
  0
LTYPE
  5
36
330
5
100
AcDbSymbolTableRecord
100
AcDbLinetypeTableRecord
  2
DASHED
 70
    0
  3
Dashed _ _ _ _ _ _ _ _ _ _ _ _ _ _ _ _ _
 72
   65
 73
    2
 40
19.05
 49
12.7
 74
    0
 49
-6.35
 74
    0
  0
LTYPE
  5
37
330
5
100
AcDbSymbolTableRecord
100
AcDbLinetypeTableRecord
  2
DASHEDTINY
 70
    0
  3
Dashed (.15x) _ _ _ _ _ _ _ _ _ _ _ _ _ _ _ _ _
 72
   65
 73
    2
 40
2.8575
 49
1.905
 74
    0
 49
-0.9525
 74
    0
  0
LTYPE
  5
38
330
5
100
AcDbSymbolTableRecord
100
AcDbLinetypeTableRecord
  2
DASHED2
 70
    0
  3
Dashed (.5x) _ _ _ _ _ _ _ _ _ _ _ _ _ _ _ _ _
 72
   65
 73
    2
 40
9.524999999999999
 49
6.35
 74
    0
 49
-3.175
 74
    0
  0
LTYPE
  5
39
330
5
100
AcDbSymbolTableRecord
100
AcDbLinetypeTableRecord
  2
DASHEDX2
 70
    0
  3
Dashed (2x) ____  ____  ____  ____  ____  ___
 72
   65
 73
    2
 40
38.09999999999999
 49
25.4
 74
    0
 49
-12.7
 74
    0
  0
LTYPE
  5
3A
330
5
100
AcDbSymbolTableRecord
100
AcDbLinetypeTableRecord
  2
DASHDOT
 70
    0
  3
Dash dot __ . __ . __ . __ . __ . __ . __ . __
 72
   65
 73
    4
 40
25.4
 49
12.7
 74
    0
 49
-6.35
 74
    0
 49
0
 74
    0
 49
-6.35
 74
    0
  0
LTYPE
  5
3B
330
5
100
AcDbSymbolTableRecord
100
AcDbLinetypeTableRecord
  2
DASHDOTTINY
 70
    0
  3
Dash dot (.15x) _._._._._._._._._._._._._._._.
 72
   65
 73
    4
 40
3.81
 49
1.905
 74
    0
 49
-0.9525
 74
    0
 49
0
 74
    0
 49
-0.9525
 74
    0
  0
LTYPE
  5
3C
330
5
100
AcDbSymbolTableRecord
100
AcDbLinetypeTableRecord
  2
DASHDOT2
 70
    0
  3
Dash dot (.5x) _._._._._._._._._._._._._._._.
 72
   65
 73
    4
 40
12.7
 49
6.35
 74
    0
 49
-3.175
 74
    0
 49
0
 74
    0
 49
-3.175
 74
    0
  0
LTYPE
  5
3D
330
5
100
AcDbSymbolTableRecord
100
AcDbLinetypeTableRecord
  2
DASHDOTX2
 70
    0
  3
Dash dot (2x) ____  .  ____  .  ____  .  ___
 72
   65
 73
    4
 40
50.8
 49
25.4
 74
    0
 49
-12.7
 74
    0
 49
0
 74
    0
 49
-12.7
 74
    0
  0
LTYPE
  5
3E
330
5
100
AcDbSymbolTableRecord
100
AcDbLinetypeTableRecord
  2
DIVIDE
 70
    0
  3
Divide ____ . . ____ . . ____ . . ____ . . ____
 72
   65
 73
    6
 40
31.75
 49
12.7
 74
    0
 49
-6.35
 74
    0
 49
0
 74
    0
 49
-6.35
 74
    0
 49
0
 74
    0
 49
-6.35
 74
    0
  0
LTYPE
  5
3F
330
5
100
AcDbSymbolTableRecord
100
AcDbLinetypeTableRecord
  2
DIVIDETINY
 70
    0
  3
Divide (.15x) __..__..__..__..__..__..__..__.._
 72
   65
 73
    6
 40
4.7625
 49
1.905
 74
    0
 49
-0.9525
 74
    0
 49
0
 74
    0
 49
-0.9525
 74
    0
 49
0
 74
    0
 49
-0.9525
 74
    0
  0
LTYPE
  5
40
330
5
100
AcDbSymbolTableRecord
100
AcDbLinetypeTableRecord
  2
DIVIDE2
 70
    0
  3
Divide (.5x) __..__..__..__..__..__..__..__.._
 72
   65
 73
    6
 40
15.875
 49
6.35
 74
    0
 49
-3.175
 74
    0
 49
0
 74
    0
 49
-3.175
 74
    0
 49
0
 74
    0
 49
-3.175
 74
    0
  0
LTYPE
  5
41
330
5
100
AcDbSymbolTableRecord
100
AcDbLinetypeTableRecord
  2
DIVIDEX2
 70
    0
  3
Divide (2x) ________  .  .  ________  .  .  _
 72
   65
 73
    6
 40
63.5
 49
25.4
 74
    0
 49
-12.7
 74
    0
 49
0
 74
    0
 49
-12.7
 74
    0
 49
0
 74
    0
 49
-12.7
 74
    0
  0
LTYPE
  5
42
330
5
100
AcDbSymbolTableRecord
100
AcDbLinetypeTableRecord
  2
BORDER
 70
    0
  3
Border __ __ . __ __ . __ __ . __ __ . __ __ .
 72
   65
 73
    6
 40
44.45
 49
12.7
 74
    0
 49
-6.35
 74
    0
 49
12.7
 74
    0
 49
-6.35
 74
    0
 49
0
 74
    0
 49
-6.35
 74
    0
  0
LTYPE
  5
43
330
5
100
AcDbSymbolTableRecord
100
AcDbLinetypeTableRecord
  2
BORDERTINY
 70
    0
  3
Border (.15x) __.__.__.__.__.__.__.__.__.__.__.
 72
   65
 73
    6
 40
6.6675
 49
1.905
 74
    0
 49
-0.9525
 74
    0
 49
1.905
 74
    0
 49
-0.9525
 74
    0
 49
0
 74
    0
 49
-0.9525
 74
    0
  0
LTYPE
  5
44
330
5
100
AcDbSymbolTableRecord
100
AcDbLinetypeTableRecord
  2
BORDER2
 70
    0
  3
Border (.5x) __.__.__.__.__.__.__.__.__.__.__.
 72
   65
 73
    6
 40
22.225
 49
6.35
 74
    0
 49
-3.175
 74
    0
 49
6.35
 74
    0
 49
-3.175
 74
    0
 49
0
 74
    0
 49
-3.175
 74
    0
  0
LTYPE
  5
45
330
5
100
AcDbSymbolTableRecord
100
AcDbLinetypeTableRecord
  2
BORDERX2
 70
    0
  3
Border (2x) ____  ____  .  ____  ____  .  ___
 72
   65
 73
    6
 40
88.89999999999999
 49
25.4
 74
    0
 49
-12.7
 74
    0
 49
25.4
 74
    0
 49
-12.7
 74
    0
 49
0
 74
    0
 49
-12.7
 74
    0
  0
LTYPE
  5
46
330
5
100
AcDbSymbolTableRecord
100
AcDbLinetypeTableRecord
  2
CENTER
 70
    0
  3
Center ____ _ ____ _ ____ _ ____ _ ____ _ ____
 72
   65
 73
    4
 40
50.8
 49
31.75
 74
    0
 49
-6.35
 74
    0
 49
6.35
 74
    0
 49
-6.35
 74
    0
  0
LTYPE
  5
47
330
5
100
AcDbSymbolTableRecord
100
AcDbLinetypeTableRecord
  2
CENTERTINY
 70
    0
  3
Center (.15x) ___ _ ___ _ ___ _ ___ _ ___ _ ___
 72
   65
 73
    4
 40
7.62
 49
4.7625
 74
    0
 49
-0.9525
 74
    0
 49
0.9525
 74
    0
 49
-0.9525
 74
    0
  0
LTYPE
  5
48
330
5
100
AcDbSymbolTableRecord
100
AcDbLinetypeTableRecord
  2
CENTER2
 70
    0
  3
Center (.5x) ___ _ ___ _ ___ _ ___ _ ___ _ ___
 72
   65
 73
    4
 40
28.575
 49
19.05
 74
    0
 49
-3.175
 74
    0
 49
3.175
 74
    0
 49
-3.175
 74
    0
  0
LTYPE
  5
49
330
5
100
AcDbSymbolTableRecord
100
AcDbLinetypeTableRecord
  2
CENTERX2
 70
    0
  3
Center (2x) ________  __  ________  __  _____
 72
   65
 73
    4
 40
101.6
 49
63.5
 74
    0
 49
-12.7
 74
    0
 49
12.7
 74
    0
 49
-12.7
 74
    0
  0
ENDTAB
  0
TABLE
  2
LAYER
  5
2
330
0
100
AcDbSymbolTable
 70
    1
  0
LAYER
  5
10
330
2
100
AcDbSymbolTableRecord
100
AcDbLayerTableRecord
  2
0
 70
    0
 62
    7
  6
CONTINUOUS
370
    0
390
F
  0
LAYER
  5
4A
330
2
100
AcDbSymbolTableRecord
100
AcDbLayerTableRecord
  2
constrcution
 70
    0
 62
    3
  6
CONTINUOUS
370
    0
390
F
  0
LAYER
  5
4B
330
2
100
AcDbSymbolTableRecord
100
AcDbLayerTableRecord
  2
outline construction
 70
    1
 62
    1
  6
CONTINUOUS
370
    0
390
F
  0
LAYER
  5
4C
330
2
100
AcDbSymbolTableRecord
100
AcDbLayerTableRecord
  2
construction_1
 70
    1
 62
    3
  6
CONTINUOUS
370
    0
390
F
  0
LAYER
  5
4D
330
2
100
AcDbSymbolTableRecord
100
AcDbLayerTableRecord
  2
dimensions0
 70
    0
 62
    5
  6
CONTINUOUS
370
    0
390
F
  0
ENDTAB
  0
TABLE
  2
STYLE
  5
3
330
0
100
AcDbSymbolTable
 70
    3
  0
STYLE
  5
4E
330
2
100
AcDbSymbolTableRecord
100
AcDbTextStyleTableRecord
  2
Standard
 70
    0
 40
0
 41
1
 50
0
 71
    0
 42
1
  3
txt
  4

  0
ENDTAB
  0
TABLE
  2
VIEW
  5
6
330
0
100
AcDbSymbolTable
 70
    0
  0
ENDTAB
  0
TABLE
  2
UCS
  5
7
330
0
100
AcDbSymbolTable
 70
    0
  0
ENDTAB
  0
TABLE
  2
APPID
  5
9
330
0
100
AcDbSymbolTable
 70
    1
  0
APPID
  5
12
330
9
100
AcDbSymbolTableRecord
100
AcDbRegAppTableRecord
  2
ACAD
 70
    0
  0
APPID
  5
4F
330
9
100
AcDbSymbolTableRecord
100
AcDbRegAppTableRecord
  2
LibreCad
 70
    0
  0
ENDTAB
  0
TABLE
  2
DIMSTYLE
  5
A
330
0
100
AcDbSymbolTable
 70
    1
100
AcDbDimStyleTable
 71
    1
  0
DIMSTYLE
105
50
330
A
100
AcDbSymbolTableRecord
100
AcDbDimStyleTableRecord
  2
Standard
 70
    0
 40
2.5
 41
2.5
 42
0.625
 43
0.38
 44
1.25
 45
0
 46
0
 47
0
 48
0
 49
1
140
2.5
141
0.09
142
0
143
25.4
144
1
145
0
146
1
147
0.625
148
0
 71
    0
 72
    0
 73
    0
 74
    1
 75
    0
 76
    0
 77
    0
 78
    8
 79
    0
170
    0
171
    2
172
    0
173
    0
174
    0
175
    0
176
    0
177
    0
178
    0
179
    0
271
    2
272
    4
273
    2
274
    2
275
    0
276
    0
277
    2
278
   44
279
    0
280
    0
281
    0
282
    0
283
    1
284
    0
285
    0
286
    0
288
    0
289
    3
340
standard
341

371
   -2
372
   -2
  0
ENDTAB
  0
TABLE
  2
BLOCK_RECORD
  5
1
330
0
100
AcDbSymbolTable
 70
    2
  0
BLOCK_RECORD
  5
1F
330
1
100
AcDbSymbolTableRecord
100
AcDbBlockTableRecord
  2
*Model_Space
 70
    0
280
    1
281
    0
  0
BLOCK_RECORD
  5
1E
330
1
100
AcDbSymbolTableRecord
100
AcDbBlockTableRecord
  2
*Paper_Space
 70
    0
280
    1
281
    0
  0
BLOCK_RECORD
  5
51
330
1
100
AcDbSymbolTableRecord
100
AcDbBlockTableRecord
  2
*D30
 70
    0
280
    1
281
    0
  0
BLOCK_RECORD
  5
54
330
1
100
AcDbSymbolTableRecord
100
AcDbBlockTableRecord
  2
*D36
 70
    0
280
    1
281
    0
  0
BLOCK_RECORD
  5
57
330
1
100
AcDbSymbolTableRecord
100
AcDbBlockTableRecord
  2
*D6
 70
    0
280
    1
281
    0
  0
BLOCK_RECORD
  5
5A
330
1
100
AcDbSymbolTableRecord
100
AcDbBlockTableRecord
  2
*D16
 70
    0
280
    1
281
    0
  0
BLOCK_RECORD
  5
5D
330
1
100
AcDbSymbolTableRecord
100
AcDbBlockTableRecord
  2
*D4
 70
    0
280
    1
281
    0
  0
BLOCK_RECORD
  5
60
330
1
100
AcDbSymbolTableRecord
100
AcDbBlockTableRecord
  2
*D9
 70
    0
280
    1
281
    0
  0
BLOCK_RECORD
  5
63
330
1
100
AcDbSymbolTableRecord
100
AcDbBlockTableRecord
  2
*D17
 70
    0
280
    1
281
    0
  0
BLOCK_RECORD
  5
66
330
1
100
AcDbSymbolTableRecord
100
AcDbBlockTableRecord
  2
*D32
 70
    0
280
    1
281
    0
  0
BLOCK_RECORD
  5
69
330
1
100
AcDbSymbolTableRecord
100
AcDbBlockTableRecord
  2
*D12
 70
    0
280
    1
281
    0
  0
BLOCK_RECORD
  5
6C
330
1
100
AcDbSymbolTableRecord
100
AcDbBlockTableRecord
  2
*D33
 70
    0
280
    1
281
    0
  0
BLOCK_RECORD
  5
6F
330
1
100
AcDbSymbolTableRecord
100
AcDbBlockTableRecord
  2
*D20
 70
    0
280
    1
281
    0
  0
BLOCK_RECORD
  5
72
330
1
100
AcDbSymbolTableRecord
100
AcDbBlockTableRecord
  2
*D21
 70
    0
280
    1
281
    0
  0
BLOCK_RECORD
  5
75
330
1
100
AcDbSymbolTableRecord
100
AcDbBlockTableRecord
  2
*D3
 70
    0
280
    1
281
    0
  0
BLOCK_RECORD
  5
78
330
1
100
AcDbSymbolTableRecord
100
AcDbBlockTableRecord
  2
*D14
 70
    0
280
    1
281
    0
  0
BLOCK_RECORD
  5
7B
330
1
100
AcDbSymbolTableRecord
100
AcDbBlockTableRecord
  2
*D31
 70
    0
280
    1
281
    0
  0
BLOCK_RECORD
  5
7E
330
1
100
AcDbSymbolTableRecord
100
AcDbBlockTableRecord
  2
*D26
 70
    0
280
    1
281
    0
  0
BLOCK_RECORD
  5
81
330
1
100
AcDbSymbolTableRecord
100
AcDbBlockTableRecord
  2
*D1
 70
    0
280
    1
281
    0
  0
BLOCK_RECORD
  5
84
330
1
100
AcDbSymbolTableRecord
100
AcDbBlockTableRecord
  2
*D37
 70
    0
280
    1
281
    0
  0
BLOCK_RECORD
  5
87
330
1
100
AcDbSymbolTableRecord
100
AcDbBlockTableRecord
  2
*D5
 70
    0
280
    1
281
    0
  0
BLOCK_RECORD
  5
8A
330
1
100
AcDbSymbolTableRecord
100
AcDbBlockTableRecord
  2
*D38
 70
    0
280
    1
281
    0
  0
BLOCK_RECORD
  5
8D
330
1
100
AcDbSymbolTableRecord
100
AcDbBlockTableRecord
  2
*D28
 70
    0
280
    1
281
    0
  0
BLOCK_RECORD
  5
90
330
1
100
AcDbSymbolTableRecord
100
AcDbBlockTableRecord
  2
*D13
 70
    0
280
    1
281
    0
  0
BLOCK_RECORD
  5
93
330
1
100
AcDbSymbolTableRecord
100
AcDbBlockTableRecord
  2
*D35
 70
    0
280
    1
281
    0
  0
BLOCK_RECORD
  5
96
330
1
100
AcDbSymbolTableRecord
100
AcDbBlockTableRecord
  2
*D22
 70
    0
280
    1
281
    0
  0
BLOCK_RECORD
  5
99
330
1
100
AcDbSymbolTableRecord
100
AcDbBlockTableRecord
  2
*D27
 70
    0
280
    1
281
    0
  0
BLOCK_RECORD
  5
9C
330
1
100
AcDbSymbolTableRecord
100
AcDbBlockTableRecord
  2
*D10
 70
    0
280
    1
281
    0
  0
BLOCK_RECORD
  5
9F
330
1
100
AcDbSymbolTableRecord
100
AcDbBlockTableRecord
  2
*D8
 70
    0
280
    1
281
    0
  0
BLOCK_RECORD
  5
A2
330
1
100
AcDbSymbolTableRecord
100
AcDbBlockTableRecord
  2
*D24
 70
    0
280
    1
281
    0
  0
BLOCK_RECORD
  5
A5
330
1
100
AcDbSymbolTableRecord
100
AcDbBlockTableRecord
  2
*D7
 70
    0
280
    1
281
    0
  0
BLOCK_RECORD
  5
A8
330
1
100
AcDbSymbolTableRecord
100
AcDbBlockTableRecord
  2
*D29
 70
    0
280
    1
281
    0
  0
BLOCK_RECORD
  5
AB
330
1
100
AcDbSymbolTableRecord
100
AcDbBlockTableRecord
  2
*D25
 70
    0
280
    1
281
    0
  0
BLOCK_RECORD
  5
AE
330
1
100
AcDbSymbolTableRecord
100
AcDbBlockTableRecord
  2
*D23
 70
    0
280
    1
281
    0
  0
BLOCK_RECORD
  5
B1
330
1
100
AcDbSymbolTableRecord
100
AcDbBlockTableRecord
  2
*D18
 70
    0
280
    1
281
    0
  0
BLOCK_RECORD
  5
B4
330
1
100
AcDbSymbolTableRecord
100
AcDbBlockTableRecord
  2
*D19
 70
    0
280
    1
281
    0
  0
BLOCK_RECORD
  5
B7
330
1
100
AcDbSymbolTableRecord
100
AcDbBlockTableRecord
  2
*D39
 70
    0
280
    1
281
    0
  0
BLOCK_RECORD
  5
BA
330
1
100
AcDbSymbolTableRecord
100
AcDbBlockTableRecord
  2
*D15
 70
    0
280
    1
281
    0
  0
BLOCK_RECORD
  5
BD
330
1
100
AcDbSymbolTableRecord
100
AcDbBlockTableRecord
  2
*D2
 70
    0
280
    1
281
    0
  0
BLOCK_RECORD
  5
C0
330
1
100
AcDbSymbolTableRecord
100
AcDbBlockTableRecord
  2
*D11
 70
    0
280
    1
281
    0
  0
BLOCK_RECORD
  5
C3
330
1
100
AcDbSymbolTableRecord
100
AcDbBlockTableRecord
  2
*D34
 70
    0
280
    1
281
    0
  0
BLOCK_RECORD
  5
C6
330
1
100
AcDbSymbolTableRecord
100
AcDbBlockTableRecord
  2
main body
 70
    0
280
    1
281
    0
  0
BLOCK_RECORD
  5
C9
330
1
100
AcDbSymbolTableRecord
100
AcDbBlockTableRecord
  2
vacuum wirehole
 70
    0
280
    1
281
    0
  0
BLOCK_RECORD
  5
CC
330
1
100
AcDbSymbolTableRecord
100
AcDbBlockTableRecord
  2
general wirehole 1
 70
    0
280
    1
281
    0
  0
BLOCK_RECORD
  5
CF
330
1
100
AcDbSymbolTableRecord
100
AcDbBlockTableRecord
  2
general wirehole 2
 70
    0
280
    1
281
    0
  0
BLOCK_RECORD
  5
D2
330
1
100
AcDbSymbolTableRecord
100
AcDbBlockTableRecord
  2
castor wheel 1
 70
    0
280
    1
281
    0
  0
BLOCK_RECORD
  5
D5
330
1
100
AcDbSymbolTableRecord
100
AcDbBlockTableRecord
  2
castor wheel 2
 70
    0
280
    1
281
    0
  0
ENDTAB
  0
ENDSEC
  0
SECTION
  2
BLOCKS
  0
BLOCK
  5
20
330
1F
100
AcDbEntity
  8
0
100
AcDbBlockBegin
  2
*Model_Space
 70
    0
 10
0
 20
0
 30
0
  3
*Model_Space
  1

  0
ENDBLK
  5
21
330
1F
100
AcDbEntity
  8
0
100
AcDbBlockEnd
  0
BLOCK
  5
1C
330
1B
100
AcDbEntity
  8
0
100
AcDbBlockBegin
  2
*Paper_Space
 70
    0
 10
0
 20
0
 30
0
  3
*Paper_Space
  1

  0
ENDBLK
  5
1D
330
1F
100
AcDbEntity
  8
0
100
AcDbBlockEnd
  0
BLOCK
  5
52
330
51
100
AcDbEntity
  8
0
100
AcDbBlockBegin
  2
*D30
 70
    1
 10
0
 20
0
  3
*D30
  1

  0
LINE
  5
D8
100
AcDbEntity
  8
dimensions0
  6
ByBlock
 62
    0
370
   -2
100
AcDbLine
 10
257.1354279057682
 20
125.5
 11
257.1354279057682
 21
0
  0
MTEXT
  5
D9
100
AcDbEntity
  8
dimensions0
  6
CONTINUOUS
 62
    0
370
   -2
100
AcDbMText
 10
252.4479279057682
 20
62.75000000000001
 30
0
 40
6.25
 41
18.40277777777855
 71
    5
 72
    1
  1
125,5
  7
standard
210
0
220
0
230
1
 50
90
 73
    2
 44
1
  0
SOLID
  5
DA
100
AcDbEntity
  8
dimensions0
  6
ByBlock
 62
    0
370
   -2
100
AcDbTrace
 10
257.1354279057682
 20
125.5
 30
0
 11
258.1761395502003
 21
119.25
 31
0
 12
256.0947162613361
 22
119.25
 32
0
 13
256.0947162613361
 23
119.25
 33
0
  0
SOLID
  5
DB
100
AcDbEntity
  8
dimensions0
  6
ByBlock
 62
    0
370
   -2
100
AcDbTrace
 10
257.1354279057682
 20
0
 30
0
 11
256.0947162613361
 21
6.25
 31
0
 12
258.1761395502003
 22
6.25
 32
0
 13
258.1761395502003
 23
6.25
 33
0
  0
LINE
  5
DC
100
AcDbEntity
  8
dimensions0
  6
ByBlock
 62
    0
370
   -2
100
AcDbLine
 10
13.0625
 20
125.5
 11
260.2604279057682
 21
125.5
  0
LINE
  5
DD
100
AcDbEntity
  8
dimensions0
  6
ByBlock
 62
    0
370
   -2
100
AcDbLine
 10
13.0625
 20
0
 11
260.2604279057682
 21
0
  0
ENDBLK
  5
53
330
51
100
AcDbEntity
  8
0
100
AcDbBlockEnd
  0
BLOCK
  5
55
330
54
100
AcDbEntity
  8
0
100
AcDbBlockBegin
  2
*D36
 70
    1
 10
0
 20
0
  3
*D36
  1

  0
LINE
  5
DE
100
AcDbEntity
  8
dimensions0
  6
ByBlock
 62
    0
370
   -2
100
AcDbLine
 10
-22.1987419774764
 20
-148.5
 11
-22.1987419774764
 21
-125.5
  0
MTEXT
  5
DF
100
AcDbEntity
  8
dimensions0
  6
CONTINUOUS
 62
    0
370
   -2
100
AcDbMText
 10
-26.8862419774764
 20
-137
 30
0
 40
6.25
 41
7.638888888889277
 71
    5
 72
    1
  1
23
  7
standard
210
0
220
0
230
1
 50
90
 73
    2
 44
1
  0
SOLID
  5
E0
100
AcDbEntity
  8
dimensions0
  6
ByBlock
 62
    0
370
   -2
100
AcDbTrace
 10
-22.1987419774764
 20
-148.5
 30
0
 11
-23.2394536219085
 21
-142.25
 31
0
 12
-21.15803033304429
 22
-142.25
 32
0
 13
-21.15803033304429
 23
-142.25
 33
0
  0
SOLID
  5
E1
100
AcDbEntity
  8
dimensions0
  6
ByBlock
 62
    0
370
   -2
100
AcDbTrace
 10
-22.1987419774764
 20
-125.5
 30
0
 11
-21.1580303330443
 21
-131.75
 31
0
 12
-23.2394536219085
 22
-131.75
 32
0
 13
-23.2394536219085
 23
-131.75
 33
0
  0
LINE
  5
E2
100
AcDbEntity
  8
dimensions0
  6
ByBlock
 62
    0
370
   -2
100
AcDbLine
 10
-15.5625
 20
-148.5
 11
-25.3237419774764
 21
-148.5
  0
LINE
  5
E3
100
AcDbEntity
  8
dimensions0
  6
ByBlock
 62
    0
370
   -2
100
AcDbLine
 10
-15.5625
 20
-125.5
 11
-25.3237419774764
 21
-125.5
  0
ENDBLK
  5
56
330
54
100
AcDbEntity
  8
0
100
AcDbBlockEnd
  0
BLOCK
  5
58
330
57
100
AcDbEntity
  8
0
100
AcDbBlockBegin
  2
*D6
 70
    1
 10
0
 20
0
  3
*D6
  1

  0
LINE
  5
E4
100
AcDbEntity
  8
dimensions0
  6
ByBlock
 62
    0
370
   -2
100
AcDbLine
 10
-112
 20
26.64094636723911
 11
-150.6888749101845
 21
26.64094636723911
  0
MTEXT
  5
E5
100
AcDbEntity
  8
dimensions0
  6
CONTINUOUS
 62
    0
370
   -2
100
AcDbMText
 10
-131.3444374550922
 20
31.32844636723911
 30
0
 40
6.25
 41
19.79166666666744
 71
    5
 72
    1
  1
38,69
  7
standard
210
0
220
0
230
1
 50
0
 73
    2
 44
1
  0
SOLID
  5
E6
100
AcDbEntity
  8
dimensions0
  6
ByBlock
 62
    0
370
   -2
100
AcDbTrace
 10
-112
 20
26.64094636723911
 30
0
 11
-118.25
 21
25.60023472280701
 31
0
 12
-118.25
 22
27.68165801167121
 32
0
 13
-118.25
 23
27.68165801167121
 33
0
  0
SOLID
  5
E7
100
AcDbEntity
  8
dimensions0
  6
ByBlock
 62
    0
370
   -2
100
AcDbTrace
 10
-150.6888749101845
 20
26.64094636723911
 30
0
 11
-144.4388749101845
 21
27.68165801167121
 31
0
 12
-144.4388749101845
 22
25.60023472280701
 32
0
 13
-144.4388749101845
 23
25.60023472280701
 33
0
  0
LINE
  5
E8
100
AcDbEntity
  8
dimensions0
  6
ByBlock
 62
    0
370
   -2
100
AcDbLine
 10
-112
 20
38.4375
 11
-112
 21
23.51594636723911
  0
LINE
  5
E9
100
AcDbEntity
  8
dimensions0
  6
ByBlock
 62
    0
370
   -2
100
AcDbLine
 10
-150.6888749101845
 20
38.4375
 11
-150.6888749101845
 21
23.51594636723911
  0
ENDBLK
  5
59
330
57
100
AcDbEntity
  8
0
100
AcDbBlockEnd
  0
BLOCK
  5
5B
330
5A
100
AcDbEntity
  8
0
100
AcDbBlockBegin
  2
*D16
 70
    1
 10
0
 20
0
  3
*D16
  1

  0
LINE
  5
EA
100
AcDbEntity
  8
dimensions0
  6
ByBlock
 62
    0
370
   -2
100
AcDbLine
 10
-37.60340529105935
 20
-40.5
 11
-37.60340529105935
 21
-10.5
  0
MTEXT
  5
EB
100
AcDbEntity
  8
dimensions0
  6
CONTINUOUS
 62
    0
370
   -2
100
AcDbMText
 10
-42.29090529105935
 20
-25.5
 30
0
 40
6.25
 41
2.777777777778165
 71
    5
 72
    1
  1
5
  7
standard
210
0
220
0
230
1
 50
90
 73
    2
 44
1
  0
SOLID
  5
EC
100
AcDbEntity
  8
dimensions0
  6
ByBlock
 62
    0
370
   -2
100
AcDbTrace
 10
-37.60340529105935
 20
-28
 30
0
 11
-36.56269364662725
 21
-34.25
 31
0
 12
-38.64411693549145
 22
-34.25
 32
0
 13
-38.64411693549145
 23
-34.25
 33
0
  0
SOLID
  5
ED
100
AcDbEntity
  8
dimensions0
  6
ByBlock
 62
    0
370
   -2
100
AcDbTrace
 10
-37.60340529105935
 20
-23
 30
0
 11
-38.64411693549145
 21
-16.75
 31
0
 12
-36.56269364662725
 22
-16.75
 32
0
 13
-36.56269364662725
 23
-16.75
 33
0
  0
LINE
  5
EE
100
AcDbEntity
  8
dimensions0
  6
ByBlock
 62
    0
370
   -2
100
AcDbLine
 10
-48.4375
 20
-28
 11
-34.47840529105935
 21
-28
  0
LINE
  5
EF
100
AcDbEntity
  8
dimensions0
  6
ByBlock
 62
    0
370
   -2
100
AcDbLine
 10
-48.4375
 20
-23
 11
-34.47840529105935
 21
-23
  0
ENDBLK
  5
5C
330
5A
100
AcDbEntity
  8
0
100
AcDbBlockEnd
  0
BLOCK
  5
5E
330
5D
100
AcDbEntity
  8
0
100
AcDbBlockBegin
  2
*D4
 70
    1
 10
0
 20
0
  3
*D4
  1

  0
SOLID
  5
F0
100
AcDbEntity
  8
dimensions0
  6
ByBlock
 62
    0
370
   -2
100
AcDbTrace
 10
12.95181367790691
 20
-21.21959024540118
 30
0
 11
10.26326990173634
 21
-15.48222908451275
 31
0
 12
12.26748930878923
 22
-14.92059977988305
 32
0
 13
12.26748930878923
 23
-14.92059977988305
 33
0
  0
LINE
  5
F1
100
AcDbEntity
  8
dimensions0
  6
ByBlock
 62
    0
370
   -2
100
AcDbLine
 10
0
 20
25
 11
12.95181367790691
 21
-21.21959024540118
  0
MTEXT
  5
F2
100
AcDbEntity
  8
dimensions0
  6
CONTINUOUS
 62
    0
370
   -2
100
AcDbMText
 10
10.98953869885591
 20
3.155030431782507
 30
0
 40
6.25
 41
8.333333333333332
 71
    5
 72
    1
  1
48
  7
standard
210
0
220
0
230
1
 50
285.6541184847157
 73
    2
 44
1
  0
ENDBLK
  5
5F
330
5D
100
AcDbEntity
  8
0
100
AcDbBlockEnd
  0
BLOCK
  5
61
330
60
100
AcDbEntity
  8
0
100
AcDbBlockBegin
  2
*D9
 70
    1
 10
0
 20
0
  3
*D9
  1

  0
LINE
  5
F3
100
AcDbEntity
  8
dimensions0
  6
ByBlock
 62
    0
370
   -2
100
AcDbLine
 10
104.9653286869221
 20
-40
 11
104.9653286869221
 21
40
  0
MTEXT
  5
F4
100
AcDbEntity
  8
dimensions0
  6
CONTINUOUS
 62
    0
370
   -2
100
AcDbMText
 10
100.2778286869221
 20
5.740342283542393e-016
 30
0
 40
6.25
 41
7.638888888888888
 71
    5
 72
    1
  1
80
  7
standard
210
0
220
0
230
1
 50
90
 73
    2
 44
1
  0
SOLID
  5
F5
100
AcDbEntity
  8
dimensions0
  6
ByBlock
 62
    0
370
   -2
100
AcDbTrace
 10
104.9653286869221
 20
-40
 30
0
 11
103.92461704249
 21
-33.75
 31
0
 12
106.0060403313542
 22
-33.75
 32
0
 13
106.0060403313542
 23
-33.75
 33
0
  0
SOLID
  5
F6
100
AcDbEntity
  8
dimensions0
  6
ByBlock
 62
    0
370
   -2
100
AcDbTrace
 10
104.9653286869221
 20
40
 30
0
 11
106.0060403313542
 21
33.75
 31
0
 12
103.92461704249
 22
33.75
 32
0
 13
103.92461704249
 23
33.75
 33
0
  0
LINE
  5
F7
100
AcDbEntity
  8
dimensions0
  6
ByBlock
 62
    0
370
   -2
100
AcDbLine
 10
110.4375
 20
-40
 11
101.8403286869221
 21
-40
  0
LINE
  5
F8
100
AcDbEntity
  8
dimensions0
  6
ByBlock
 62
    0
370
   -2
100
AcDbLine
 10
110.4375
 20
40
 11
101.8403286869221
 21
40
  0
ENDBLK
  5
62
330
60
100
AcDbEntity
  8
0
100
AcDbBlockEnd
  0
BLOCK
  5
64
330
63
100
AcDbEntity
  8
0
100
AcDbBlockBegin
  2
*D17
 70
    1
 10
0
 20
0
  3
*D17
  1

  0
LINE
  5
F9
100
AcDbEntity
  8
dimensions0
  6
ByBlock
 62
    0
370
   -2
100
AcDbLine
 10
-55.48545943762291
 20
-23
 11
-55.48545943762291
 21
3.897653355709641e-016
  0
MTEXT
  5
FA
100
AcDbEntity
  8
dimensions0
  6
CONTINUOUS
 62
    0
370
   -2
100
AcDbMText
 10
-60.17295943762291
 20
-11.5
 30
0
 40
6.25
 41
7.638888888889277
 71
    5
 72
    1
  1
23
  7
standard
210
0
220
0
230
1
 50
90
 73
    2
 44
1
  0
SOLID
  5
FB
100
AcDbEntity
  8
dimensions0
  6
ByBlock
 62
    0
370
   -2
100
AcDbTrace
 10
-55.48545943762291
 20
-23
 30
0
 11
-56.52617108205501
 21
-16.75
 31
0
 12
-54.44474779319081
 22
-16.75
 32
0
 13
-54.44474779319081
 23
-16.75
 33
0
  0
SOLID
  5
FC
100
AcDbEntity
  8
dimensions0
  6
ByBlock
 62
    0
370
   -2
100
AcDbTrace
 10
-55.48545943762291
 20
3.897653355709641e-016
 30
0
 11
-54.44474779319081
 21
-6.25
 31
0
 12
-56.52617108205501
 22
-6.25
 32
0
 13
-56.52617108205501
 23
-6.25
 33
0
  0
LINE
  5
FD
100
AcDbEntity
  8
dimensions0
  6
ByBlock
 62
    0
370
   -2
100
AcDbLine
 10
-51.5625
 20
-23
 11
-58.61045943762291
 21
-23
  0
LINE
  5
FE
100
AcDbEntity
  8
dimensions0
  6
ByBlock
 62
    0
370
   -2
100
AcDbLine
 10
-51.5625
 20
1.913447427847464e-016
 11
-58.61045943762291
 21
7.724548211404571e-016
  0
ENDBLK
  5
65
330
63
100
AcDbEntity
  8
0
100
AcDbBlockEnd
  0
BLOCK
  5
67
330
66
100
AcDbEntity
  8
0
100
AcDbBlockBegin
  2
*D32
 70
    1
 10
0
 20
0
  3
*D32
  1

  0
LINE
  5
FF
100
AcDbEntity
  8
dimensions0
  6
ByBlock
 62
    0
370
   -2
100
AcDbLine
 10
-77.30515191545575
 20
199.172046075691
 11
7.888609052210118e-031
 21
199.172046075691
  0
MTEXT
  5
100
100
AcDbEntity
  8
dimensions0
  6
CONTINUOUS
 62
    0
370
   -2
100
AcDbMText
 10
-38.65257595772788
 20
203.859546075691
 30
0
 40
6.25
 41
18.40277777777817
 71
    5
 72
    1
  1
77,31
  7
standard
210
0
220
0
230
1
 50
0
 73
    2
 44
1
  0
SOLID
  5
101
100
AcDbEntity
  8
dimensions0
  6
ByBlock
 62
    0
370
   -2
100
AcDbTrace
 10
-77.30515191545575
 20
199.172046075691
 30
0
 11
-71.05515191545575
 21
200.2127577201231
 31
0
 12
-71.05515191545575
 22
198.1313344312589
 32
0
 13
-71.05515191545575
 23
198.1313344312589
 33
0
  0
SOLID
  5
102
100
AcDbEntity
  8
dimensions0
  6
ByBlock
 62
    0
370
   -2
100
AcDbTrace
 10
7.888609052210118e-031
 20
199.172046075691
 30
0
 11
-6.25
 21
198.1313344312589
 31
0
 12
-6.25
 22
200.2127577201231
 32
0
 13
-6.25
 23
200.2127577201231
 33
0
  0
LINE
  5
103
100
AcDbEntity
  8
dimensions0
  6
ByBlock
 62
    0
370
   -2
100
AcDbLine
 10
-77.30515191545575
 20
88.16751981505945
 11
-77.30515191545575
 21
202.297046075691
  0
LINE
  5
104
100
AcDbEntity
  8
dimensions0
  6
ByBlock
 62
    0
370
   -2
100
AcDbLine
 10
9.567237139237322e-017
 20
88.1675
 11
1.913447427847472e-016
 21
202.297046075691
  0
ENDBLK
  5
68
330
66
100
AcDbEntity
  8
0
100
AcDbBlockEnd
  0
BLOCK
  5
6A
330
69
100
AcDbEntity
  8
0
100
AcDbBlockBegin
  2
*D12
 70
    1
 10
0
 20
0
  3
*D12
  1

  0
ARC
  5
105
100
AcDbEntity
  8
dimensions0
  6
ByBlock
 62
    0
370
   -2
100
AcDbCircle
 10
-0
 20
-0
 40
200.5409226133436
100
AcDbArc
 50
270
 51
333
  0
SOLID
  5
106
100
AcDbEntity
  8
dimensions0
  6
ByBlock
 62
    0
370
   -2
100
AcDbTrace
 10
-3.683755320505534e-014
 20
-200.5409226133436
 30
0
 11
6.233024584414283
 21
-199.4029484234152
 31
0
 12
6.265457787848943
 22
-201.4841190062222
 32
0
 13
6.265457787848943
 23
-201.4841190062222
 33
0
  0
SOLID
  5
107
100
AcDbEntity
  8
dimensions0
  6
ByBlock
 62
    0
370
   -2
100
AcDbTrace
 10
178.6832704152438
 20
-91.04367367546169
 30
0
 11
176.6792062426869
 21
-97.05443964321742
 31
0
 12
174.8395940416924
 22
-96.08070977442502
 32
0
 13
174.8395940416924
 23
-96.08070977442502
 33
0
  0
MTEXT
  5
108
100
AcDbEntity
  8
dimensions0
  6
CONTINUOUS
 62
    0
370
   -2
100
AcDbMText
 10
103.9659402249154
 20
-169.6569949599594
 30
0
 40
6.25
 41
11.80555555555633
 71
    8
 72
    1
  1
63%%D
  7
standard
210
0
220
0
230
1
 50
31.49999999999998
 73
    2
 44
1
  0
ENDBLK
  5
6B
330
69
100
AcDbEntity
  8
0
100
AcDbBlockEnd
  0
BLOCK
  5
6D
330
6C
100
AcDbEntity
  8
0
100
AcDbBlockBegin
  2
*D33
 70
    1
 10
0
 20
0
  3
*D33
  1

  0
LINE
  5
109
100
AcDbEntity
  8
dimensions0
  6
ByBlock
 62
    0
370
   -2
100
AcDbLine
 10
77.67937209219986
 20
199.7886777972876
 11
0
 21
199.7886777972876
  0
MTEXT
  5
10A
100
AcDbEntity
  8
dimensions0
  6
CONTINUOUS
 62
    0
370
   -2
100
AcDbMText
 10
38.83968604609993
 20
204.4761777972876
 30
0
 40
6.25
 41
19.79166666666706
 71
    5
 72
    1
  1
77,68
  7
standard
210
0
220
0
230
1
 50
0
 73
    2
 44
1
  0
SOLID
  5
10B
100
AcDbEntity
  8
dimensions0
  6
ByBlock
 62
    0
370
   -2
100
AcDbTrace
 10
77.67937209219986
 20
199.7886777972876
 30
0
 11
71.42937209219986
 21
198.7479661528555
 31
0
 12
71.42937209219986
 22
200.8293894417197
 32
0
 13
71.42937209219986
 23
200.8293894417197
 33
0
  0
SOLID
  5
10C
100
AcDbEntity
  8
dimensions0
  6
ByBlock
 62
    0
370
   -2
100
AcDbTrace
 10
0
 20
199.7886777972876
 30
0
 11
6.25
 21
200.8293894417197
 31
0
 12
6.25
 22
198.7479661528555
 32
0
 13
6.25
 23
198.7479661528555
 33
0
  0
LINE
  5
10D
100
AcDbEntity
  8
dimensions0
  6
ByBlock
 62
    0
370
   -2
100
AcDbLine
 10
77.67937209219986
 20
87.83418278967071
 11
77.67937209219986
 21
202.9136777972876
  0
LINE
  5
10E
100
AcDbEntity
  8
dimensions0
  6
ByBlock
 62
    0
370
   -2
100
AcDbLine
 10
9.567237139237322e-017
 20
87.8342
 11
1.913447427847464e-016
 21
202.9136777972876
  0
ENDBLK
  5
6E
330
6C
100
AcDbEntity
  8
0
100
AcDbBlockEnd
  0
BLOCK
  5
70
330
6F
100
AcDbEntity
  8
0
100
AcDbBlockBegin
  2
*D20
 70
    1
 10
0
 20
0
  3
*D20
  1

  0
LINE
  5
10F
100
AcDbEntity
  8
dimensions0
  6
ByBlock
 62
    0
370
   -2
100
AcDbLine
 10
-50
 20
-40.16267143593554
 11
-100
 21
-40.16267143593554
  0
MTEXT
  5
110
100
AcDbEntity
  8
dimensions0
  6
CONTINUOUS
 62
    0
370
   -2
100
AcDbMText
 10
-75
 20
-35.47517143593554
 30
0
 40
6.25
 41
7.638888888889277
 71
    5
 72
    1
  1
50
  7
standard
210
0
220
0
230
1
 50
0
 73
    2
 44
1
  0
SOLID
  5
111
100
AcDbEntity
  8
dimensions0
  6
ByBlock
 62
    0
370
   -2
100
AcDbTrace
 10
-50
 20
-40.16267143593554
 30
0
 11
-56.25
 21
-41.20338308036764
 31
0
 12
-56.25
 22
-39.12195979150344
 32
0
 13
-56.25
 23
-39.12195979150344
 33
0
  0
SOLID
  5
112
100
AcDbEntity
  8
dimensions0
  6
ByBlock
 62
    0
370
   -2
100
AcDbTrace
 10
-100
 20
-40.16267143593554
 30
0
 11
-93.75
 21
-39.12195979150344
 31
0
 12
-93.75
 22
-41.20338308036764
 32
0
 13
-93.75
 23
-41.20338308036764
 33
0
  0
LINE
  5
113
100
AcDbEntity
  8
dimensions0
  6
ByBlock
 62
    0
370
   -2
100
AcDbLine
 10
-50
 20
-29.5625
 11
-50
 21
-43.28767143593554
  0
LINE
  5
114
100
AcDbEntity
  8
dimensions0
  6
ByBlock
 62
    0
370
   -2
100
AcDbLine
 10
-100
 20
-29.5625
 11
-100
 21
-43.28767143593554
  0
ENDBLK
  5
71
330
6F
100
AcDbEntity
  8
0
100
AcDbBlockEnd
  0
BLOCK
  5
73
330
72
100
AcDbEntity
  8
0
100
AcDbBlockBegin
  2
*D21
 70
    1
 10
0
 20
0
  3
*D21
  1

  0
LINE
  5
115
100
AcDbEntity
  8
dimensions0
  6
ByBlock
 62
    0
370
   -2
100
AcDbLine
 10
50
 20
-40.41368813241014
 11
100
 21
-40.41368813241014
  0
MTEXT
  5
116
100
AcDbEntity
  8
dimensions0
  6
CONTINUOUS
 62
    0
370
   -2
100
AcDbMText
 10
75
 20
-35.72618813241014
 30
0
 40
6.25
 41
7.638888888889277
 71
    5
 72
    1
  1
50
  7
standard
210
0
220
0
230
1
 50
0
 73
    2
 44
1
  0
SOLID
  5
117
100
AcDbEntity
  8
dimensions0
  6
ByBlock
 62
    0
370
   -2
100
AcDbTrace
 10
50
 20
-40.41368813241014
 30
0
 11
56.25
 21
-39.37297648797804
 31
0
 12
56.25
 22
-41.45439977684224
 32
0
 13
56.25
 23
-41.45439977684224
 33
0
  0
SOLID
  5
118
100
AcDbEntity
  8
dimensions0
  6
ByBlock
 62
    0
370
   -2
100
AcDbTrace
 10
100
 20
-40.41368813241014
 30
0
 11
93.75
 21
-41.45439977684224
 31
0
 12
93.75
 22
-39.37297648797804
 32
0
 13
93.75
 23
-39.37297648797804
 33
0
  0
LINE
  5
119
100
AcDbEntity
  8
dimensions0
  6
ByBlock
 62
    0
370
   -2
100
AcDbLine
 10
50
 20
-29.5625
 11
50
 21
-43.53868813241014
  0
LINE
  5
11A
100
AcDbEntity
  8
dimensions0
  6
ByBlock
 62
    0
370
   -2
100
AcDbLine
 10
100
 20
-29.5625
 11
100
 21
-43.53868813241014
  0
ENDBLK
  5
74
330
72
100
AcDbEntity
  8
0
100
AcDbBlockEnd
  0
BLOCK
  5
76
330
75
100
AcDbEntity
  8
0
100
AcDbBlockBegin
  2
*D3
 70
    1
 10
0
 20
0
  3
*D3
  1

  0
SOLID
  5
11B
100
AcDbEntity
  8
dimensions0
  6
ByBlock
 62
    0
370
   -2
100
AcDbTrace
 10
31.43731121843739
 20
-4.337611752750263
 30
0
 11
26.15788821178276
 21
-0.8342885527496715
 31
0
 12
27.57798096391836
 22
0.6874405567695714
 32
0
 13
27.57798096391836
 23
0.6874405567695714
 33
0
  0
LINE
  5
11C
100
AcDbEntity
  8
dimensions0
  6
ByBlock
 62
    0
370
   -2
100
AcDbLine
 10
0
 20
25
 11
31.43731121843739
 21
-4.337611752750256
  0
MTEXT
  5
11D
100
AcDbEntity
  8
dimensions0
  6
CONTINUOUS
 62
    0
370
   -2
100
AcDbMText
 10
18.91679642528885
 20
13.758226596565
 30
0
 40
6.25
 41
8.333333333333719
 71
    5
 72
    1
  1
43
  7
standard
210
0
220
0
230
1
 50
316.9787122772332
 73
    2
 44
1
  0
ENDBLK
  5
77
330
75
100
AcDbEntity
  8
0
100
AcDbBlockEnd
  0
BLOCK
  5
79
330
78
100
AcDbEntity
  8
0
100
AcDbBlockBegin
  2
*D14
 70
    1
 10
0
 20
0
  3
*D14
  1

  0
LINE
  5
11E
100
AcDbEntity
  8
dimensions0
  6
ByBlock
 62
    0
370
   -2
100
AcDbLine
 10
-112
 20
50.56380117091846
 11
2.454176153765655e-015
 21
50.56380117091846
  0
MTEXT
  5
11F
100
AcDbEntity
  8
dimensions0
  6
CONTINUOUS
 62
    0
370
   -2
100
AcDbMText
 10
-56
 20
55.25130117091846
 30
0
 40
6.25
 41
9.722222222222221
 71
    5
 72
    1
  1
112
  7
standard
210
0
220
0
230
1
 50
0
 73
    2
 44
1
  0
SOLID
  5
120
100
AcDbEntity
  8
dimensions0
  6
ByBlock
 62
    0
370
   -2
100
AcDbTrace
 10
-112
 20
50.56380117091846
 30
0
 11
-105.75
 21
51.60451281535056
 31
0
 12
-105.75
 22
49.52308952648636
 32
0
 13
-105.75
 23
49.52308952648636
 33
0
  0
SOLID
  5
121
100
AcDbEntity
  8
dimensions0
  6
ByBlock
 62
    0
370
   -2
100
AcDbTrace
 10
2.454176153765655e-015
 20
50.56380117091846
 30
0
 11
-6.249999999999998
 21
49.52308952648636
 31
0
 12
-6.249999999999997
 22
51.60451281535056
 32
0
 13
-6.249999999999997
 23
51.60451281535056
 33
0
  0
LINE
  5
122
100
AcDbEntity
  8
dimensions0
  6
ByBlock
 62
    0
370
   -2
100
AcDbLine
 10
-112
 20
41.5625
 11
-112
 21
53.68880117091846
  0
LINE
  5
123
100
AcDbEntity
  8
dimensions0
  6
ByBlock
 62
    0
370
   -2
100
AcDbLine
 10
2.549848525158028e-015
 20
41.5625
 11
2.645520896550401e-015
 21
53.68880117091846
  0
ENDBLK
  5
7A
330
78
100
AcDbEntity
  8
0
100
AcDbBlockEnd
  0
BLOCK
  5
7C
330
7B
100
AcDbEntity
  8
0
100
AcDbBlockBegin
  2
*D31
 70
    1
 10
0
 20
0
  3
*D31
  1

  0
LINE
  5
124
100
AcDbEntity
  8
dimensions0
  6
ByBlock
 62
    0
370
   -2
100
AcDbLine
 10
257.1354279057683
 20
-125.5
 11
257.1354279057683
 21
0
  0
MTEXT
  5
125
100
AcDbEntity
  8
dimensions0
  6
CONTINUOUS
 62
    0
370
   -2
100
AcDbMText
 10
252.4479279057683
 20
-62.74999999999999
 30
0
 40
6.25
 41
18.40277777777855
 71
    5
 72
    1
  1
125,5
  7
standard
210
0
220
0
230
1
 50
90
 73
    2
 44
1
  0
SOLID
  5
126
100
AcDbEntity
  8
dimensions0
  6
ByBlock
 62
    0
370
   -2
100
AcDbTrace
 10
257.1354279057683
 20
-125.5
 30
0
 11
256.0947162613362
 21
-119.25
 31
0
 12
258.1761395502004
 22
-119.25
 32
0
 13
258.1761395502004
 23
-119.25
 33
0
  0
SOLID
  5
127
100
AcDbEntity
  8
dimensions0
  6
ByBlock
 62
    0
370
   -2
100
AcDbTrace
 10
257.1354279057683
 20
0
 30
0
 11
258.1761395502004
 21
-6.25
 31
0
 12
256.0947162613362
 22
-6.25
 32
0
 13
256.0947162613362
 23
-6.25
 33
0
  0
LINE
  5
128
100
AcDbEntity
  8
dimensions0
  6
ByBlock
 62
    0
370
   -2
100
AcDbLine
 10
13.0625
 20
-125.5
 11
260.2604279057683
 21
-125.5
  0
LINE
  5
129
100
AcDbEntity
  8
dimensions0
  6
ByBlock
 62
    0
370
   -2
100
AcDbLine
 10
13.0625
 20
0
 11
260.2604279057683
 21
0
  0
ENDBLK
  5
7D
330
7B
100
AcDbEntity
  8
0
100
AcDbBlockEnd
  0
BLOCK
  5
7F
330
7E
100
AcDbEntity
  8
0
100
AcDbBlockBegin
  2
*D26
 70
    1
 10
0
 20
0
  3
*D26
  1

  0
SOLID
  5
12A
100
AcDbEntity
  8
dimensions0
  6
ByBlock
 62
    0
370
   -2
100
AcDbTrace
 10
66.46683611401161
 20
-117.5038709872706
 30
0
 11
62.48383335464219
 21
-112.5762681475815
 31
0
 12
64.29550219615774
 22
-111.5514857725828
 32
0
 13
64.29550219615774
 23
-111.5514857725828
 33
0
  0
LINE
  5
12B
100
AcDbEntity
  8
dimensions0
  6
ByBlock
 62
    0
370
   -2
100
AcDbLine
 10
0
 20
0
 11
66.46683611401154
 21
-117.5038709872706
  0
MTEXT
  5
12C
100
AcDbEntity
  8
dimensions0
  6
CONTINUOUS
 62
    0
370
   -2
100
AcDbMText
 10
37.31341357739711
 20
-56.44405923967659
 30
0
 40
6.25
 41
11.11111111111189
 71
    5
 72
    1
  1
135
  7
standard
210
0
220
0
230
1
 50
299.4949558176876
 73
    2
 44
1
  0
ENDBLK
  5
80
330
7E
100
AcDbEntity
  8
0
100
AcDbBlockEnd
  0
BLOCK
  5
82
330
81
100
AcDbEntity
  8
0
100
AcDbBlockBegin
  2
*D1
 70
    1
 10
0
 20
0
  3
*D1
  1

  0
LINE
  5
12D
100
AcDbEntity
  8
dimensions0
  6
ByBlock
 62
    0
370
   -2
100
AcDbLine
 10
-9.0579217648613
 20
0
 11
-9.057921764861298
 21
25
  0
MTEXT
  5
12E
100
AcDbEntity
  8
dimensions0
  6
CONTINUOUS
 62
    0
370
   -2
100
AcDbMText
 10
-13.7454217648613
 20
12.5
 30
0
 40
6.25
 41
7.638888888889277
 71
    5
 72
    1
  1
25
  7
standard
210
0
220
0
230
1
 50
90
 73
    2
 44
1
  0
SOLID
  5
12F
100
AcDbEntity
  8
dimensions0
  6
ByBlock
 62
    0
370
   -2
100
AcDbTrace
 10
-9.0579217648613
 20
0
 30
0
 11
-10.0986334092934
 21
6.25
 31
0
 12
-8.017210120429198
 22
6.25
 32
0
 13
-8.017210120429198
 23
6.25
 33
0
  0
SOLID
  5
130
100
AcDbEntity
  8
dimensions0
  6
ByBlock
 62
    0
370
   -2
100
AcDbTrace
 10
-9.057921764861298
 20
25
 30
0
 11
-8.017210120429198
 21
18.75
 31
0
 12
-10.0986334092934
 22
18.75
 32
0
 13
-10.0986334092934
 23
18.75
 33
0
  0
LINE
  5
131
100
AcDbEntity
  8
dimensions0
  6
ByBlock
 62
    0
370
   -2
100
AcDbLine
 10
-1.5625
 20
1.913447427847464e-016
 11
-12.1829217648613
 21
3.826894855694929e-016
  0
LINE
  5
132
100
AcDbEntity
  8
dimensions0
  6
ByBlock
 62
    0
370
   -2
100
AcDbLine
 10
-1.5625
 20
25
 11
-12.1829217648613
 21
25
  0
ENDBLK
  5
83
330
81
100
AcDbEntity
  8
0
100
AcDbBlockEnd
  0
BLOCK
  5
85
330
84
100
AcDbEntity
  8
0
100
AcDbBlockBegin
  2
*D37
 70
    1
 10
0
 20
0
  3
*D37
  1

  0
LINE
  5
133
100
AcDbEntity
  8
dimensions0
  6
ByBlock
 62
    0
370
   -2
100
AcDbLine
 10
-14
 20
-116.5433953817511
 11
14
 21
-116.5433953817511
  0
MTEXT
  5
134
100
AcDbEntity
  8
dimensions0
  6
CONTINUOUS
 62
    0
370
   -2
100
AcDbMText
 10
2.870171141771197e-016
 20
-111.8558953817511
 30
0
 40
6.25
 41
7.638888888888888
 71
    5
 72
    1
  1
28
  7
standard
210
0
220
0
230
1
 50
0
 73
    2
 44
1
  0
SOLID
  5
135
100
AcDbEntity
  8
dimensions0
  6
ByBlock
 62
    0
370
   -2
100
AcDbTrace
 10
-14
 20
-116.5433953817511
 30
0
 11
-7.75
 21
-115.502683737319
 31
0
 12
-7.75
 22
-117.5841070261832
 32
0
 13
-7.75
 23
-117.5841070261832
 33
0
  0
SOLID
  5
136
100
AcDbEntity
  8
dimensions0
  6
ByBlock
 62
    0
370
   -2
100
AcDbTrace
 10
14
 20
-116.5433953817511
 30
0
 11
7.75
 21
-117.5841070261832
 31
0
 12
7.75
 22
-115.502683737319
 32
0
 13
7.75
 23
-115.502683737319
 33
0
  0
LINE
  5
137
100
AcDbEntity
  8
dimensions0
  6
ByBlock
 62
    0
370
   -2
100
AcDbLine
 10
-14
 20
-123.9375
 11
-14
 21
-113.4183953817511
  0
LINE
  5
138
100
AcDbEntity
  8
dimensions0
  6
ByBlock
 62
    0
370
   -2
100
AcDbLine
 10
14
 20
-123.9375
 11
14
 21
-113.4183953817511
  0
ENDBLK
  5
86
330
84
100
AcDbEntity
  8
0
100
AcDbBlockEnd
  0
BLOCK
  5
88
330
87
100
AcDbEntity
  8
0
100
AcDbBlockBegin
  2
*D5
 70
    1
 10
0
 20
0
  3
*D5
  1

  0
LINE
  5
139
100
AcDbEntity
  8
dimensions0
  6
ByBlock
 62
    0
370
   -2
100
AcDbLine
 10
-150.6767935720719
 20
-33.0347734953765
 11
-112
 21
-33.0347734953765
  0
MTEXT
  5
13A
100
AcDbEntity
  8
dimensions0
  6
CONTINUOUS
 62
    0
370
   -2
100
AcDbMText
 10
-131.338396786036
 20
-28.3472734953765
 30
0
 40
6.25
 41
19.79166666666744
 71
    5
 72
    1
  1
38,68
  7
standard
210
0
220
0
230
1
 50
0
 73
    2
 44
1
  0
SOLID
  5
13B
100
AcDbEntity
  8
dimensions0
  6
ByBlock
 62
    0
370
   -2
100
AcDbTrace
 10
-150.6767935720719
 20
-33.0347734953765
 30
0
 11
-144.4267935720719
 21
-31.9940618509444
 31
0
 12
-144.4267935720719
 22
-34.0754851398086
 32
0
 13
-144.4267935720719
 23
-34.0754851398086
 33
0
  0
SOLID
  5
13C
100
AcDbEntity
  8
dimensions0
  6
ByBlock
 62
    0
370
   -2
100
AcDbTrace
 10
-112
 20
-33.0347734953765
 30
0
 11
-118.25
 21
-34.0754851398086
 31
0
 12
-118.25
 22
-31.9940618509444
 32
0
 13
-118.25
 23
-31.9940618509444
 33
0
  0
LINE
  5
13D
100
AcDbEntity
  8
dimensions0
  6
ByBlock
 62
    0
370
   -2
100
AcDbLine
 10
-150.6767935720719
 20
-38.4375
 11
-150.6767935720719
 21
-29.9097734953765
  0
LINE
  5
13E
100
AcDbEntity
  8
dimensions0
  6
ByBlock
 62
    0
370
   -2
100
AcDbLine
 10
-112
 20
-38.4375
 11
-112
 21
-29.9097734953765
  0
ENDBLK
  5
89
330
87
100
AcDbEntity
  8
0
100
AcDbBlockEnd
  0
BLOCK
  5
8B
330
8A
100
AcDbEntity
  8
0
100
AcDbBlockBegin
  2
*D38
 70
    1
 10
0
 20
0
  3
*D38
  1

  0
LINE
  5
13F
100
AcDbEntity
  8
dimensions0
  6
ByBlock
 62
    0
370
   -2
100
AcDbLine
 10
14
 20
112.2269733305751
 11
-14
 21
112.2269733305751
  0
MTEXT
  5
140
100
AcDbEntity
  8
dimensions0
  6
CONTINUOUS
 62
    0
370
   -2
100
AcDbMText
 10
2.870171141771197e-016
 20
116.9144733305751
 30
0
 40
6.25
 41
7.638888888888888
 71
    5
 72
    1
  1
28
  7
standard
210
0
220
0
230
1
 50
0
 73
    2
 44
1
  0
SOLID
  5
141
100
AcDbEntity
  8
dimensions0
  6
ByBlock
 62
    0
370
   -2
100
AcDbTrace
 10
14
 20
112.2269733305751
 30
0
 11
7.75
 21
111.186261686143
 31
0
 12
7.75
 22
113.2676849750072
 32
0
 13
7.75
 23
113.2676849750072
 33
0
  0
SOLID
  5
142
100
AcDbEntity
  8
dimensions0
  6
ByBlock
 62
    0
370
   -2
100
AcDbTrace
 10
-14
 20
112.2269733305751
 30
0
 11
-7.75
 21
113.2676849750072
 31
0
 12
-7.75
 22
111.186261686143
 32
0
 13
-7.75
 23
111.186261686143
 33
0
  0
LINE
  5
143
100
AcDbEntity
  8
dimensions0
  6
ByBlock
 62
    0
370
   -2
100
AcDbLine
 10
14
 20
123.9375
 11
14
 21
109.1019733305751
  0
LINE
  5
144
100
AcDbEntity
  8
dimensions0
  6
ByBlock
 62
    0
370
   -2
100
AcDbLine
 10
-14
 20
123.9375
 11
-14
 21
109.1019733305751
  0
ENDBLK
  5
8C
330
8A
100
AcDbEntity
  8
0
100
AcDbBlockEnd
  0
BLOCK
  5
8E
330
8D
100
AcDbEntity
  8
0
100
AcDbBlockBegin
  2
*D28
 70
    1
 10
0
 20
0
  3
*D28
  1

  0
LINE
  5
145
100
AcDbEntity
  8
dimensions0
  6
ByBlock
 62
    0
370
   -2
100
AcDbLine
 10
201.0219412404807
 20
86.27168278967071
 11
201.0219412404807
 21
0
  0
MTEXT
  5
146
100
AcDbEntity
  8
dimensions0
  6
CONTINUOUS
 62
    0
370
   -2
100
AcDbMText
 10
196.3344412404807
 20
43.13584139483535
 30
0
 40
6.25
 41
19.79166666666706
 71
    5
 72
    1
  1
86,27
  7
standard
210
0
220
0
230
1
 50
90
 73
    2
 44
1
  0
SOLID
  5
147
100
AcDbEntity
  8
dimensions0
  6
ByBlock
 62
    0
370
   -2
100
AcDbTrace
 10
201.0219412404807
 20
86.27168278967071
 30
0
 11
202.0626528849128
 21
80.02168278967071
 31
0
 12
199.9812295960486
 22
80.02168278967071
 32
0
 13
199.9812295960486
 23
80.02168278967071
 33
0
  0
SOLID
  5
148
100
AcDbEntity
  8
dimensions0
  6
ByBlock
 62
    0
370
   -2
100
AcDbTrace
 10
201.0219412404807
 20
0
 30
0
 11
199.9812295960486
 21
6.25
 31
0
 12
202.0626528849128
 22
6.25
 32
0
 13
202.0626528849128
 23
6.25
 33
0
  0
LINE
  5
149
100
AcDbEntity
  8
dimensions0
  6
ByBlock
 62
    0
370
   -2
100
AcDbLine
 10
79.24187209219986
 20
86.27168278967071
 11
204.1469412404807
 21
86.27168278967071
  0
LINE
  5
14A
100
AcDbEntity
  8
dimensions0
  6
ByBlock
 62
    0
370
   -2
100
AcDbLine
 10
79.2419
 20
0
 11
204.1469412404807
 21
0
  0
ENDBLK
  5
8F
330
8D
100
AcDbEntity
  8
0
100
AcDbBlockEnd
  0
BLOCK
  5
91
330
90
100
AcDbEntity
  8
0
100
AcDbBlockBegin
  2
*D13
 70
    1
 10
0
 20
0
  3
*D13
  1

  0
ARC
  5
14B
100
AcDbEntity
  8
dimensions0
  6
ByBlock
 62
    0
370
   -2
100
AcDbCircle
 10
0
 20
0
 40
199.7677416727401
100
AcDbArc
 50
207
 51
270
  0
SOLID
  5
14C
100
AcDbEntity
  8
dimensions0
  6
ByBlock
 62
    0
370
   -2
100
AcDbTrace
 10
-177.9943611527879
 20
-90.69265687384797
 30
0
 11
-174.1503809931621
 21
-95.72946114434123
 31
0
 12
-175.9899344633417
 22
-96.70330196181416
 32
0
 13
-175.9899344633417
 23
-96.70330196181416
 33
0
  0
SOLID
  5
14D
100
AcDbEntity
  8
dimensions0
  6
ByBlock
 62
    0
370
   -2
100
AcDbTrace
 10
-3.669552686117773e-014
 20
-199.7677416727401
 30
0
 11
-6.265514662391674
 21
-200.710560182429
 31
0
 12
-6.232955939726817
 22
-198.6293915595143
 32
0
 13
-6.232955939726817
 23
-198.6293915595143
 33
0
  0
MTEXT
  5
14E
100
AcDbEntity
  8
dimensions0
  6
CONTINUOUS
 62
    0
370
   -2
100
AcDbMText
 10
-103.5619542931844
 20
-168.9977498356878
 30
0
 40
6.25
 41
11.80555555555633
 71
    8
 72
    1
  1
63%%D
  7
standard
210
0
220
0
230
1
 50
-31.49999999999998
 73
    2
 44
1
  0
ENDBLK
  5
92
330
90
100
AcDbEntity
  8
0
100
AcDbBlockEnd
  0
BLOCK
  5
94
330
93
100
AcDbEntity
  8
0
100
AcDbBlockBegin
  2
*D35
 70
    1
 10
0
 20
0
  3
*D35
  1

  0
LINE
  5
14F
100
AcDbEntity
  8
dimensions0
  6
ByBlock
 62
    0
370
   -2
100
AcDbLine
 10
-19.73221509109013
 20
125.5
 11
-19.73221509109013
 21
148.5
  0
MTEXT
  5
150
100
AcDbEntity
  8
dimensions0
  6
CONTINUOUS
 62
    0
370
   -2
100
AcDbMText
 10
-24.41971509109013
 20
137
 30
0
 40
6.25
 41
7.638888888889277
 71
    5
 72
    1
  1
23
  7
standard
210
0
220
0
230
1
 50
90
 73
    2
 44
1
  0
SOLID
  5
151
100
AcDbEntity
  8
dimensions0
  6
ByBlock
 62
    0
370
   -2
100
AcDbTrace
 10
-19.73221509109013
 20
125.5
 30
0
 11
-20.77292673552223
 21
131.75
 31
0
 12
-18.69150344665803
 22
131.75
 32
0
 13
-18.69150344665803
 23
131.75
 33
0
  0
SOLID
  5
152
100
AcDbEntity
  8
dimensions0
  6
ByBlock
 62
    0
370
   -2
100
AcDbTrace
 10
-19.73221509109013
 20
148.5
 30
0
 11
-18.69150344665803
 21
142.25
 31
0
 12
-20.77292673552223
 22
142.25
 32
0
 13
-20.77292673552223
 23
142.25
 33
0
  0
LINE
  5
153
100
AcDbEntity
  8
dimensions0
  6
ByBlock
 62
    0
370
   -2
100
AcDbLine
 10
-15.5625
 20
125.5
 11
-22.85721509109013
 21
125.5
  0
LINE
  5
154
100
AcDbEntity
  8
dimensions0
  6
ByBlock
 62
    0
370
   -2
100
AcDbLine
 10
-15.5625
 20
148.5
 11
-22.85721509109013
 21
148.5
  0
ENDBLK
  5
95
330
93
100
AcDbEntity
  8
0
100
AcDbBlockEnd
  0
BLOCK
  5
97
330
96
100
AcDbEntity
  8
0
100
AcDbBlockBegin
  2
*D22
 70
    1
 10
0
 20
0
  3
*D22
  1

  0
LINE
  5
155
100
AcDbEntity
  8
dimensions0
  6
ByBlock
 62
    0
370
   -2
100
AcDbLine
 10
50
 20
-40.91572152535933
 11
0
 21
-40.91572152535933
  0
MTEXT
  5
156
100
AcDbEntity
  8
dimensions0
  6
CONTINUOUS
 62
    0
370
   -2
100
AcDbMText
 10
25
 20
-36.22822152535933
 30
0
 40
6.25
 41
7.638888888889277
 71
    5
 72
    1
  1
50
  7
standard
210
0
220
0
230
1
 50
0
 73
    2
 44
1
  0
SOLID
  5
157
100
AcDbEntity
  8
dimensions0
  6
ByBlock
 62
    0
370
   -2
100
AcDbTrace
 10
50
 20
-40.91572152535933
 30
0
 11
43.75
 21
-41.95643316979143
 31
0
 12
43.75
 22
-39.87500988092723
 32
0
 13
43.75
 23
-39.87500988092723
 33
0
  0
SOLID
  5
158
100
AcDbEntity
  8
dimensions0
  6
ByBlock
 62
    0
370
   -2
100
AcDbTrace
 10
0
 20
-40.91572152535933
 30
0
 11
6.25
 21
-39.87500988092723
 31
0
 12
6.25
 22
-41.95643316979143
 32
0
 13
6.25
 23
-41.95643316979143
 33
0
  0
LINE
  5
159
100
AcDbEntity
  8
dimensions0
  6
ByBlock
 62
    0
370
   -2
100
AcDbLine
 10
50
 20
-29.5625
 11
50
 21
-44.04072152535933
  0
LINE
  5
15A
100
AcDbEntity
  8
dimensions0
  6
ByBlock
 62
    0
370
   -2
100
AcDbLine
 10
-2.870171141771197e-016
 20
-29.5625
 11
-5.740342283542393e-016
 21
-44.04072152535933
  0
ENDBLK
  5
98
330
96
100
AcDbEntity
  8
0
100
AcDbBlockEnd
  0
BLOCK
  5
9A
330
99
100
AcDbEntity
  8
0
100
AcDbBlockBegin
  2
*D27
 70
    1
 10
0
 20
0
  3
*D27
  1

  0
SOLID
  5
15B
100
AcDbEntity
  8
dimensions0
  6
ByBlock
 62
    0
370
   -2
100
AcDbTrace
 10
105.9803012017284
 20
-91.47773366886025
 30
0
 11
100.5690238792552
 21
-88.18172722679371
 31
0
 12
101.9290516311901
 22
-86.60608531906428
 32
0
 13
101.9290516311901
 23
-86.60608531906428
 33
0
  0
LINE
  5
15C
100
AcDbEntity
  8
dimensions0
  6
ByBlock
 62
    0
370
   -2
100
AcDbLine
 10
0
 20
0
 11
105.9803012017284
 21
-91.47773366886025
  0
MTEXT
  5
15D
100
AcDbEntity
  8
dimensions0
  6
CONTINUOUS
 62
    0
370
   -2
100
AcDbMText
 10
56.05302114781264
 20
-42.19041924955083
 30
0
 40
6.25
 41
11.80555555555556
 71
    5
 72
    1
  1
140
  7
standard
210
0
220
0
230
1
 50
319.2006222046354
 73
    2
 44
1
  0
ENDBLK
  5
9B
330
99
100
AcDbEntity
  8
0
100
AcDbBlockEnd
  0
BLOCK
  5
9D
330
9C
100
AcDbEntity
  8
0
100
AcDbBlockBegin
  2
*D10
 70
    1
 10
0
 20
0
  3
*D10
  1

  0
ARC
  5
15E
100
AcDbEntity
  8
dimensions0
  6
ByBlock
 62
    0
370
   -2
100
AcDbCircle
 10
-0
 20
0
 40
179.8409349606816
100
AcDbArc
 50
270
 51
291
  0
SOLID
  5
15F
100
AcDbEntity
  8
dimensions0
  6
ByBlock
 62
    0
370
   -2
100
AcDbTrace
 10
-3.303515274453114e-014
 20
-179.8409349606816
 30
0
 11
6.230973475168986
 21
-178.6917829783065
 31
0
 12
6.267139437366886
 22
-180.7728920409471
 32
0
 13
6.267139437366886
 23
-180.7728920409471
 33
0
  0
SOLID
  5
160
100
AcDbEntity
  8
dimensions0
  6
ByBlock
 62
    0
370
   -2
100
AcDbTrace
 10
64.4492271061692
 20
-167.8959767622487
 30
0
 11
58.93233194523369
 21
-171.0119755604036
 31
0
 12
58.22029299208846
 22
-169.0561321524003
 32
0
 13
58.22029299208846
 23
-169.0561321524003
 33
0
  0
MTEXT
  5
161
100
AcDbEntity
  8
dimensions0
  6
CONTINUOUS
 62
    0
370
   -2
100
AcDbMText
 10
32.48866427897745
 20
-175.2931460879115
 30
0
 40
6.25
 41
10.41666666666667
 71
    8
 72
    1
  1
21%%D
  7
standard
210
0
220
0
230
1
 50
10.50000000000001
 73
    2
 44
1
  0
ENDBLK
  5
9E
330
9C
100
AcDbEntity
  8
0
100
AcDbBlockEnd
  0
BLOCK
  5
A0
330
9F
100
AcDbEntity
  8
0
100
AcDbBlockBegin
  2
*D8
 70
    1
 10
0
 20
0
  3
*D8
  1

  0
LINE
  5
162
100
AcDbEntity
  8
dimensions0
  6
ByBlock
 62
    0
370
   -2
100
AcDbLine
 10
150.7801155114154
 20
26.10812743989433
 11
112
 21
26.10812743989433
  0
MTEXT
  5
163
100
AcDbEntity
  8
dimensions0
  6
CONTINUOUS
 62
    0
370
   -2
100
AcDbMText
 10
131.3900577557077
 20
30.79562743989433
 30
0
 40
6.25
 41
19.79166666666706
 71
    5
 72
    1
  1
38,78
  7
standard
210
0
220
0
230
1
 50
0
 73
    2
 44
1
  0
SOLID
  5
164
100
AcDbEntity
  8
dimensions0
  6
ByBlock
 62
    0
370
   -2
100
AcDbTrace
 10
150.7801155114154
 20
26.10812743989433
 30
0
 11
144.5301155114154
 21
25.06741579546223
 31
0
 12
144.5301155114154
 22
27.14883908432643
 32
0
 13
144.5301155114154
 23
27.14883908432643
 33
0
  0
SOLID
  5
165
100
AcDbEntity
  8
dimensions0
  6
ByBlock
 62
    0
370
   -2
100
AcDbTrace
 10
112
 20
26.10812743989433
 30
0
 11
118.25
 21
27.14883908432643
 31
0
 12
118.25
 22
25.06741579546223
 32
0
 13
118.25
 23
25.06741579546223
 33
0
  0
LINE
  5
166
100
AcDbEntity
  8
dimensions0
  6
ByBlock
 62
    0
370
   -2
100
AcDbLine
 10
150.7801155114154
 20
38.45445598573479
 11
150.7801155114154
 21
22.98312743989433
  0
LINE
  5
167
100
AcDbEntity
  8
dimensions0
  6
ByBlock
 62
    0
370
   -2
100
AcDbLine
 10
112
 20
38.4375
 11
112
 21
22.98312743989433
  0
ENDBLK
  5
A1
330
9F
100
AcDbEntity
  8
0
100
AcDbBlockEnd
  0
BLOCK
  5
A3
330
A2
100
AcDbEntity
  8
0
100
AcDbBlockBegin
  2
*D24
 70
    1
 10
0
 20
0
  3
*D24
  1

  0
SOLID
  5
168
100
AcDbEntity
  8
dimensions0
  6
ByBlock
 62
    0
370
   -2
100
AcDbTrace
 10
-63.19446816229618
 20
-119.2956796941303
 30
0
 11
-61.18844576950931
 21
-113.285566975845
 31
0
 12
-59.349150910426
 22
-114.2598961444405
 32
0
 13
-59.349150910426
 23
-114.2598961444405
 33
0
  0
LINE
  5
169
100
AcDbEntity
  8
dimensions0
  6
ByBlock
 62
    0
370
   -2
100
AcDbLine
 10
0
 20
0
 11
-63.19446816229617
 21
-119.2956796941303
  0
MTEXT
  5
16A
100
AcDbEntity
  8
dimensions0
  6
CONTINUOUS
 62
    0
370
   -2
100
AcDbMText
 10
-35.73944518163872
 20
-57.45358748031874
 30
0
 40
6.25
 41
11.11111111111189
 71
    5
 72
    1
  1
135
  7
standard
210
0
220
0
230
1
 50
62.08850106283546
 73
    2
 44
1
  0
ENDBLK
  5
A4
330
A2
100
AcDbEntity
  8
0
100
AcDbBlockEnd
  0
BLOCK
  5
A6
330
A5
100
AcDbEntity
  8
0
100
AcDbBlockBegin
  2
*D7
 70
    1
 10
0
 20
0
  3
*D7
  1

  0
LINE
  5
16B
100
AcDbEntity
  8
dimensions0
  6
ByBlock
 62
    0
370
   -2
100
AcDbLine
 10
112
 20
-32.50195456803171
 11
150.6292538182716
 21
-32.50195456803171
  0
MTEXT
  5
16C
100
AcDbEntity
  8
dimensions0
  6
CONTINUOUS
 62
    0
370
   -2
100
AcDbMText
 10
131.3146269091358
 20
-27.81445456803171
 30
0
 40
6.25
 41
19.79166666666783
 71
    5
 72
    1
  1
38,63
  7
standard
210
0
220
0
230
1
 50
0
 73
    2
 44
1
  0
SOLID
  5
16D
100
AcDbEntity
  8
dimensions0
  6
ByBlock
 62
    0
370
   -2
100
AcDbTrace
 10
112
 20
-32.50195456803171
 30
0
 11
118.25
 21
-31.46124292359961
 31
0
 12
118.25
 22
-33.54266621246381
 32
0
 13
118.25
 23
-33.54266621246381
 33
0
  0
SOLID
  5
16E
100
AcDbEntity
  8
dimensions0
  6
ByBlock
 62
    0
370
   -2
100
AcDbTrace
 10
150.6292538182716
 20
-32.50195456803171
 30
0
 11
144.3792538182716
 21
-33.54266621246381
 31
0
 12
144.3792538182716
 22
-31.46124292359961
 32
0
 13
144.3792538182716
 23
-31.46124292359961
 33
0
  0
LINE
  5
16F
100
AcDbEntity
  8
dimensions0
  6
ByBlock
 62
    0
370
   -2
100
AcDbLine
 10
112
 20
-38.4375
 11
112
 21
-29.37695456803171
  0
LINE
  5
170
100
AcDbEntity
  8
dimensions0
  6
ByBlock
 62
    0
370
   -2
100
AcDbLine
 10
150.6292538182716
 20
-38.4375
 11
150.6292538182716
 21
-29.37695456803171
  0
ENDBLK
  5
A7
330
A5
100
AcDbEntity
  8
0
100
AcDbBlockEnd
  0
BLOCK
  5
A9
330
A8
100
AcDbEntity
  8
0
100
AcDbBlockBegin
  2
*D29
 70
    1
 10
0
 20
0
  3
*D29
  1

  0
LINE
  5
171
100
AcDbEntity
  8
dimensions0
  6
ByBlock
 62
    0
370
   -2
100
AcDbLine
 10
-199.172046075691
 20
86.60501981505945
 11
-199.172046075691
 21
-3.155443620884047e-030
  0
MTEXT
  5
172
100
AcDbEntity
  8
dimensions0
  6
CONTINUOUS
 62
    0
370
   -2
100
AcDbMText
 10
-203.859546075691
 20
43.30250990752972
 30
0
 40
6.25
 41
18.40277777777855
 71
    5
 72
    1
  1
86,61
  7
standard
210
0
220
0
230
1
 50
90
 73
    2
 44
1
  0
SOLID
  5
173
100
AcDbEntity
  8
dimensions0
  6
ByBlock
 62
    0
370
   -2
100
AcDbTrace
 10
-199.172046075691
 20
86.60501981505945
 30
0
 11
-198.1313344312589
 21
80.35501981505945
 31
0
 12
-200.2127577201231
 22
80.35501981505945
 32
0
 13
-200.2127577201231
 23
80.35501981505945
 33
0
  0
SOLID
  5
174
100
AcDbEntity
  8
dimensions0
  6
ByBlock
 62
    0
370
   -2
100
AcDbTrace
 10
-199.172046075691
 20
-3.155443620884047e-030
 30
0
 11
-200.2127577201231
 21
6.25
 31
0
 12
-198.1313344312589
 22
6.25
 32
0
 13
-198.1313344312589
 23
6.25
 33
0
  0
LINE
  5
175
100
AcDbEntity
  8
dimensions0
  6
ByBlock
 62
    0
370
   -2
100
AcDbLine
 10
-78.86765191545575
 20
86.60501981505945
 11
-202.297046075691
 21
86.60501981505945
  0
LINE
  5
176
100
AcDbEntity
  8
dimensions0
  6
ByBlock
 62
    0
370
   -2
100
AcDbLine
 10
-78.8677
 20
1.913447427847464e-016
 11
-202.297046075691
 21
3.826894855694897e-016
  0
ENDBLK
  5
AA
330
A8
100
AcDbEntity
  8
0
100
AcDbBlockEnd
  0
BLOCK
  5
AC
330
AB
100
AcDbEntity
  8
0
100
AcDbBlockBegin
  2
*D25
 70
    1
 10
0
 20
0
  3
*D25
  1

  0
SOLID
  5
177
100
AcDbEntity
  8
dimensions0
  6
ByBlock
 62
    0
370
   -2
100
AcDbTrace
 10
-104.0611804746033
 20
-93.65506242714297
 30
0
 11
-100.1117914464724
 21
-88.70047798126501
 31
0
 12
-98.71939267464464
 22
-90.2475877277403
 32
0
 13
-98.71939267464464
 23
-90.2475877277403
 33
0
  0
LINE
  5
178
100
AcDbEntity
  8
dimensions0
  6
ByBlock
 62
    0
370
   -2
100
AcDbLine
 10
0
 20
0
 11
-104.0611804746033
 21
-93.65506242714297
  0
MTEXT
  5
179
100
AcDbEntity
  8
dimensions0
  6
CONTINUOUS
 62
    0
370
   -2
100
AcDbMText
 10
-55.16636241678187
 20
-43.34333990303789
 30
0
 40
6.25
 41
11.80555555555556
 71
    5
 72
    1
  1
140
  7
standard
210
0
220
0
230
1
 50
41.98721249581667
 73
    2
 44
1
  0
ENDBLK
  5
AD
330
AB
100
AcDbEntity
  8
0
100
AcDbBlockEnd
  0
BLOCK
  5
AF
330
AE
100
AcDbEntity
  8
0
100
AcDbBlockBegin
  2
*D23
 70
    1
 10
0
 20
0
  3
*D23
  1

  0
LINE
  5
17A
100
AcDbEntity
  8
dimensions0
  6
ByBlock
 62
    0
370
   -2
100
AcDbLine
 10
-50
 20
-40.91572152535933
 11
0
 21
-40.91572152535933
  0
MTEXT
  5
17B
100
AcDbEntity
  8
dimensions0
  6
CONTINUOUS
 62
    0
370
   -2
100
AcDbMText
 10
-25
 20
-36.22822152535933
 30
0
 40
6.25
 41
7.638888888889277
 71
    5
 72
    1
  1
50
  7
standard
210
0
220
0
230
1
 50
0
 73
    2
 44
1
  0
SOLID
  5
17C
100
AcDbEntity
  8
dimensions0
  6
ByBlock
 62
    0
370
   -2
100
AcDbTrace
 10
-50
 20
-40.91572152535933
 30
0
 11
-43.75
 21
-39.87500988092723
 31
0
 12
-43.75
 22
-41.95643316979143
 32
0
 13
-43.75
 23
-41.95643316979143
 33
0
  0
SOLID
  5
17D
100
AcDbEntity
  8
dimensions0
  6
ByBlock
 62
    0
370
   -2
100
AcDbTrace
 10
0
 20
-40.91572152535933
 30
0
 11
-6.25
 21
-41.95643316979143
 31
0
 12
-6.25
 22
-39.87500988092723
 32
0
 13
-6.25
 23
-39.87500988092723
 33
0
  0
LINE
  5
17E
100
AcDbEntity
  8
dimensions0
  6
ByBlock
 62
    0
370
   -2
100
AcDbLine
 10
-50
 20
-29.5625
 11
-50
 21
-44.04072152535933
  0
LINE
  5
17F
100
AcDbEntity
  8
dimensions0
  6
ByBlock
 62
    0
370
   -2
100
AcDbLine
 10
-2.870171141771197e-016
 20
-29.5625
 11
-5.740342283542393e-016
 21
-44.04072152535933
  0
ENDBLK
  5
B0
330
AE
100
AcDbEntity
  8
0
100
AcDbBlockEnd
  0
BLOCK
  5
B2
330
B1
100
AcDbEntity
  8
0
100
AcDbBlockBegin
  2
*D18
 70
    1
 10
0
 20
0
  3
*D18
  1

  0
LINE
  5
180
100
AcDbEntity
  8
dimensions0
  6
ByBlock
 62
    0
370
   -2
100
AcDbLine
 10
44.04094478382223
 20
-40.5
 11
44.04094478382223
 21
-10.5
  0
MTEXT
  5
181
100
AcDbEntity
  8
dimensions0
  6
CONTINUOUS
 62
    0
370
   -2
100
AcDbMText
 10
39.35344478382223
 20
-25.5
 30
0
 40
6.25
 41
2.777777777778165
 71
    5
 72
    1
  1
5
  7
standard
210
0
220
0
230
1
 50
90
 73
    2
 44
1
  0
SOLID
  5
182
100
AcDbEntity
  8
dimensions0
  6
ByBlock
 62
    0
370
   -2
100
AcDbTrace
 10
44.04094478382223
 20
-28
 30
0
 11
45.08165642825433
 21
-34.25
 31
0
 12
43.00023313939013
 22
-34.25
 32
0
 13
43.00023313939013
 23
-34.25
 33
0
  0
SOLID
  5
183
100
AcDbEntity
  8
dimensions0
  6
ByBlock
 62
    0
370
   -2
100
AcDbTrace
 10
44.04094478382223
 20
-23
 30
0
 11
43.00023313939013
 21
-16.75
 31
0
 12
45.08165642825433
 22
-16.75
 32
0
 13
45.08165642825433
 23
-16.75
 33
0
  0
LINE
  5
184
100
AcDbEntity
  8
dimensions0
  6
ByBlock
 62
    0
370
   -2
100
AcDbLine
 10
48.4375
 20
-28
 11
40.91594478382223
 21
-28
  0
LINE
  5
185
100
AcDbEntity
  8
dimensions0
  6
ByBlock
 62
    0
370
   -2
100
AcDbLine
 10
48.4375
 20
-23
 11
40.91594478382223
 21
-23
  0
ENDBLK
  5
B3
330
B1
100
AcDbEntity
  8
0
100
AcDbBlockEnd
  0
BLOCK
  5
B5
330
B4
100
AcDbEntity
  8
0
100
AcDbBlockBegin
  2
*D19
 70
    1
 10
0
 20
0
  3
*D19
  1

  0
LINE
  5
186
100
AcDbEntity
  8
dimensions0
  6
ByBlock
 62
    0
370
   -2
100
AcDbLine
 10
59.2662366000392
 20
-23
 11
59.2662366000392
 21
-6.584057103992223e-016
  0
MTEXT
  5
187
100
AcDbEntity
  8
dimensions0
  6
CONTINUOUS
 62
    0
370
   -2
100
AcDbMText
 10
54.5787366000392
 20
-11.5
 30
0
 40
6.25
 41
7.638888888889277
 71
    5
 72
    1
  1
23
  7
standard
210
0
220
0
230
1
 50
90
 73
    2
 44
1
  0
SOLID
  5
188
100
AcDbEntity
  8
dimensions0
  6
ByBlock
 62
    0
370
   -2
100
AcDbTrace
 10
59.2662366000392
 20
-23
 30
0
 11
58.2255249556071
 21
-16.75
 31
0
 12
60.3069482444713
 22
-16.75
 32
0
 13
60.3069482444713
 23
-16.75
 33
0
  0
SOLID
  5
189
100
AcDbEntity
  8
dimensions0
  6
ByBlock
 62
    0
370
   -2
100
AcDbTrace
 10
59.2662366000392
 20
-6.584057103992223e-016
 30
0
 11
60.3069482444713
 21
-6.250000000000001
 31
0
 12
58.2255249556071
 22
-6.250000000000001
 32
0
 13
58.2255249556071
 23
-6.250000000000001
 33
0
  0
LINE
  5
18A
100
AcDbEntity
  8
dimensions0
  6
ByBlock
 62
    0
370
   -2
100
AcDbLine
 10
51.5625
 20
-23
 11
62.3912366000392
 21
-23
  0
LINE
  5
18B
100
AcDbEntity
  8
dimensions0
  6
ByBlock
 62
    0
370
   -2
100
AcDbLine
 10
51.5625
 20
0
 11
62.3912366000392
 21
-6.584057103992223e-016
  0
ENDBLK
  5
B6
330
B4
100
AcDbEntity
  8
0
100
AcDbBlockEnd
  0
BLOCK
  5
B8
330
B7
100
AcDbEntity
  8
0
100
AcDbBlockBegin
  2
*D39
 70
    1
 10
0
 20
0
  3
*D39
  1

  0
LINE
  5
18C
100
AcDbEntity
  8
dimensions0
  6
ByBlock
 62
    0
370
   -2
100
AcDbLine
 10
-100.313655458739
 20
-39.38336827840343
 11
-100.313655458739
 21
40.61663172159657
  0
MTEXT
  5
18D
100
AcDbEntity
  8
dimensions0
  6
CONTINUOUS
 62
    0
370
   -2
100
AcDbMText
 10
-105.001155458739
 20
0.6166317215965672
 30
0
 40
6.25
 41
7.638888888888888
 71
    5
 72
    1
  1
80
  7
standard
210
0
220
0
230
1
 50
90
 73
    2
 44
1
  0
SOLID
  5
18E
100
AcDbEntity
  8
dimensions0
  6
ByBlock
 62
    0
370
   -2
100
AcDbTrace
 10
-100.313655458739
 20
-39.38336827840343
 30
0
 11
-101.3543671031711
 21
-33.13336827840343
 31
0
 12
-99.27294381430686
 22
-33.13336827840343
 32
0
 13
-99.27294381430686
 23
-33.13336827840343
 33
0
  0
SOLID
  5
18F
100
AcDbEntity
  8
dimensions0
  6
ByBlock
 62
    0
370
   -2
100
AcDbTrace
 10
-100.313655458739
 20
40.61663172159657
 30
0
 11
-99.27294381430686
 21
34.36663172159657
 31
0
 12
-101.3543671031711
 22
34.36663172159657
 32
0
 13
-101.3543671031711
 23
34.36663172159657
 33
0
  0
LINE
  5
190
100
AcDbEntity
  8
dimensions0
  6
ByBlock
 62
    0
370
   -2
100
AcDbLine
 10
-103.6545510624378
 20
-39.38336827840343
 11
-97.18865545873896
 21
-39.38336827840343
  0
LINE
  5
191
100
AcDbEntity
  8
dimensions0
  6
ByBlock
 62
    0
370
   -2
100
AcDbLine
 10
-103.6545510624378
 20
40.61663172159657
 11
-97.18865545873896
 21
40.61663172159657
  0
ENDBLK
  5
B9
330
B7
100
AcDbEntity
  8
0
100
AcDbBlockEnd
  0
BLOCK
  5
BB
330
BA
100
AcDbEntity
  8
0
100
AcDbBlockBegin
  2
*D15
 70
    1
 10
0
 20
0
  3
*D15
  1

  0
LINE
  5
192
100
AcDbEntity
  8
dimensions0
  6
ByBlock
 62
    0
370
   -2
100
AcDbLine
 10
112
 20
51.18043289251503
 11
2.303149928918541e-015
 21
51.18043289251503
  0
MTEXT
  5
193
100
AcDbEntity
  8
dimensions0
  6
CONTINUOUS
 62
    0
370
   -2
100
AcDbMText
 10
56
 20
55.86793289251503
 30
0
 40
6.25
 41
9.722222222222221
 71
    5
 72
    1
  1
112
  7
standard
210
0
220
0
230
1
 50
0
 73
    2
 44
1
  0
SOLID
  5
194
100
AcDbEntity
  8
dimensions0
  6
ByBlock
 62
    0
370
   -2
100
AcDbTrace
 10
112
 20
51.18043289251503
 30
0
 11
105.75
 21
50.13972124808293
 31
0
 12
105.75
 22
52.22114453694713
 32
0
 13
105.75
 23
52.22114453694713
 33
0
  0
SOLID
  5
195
100
AcDbEntity
  8
dimensions0
  6
ByBlock
 62
    0
370
   -2
100
AcDbTrace
 10
2.303149928918541e-015
 20
51.18043289251503
 30
0
 11
6.250000000000003
 21
52.22114453694713
 31
0
 12
6.250000000000003
 22
50.13972124808293
 32
0
 13
6.250000000000003
 23
50.13972124808293
 33
0
  0
LINE
  5
196
100
AcDbEntity
  8
dimensions0
  6
ByBlock
 62
    0
370
   -2
100
AcDbLine
 10
112
 20
41.5625
 11
112
 21
54.30543289251503
  0
LINE
  5
197
100
AcDbEntity
  8
dimensions0
  6
ByBlock
 62
    0
370
   -2
100
AcDbLine
 10
2.398822300310914e-015
 20
41.5625
 11
2.494494671703288e-015
 21
54.30543289251503
  0
ENDBLK
  5
BC
330
BA
100
AcDbEntity
  8
0
100
AcDbBlockEnd
  0
BLOCK
  5
BE
330
BD
100
AcDbEntity
  8
0
100
AcDbBlockBegin
  2
*D2
 70
    1
 10
0
 20
0
  3
*D2
  1

  0
SOLID
  5
198
100
AcDbEntity
  8
dimensions0
  6
ByBlock
 62
    0
370
   -2
100
AcDbTrace
 10
40
 20
25
 30
0
 11
33.75
 21
23.9592883555679
 31
0
 12
33.75
 22
26.0407116444321
 32
0
 13
33.75
 23
26.0407116444321
 33
0
  0
LINE
  5
199
100
AcDbEntity
  8
dimensions0
  6
ByBlock
 62
    0
370
   -2
100
AcDbLine
 10
0
 20
25
 11
40
 21
25
  0
MTEXT
  5
19A
100
AcDbEntity
  8
dimensions0
  6
CONTINUOUS
 62
    0
370
   -2
100
AcDbMText
 10
20
 20
29.6875
 30
0
 40
6.25
 41
8.333333333333332
 71
    5
 72
    1
  1
40
  7
standard
210
0
220
0
230
1
 50
0
 73
    2
 44
1
  0
ENDBLK
  5
BF
330
BD
100
AcDbEntity
  8
0
100
AcDbBlockEnd
  0
BLOCK
  5
C1
330
C0
100
AcDbEntity
  8
0
100
AcDbBlockBegin
  2
*D11
 70
    1
 10
0
 20
0
  3
*D11
  1

  0
ARC
  5
19B
100
AcDbEntity
  8
dimensions0
  6
ByBlock
 62
    0
370
   -2
100
AcDbCircle
 10
-0
 20
-0
 40
179.2320477662592
100
AcDbArc
 50
249
 51
270
  0
SOLID
  5
19C
100
AcDbEntity
  8
dimensions0
  6
ByBlock
 62
    0
370
   -2
100
AcDbTrace
 10
-64.2310214507997
 20
-167.3275315955911
 30
0
 11
-58.00201886204439
 21
-168.4873192813923
 31
0
 12
-58.71394235789135
 22
-170.4432047186016
 32
0
 13
-58.71394235789135
 23
-170.4432047186016
 33
0
  0
SOLID
  5
19D
100
AcDbEntity
  8
dimensions0
  6
ByBlock
 62
    0
370
   -2
100
AcDbTrace
 10
-3.292330567547353e-014
 20
-179.2320477662592
 30
0
 11
-6.267194441122894
 21
-180.1636348872604
 31
0
 12
-6.230905628330865
 22
-178.0825279631711
 32
0
 13
-6.230905628330865
 23
-178.0825279631711
 33
0
  0
MTEXT
  5
19E
100
AcDbEntity
  8
dimensions0
  6
CONTINUOUS
 62
    0
370
   -2
100
AcDbMText
 10
-32.3777034011365
 20
-174.6944547658428
 30
0
 40
6.25
 41
10.41666666666667
 71
    8
 72
    1
  1
21%%D
  7
standard
210
0
220
0
230
1
 50
-10.50000000000002
 73
    2
 44
1
  0
ENDBLK
  5
C2
330
C0
100
AcDbEntity
  8
0
100
AcDbBlockEnd
  0
BLOCK
  5
C4
330
C3
100
AcDbEntity
  8
0
100
AcDbBlockBegin
  2
*D34
 70
    1
 10
0
 20
0
  3
*D34
  1

  0
LINE
  5
19F
100
AcDbEntity
  8
dimensions0
  6
ByBlock
 62
    0
370
   -2
100
AcDbLine
 10
-247.2693203602232
 20
-156
 11
-247.2693203602232
 21
156
  0
MTEXT
  5
1A0
100
AcDbEntity
  8
dimensions0
  6
CONTINUOUS
 62
    0
370
   -2
100
AcDbMText
 10
-251.9568203602232
 20
5.740342283542393e-016
 30
0
 40
6.25
 41
11.1111111111115
 71
    5
 72
    1
  1
312
  7
standard
210
0
220
0
230
1
 50
90
 73
    2
 44
1
  0
SOLID
  5
1A1
100
AcDbEntity
  8
dimensions0
  6
ByBlock
 62
    0
370
   -2
100
AcDbTrace
 10
-247.2693203602232
 20
-156
 30
0
 11
-248.3100320046553
 21
-149.75
 31
0
 12
-246.2286087157911
 22
-149.75
 32
0
 13
-246.2286087157911
 23
-149.75
 33
0
  0
SOLID
  5
1A2
100
AcDbEntity
  8
dimensions0
  6
ByBlock
 62
    0
370
   -2
100
AcDbTrace
 10
-247.2693203602232
 20
156
 30
0
 11
-246.2286087157911
 21
149.75
 31
0
 12
-248.3100320046553
 22
149.75
 32
0
 13
-248.3100320046553
 23
149.75
 33
0
  0
LINE
  5
1A3
100
AcDbEntity
  8
dimensions0
  6
ByBlock
 62
    0
370
   -2
100
AcDbLine
 10
-1.562500000000018
 20
-156
 11
-250.3943203602232
 21
-156
  0
LINE
  5
1A4
100
AcDbEntity
  8
dimensions0
  6
ByBlock
 62
    0
370
   -2
100
AcDbLine
 10
-1.562499999999982
 20
156
 11
-250.3943203602232
 21
156
  0
ENDBLK
  5
C5
330
C3
100
AcDbEntity
  8
0
100
AcDbBlockEnd
  0
BLOCK
  5
C7
330
C6
100
AcDbEntity
  8
0
100
AcDbBlockBegin
  2
main body
 70
    0
 10
0
 20
0
  3
main body
  1

  0
LINE
  5
1A5
100
AcDbEntity
  8
0
  6
ByLayer
 62
  256
370
   -1
100
AcDbLine
 10
-150.6888749101845
 20
40
 11
-112
 21
40
  0
LINE
  5
1A6
100
AcDbEntity
  8
0
  6
ByLayer
 62
  256
370
   -1
100
AcDbLine
 10
-112
 20
40
 11
-112
 21
-40
  0
LINE
  5
1A7
100
AcDbEntity
  8
0
  6
ByLayer
 62
  256
370
   -1
100
AcDbLine
 10
-112
 20
-40
 11
-150.6767935720719
 21
-40
  0
LINE
  5
1A8
100
AcDbEntity
  8
0
  6
ByLayer
 62
  256
370
   -1
100
AcDbLine
 10
150.6292538182716
 20
-40
 11
112
 21
-40
  0
LINE
  5
1A9
100
AcDbEntity
  8
0
  6
ByLayer
 62
  256
370
   -1
100
AcDbLine
 10
112
 20
-40
 11
112
 21
40
  0
LINE
  5
1AA
100
AcDbEntity
  8
0
  6
ByLayer
 62
  256
370
   -1
100
AcDbLine
 10
112
 20
40
 11
150.7162269565586
 21
40
  0
ARC
  5
1AB
100
AcDbEntity
  8
0
  6
ByLayer
 62
  256
370
   -1
100
AcDbCircle
 10
0
 20
0
 40
156
100
AcDbArc
 50
14.86360864865612
 51
165.1338128640044
  0
ARC
  5
1AC
100
AcDbEntity
  8
0
  6
ByLayer
 62
  256
370
   -1
100
AcDbCircle
 10
0
 20
0
 40
156
100
AcDbArc
 50
194.8673263265667
 51
345.1281893304698
  0
ENDBLK
  5
C8
330
C6
100
AcDbEntity
  8
0
100
AcDbBlockEnd
  0
BLOCK
  5
CA
330
C9
100
AcDbEntity
  8
0
100
AcDbBlockBegin
  2
vacuum wirehole
 70
    0
 10
0
 20
0
  3
vacuum wirehole
  1

  0
ARC
  5
1AD
100
AcDbEntity
  8
0
  6
ByLayer
 62
  256
370
   -1
100
AcDbCircle
 10
0
 20
25
 40
43
100
AcDbArc
 50
215.5487440028721
 51
324.4512559971279
  0
ARC
  5
1AE
100
AcDbEntity
  8
0
  6
ByLayer
 62
  256
370
   -1
100
AcDbCircle
 10
0
 20
25
 40
48
100
AcDbArc
 50
211.3881664643485
 51
328.6118335356515
  0
LINE
  5
1AF
100
AcDbEntity
  8
0
  6
ByLayer
 62
  256
370
   -1
100
AcDbLine
 10
-40.97560249709576
 20
7.042977312465837e-016
 11
-34.9857113690718
 21
2.34187669256869e-016
  0
LINE
  5
1B0
100
AcDbEntity
  8
0
  6
ByLayer
 62
  256
370
   -1
100
AcDbLine
 10
40.97560249709576
 20
-7.042977312465837e-016
 11
34.9857113690718
 21
-2.34187669256869e-016
  0
ENDBLK
  5
CB
330
C9
100
AcDbEntity
  8
0
100
AcDbBlockEnd
  0
BLOCK
  5
CD
330
CC
100
AcDbEntity
  8
0
100
AcDbBlockBegin
  2
general wirehole 1
 70
    0
 10
0
 20
0
  3
general wirehole 1
  1

  0
ARC
  5
1B1
100
AcDbEntity
  8
0
  6
ByLayer
 62
  256
370
   -1
100
AcDbCircle
 10
0
 20
0
 40
135
100
AcDbArc
 50
206.456330663328
 51
248.8156711549539
  0
ARC
  5
1B2
100
AcDbEntity
  8
0
  6
ByLayer
 62
  256
370
   -1
100
AcDbCircle
 10
0
 20
0
 40
140
100
AcDbArc
 50
207
 51
249
  0
LINE
  5
1B3
100
AcDbEntity
  8
0
  6
ByLayer
 62
  256
370
   -1
100
AcDbLine
 10
-50.1715129363421
 20
-130.7012597096082
 11
-48.78488974199957
 21
-125.8770611861468
  0
LINE
  5
1B4
100
AcDbEntity
  8
0
  6
ByLayer
 62
  256
370
   -1
100
AcDbLine
 10
-120.8620145528306
 20
-60.14460439832791
 11
-124.7409133863715
 21
-63.55866996353654
  0
ENDBLK
  5
CE
330
CC
100
AcDbEntity
  8
0
100
AcDbBlockEnd
  0
BLOCK
  5
D0
330
CF
100
AcDbEntity
  8
0
100
AcDbBlockBegin
  2
general wirehole 2
 70
    0
 10
0
 20
0
  3
general wirehole 2
  1

  0
ARC
  5
1B5
100
AcDbEntity
  8
0
  6
ByLayer
 62
  256
370
   -1
100
AcDbCircle
 10
0
 20
0
 40
140
100
AcDbArc
 50
291
 51
333
  0
ARC
  5
1B6
100
AcDbEntity
  8
0
  6
ByLayer
 62
  256
370
   -1
100
AcDbCircle
 10
0
 20
0
 40
135
100
AcDbArc
 50
291
 51
333
  0
LINE
  5
1B7
100
AcDbEntity
  8
0
  6
ByLayer
 62
  256
370
   -1
100
AcDbLine
 10
50.17151293634205
 20
-130.7012597096083
 11
48.37967318861555
 21
-126.0333575771222
  0
LINE
  5
1B8
100
AcDbEntity
  8
0
  6
ByLayer
 62
  256
370
   -1
100
AcDbLine
 10
124.7409133863715
 20
-63.55866996353657
 11
120.2858807654297
 21
-61.28871746483884
  0
ENDBLK
  5
D1
330
CF
100
AcDbEntity
  8
0
100
AcDbBlockEnd
  0
BLOCK
  5
D3
330
D2
100
AcDbEntity
  8
0
100
AcDbBlockBegin
  2
castor wheel 1
 70
    0
 10
0
 20
0
  3
castor wheel 1
  1

  0
LINE
  5
1B9
100
AcDbEntity
  8
0
  6
ByLayer
 62
  256
370
   -1
100
AcDbLine
 10
11.5
 20
148.5
 11
-11.5
 21
148.5
  0
LINE
  5
1BA
100
AcDbEntity
  8
0
  6
ByLayer
 62
  256
370
   -1
100
AcDbLine
 10
-11.5
 20
148.5
 11
-11.5
 21
125.5
  0
LINE
  5
1BB
100
AcDbEntity
  8
0
  6
ByLayer
 62
  256
370
   -1
100
AcDbLine
 10
-11.5
 20
125.5
 11
11.5
 21
125.5
  0
LINE
  5
1BC
100
AcDbEntity
  8
0
  6
ByLayer
 62
  256
370
   -1
100
AcDbLine
 10
11.5
 20
125.5
 11
11.5
 21
148.5
  0
ENDBLK
  5
D4
330
D2
100
AcDbEntity
  8
0
100
AcDbBlockEnd
  0
BLOCK
  5
D6
330
D5
100
AcDbEntity
  8
0
100
AcDbBlockBegin
  2
castor wheel 2
 70
    0
 10
0
 20
0
  3
castor wheel 2
  1

  0
LINE
  5
1BD
100
AcDbEntity
  8
0
  6
ByLayer
 62
  256
370
   -1
100
AcDbLine
 10
11.5
 20
-148.5
 11
11.5
 21
-125.5
  0
LINE
  5
1BE
100
AcDbEntity
  8
0
  6
ByLayer
 62
  256
370
   -1
100
AcDbLine
 10
11.5
 20
-125.5
 11
-11.49999999999999
 21
-125.5
  0
LINE
  5
1BF
100
AcDbEntity
  8
0
  6
ByLayer
 62
  256
370
   -1
100
AcDbLine
 10
-11.49999999999999
 20
-125.5
 11
-11.49999999999999
 21
-148.5
  0
LINE
  5
1C0
100
AcDbEntity
  8
0
  6
ByLayer
 62
  256
370
   -1
100
AcDbLine
 10
-11.49999999999999
 20
-148.5
 11
11.5
 21
-148.5
  0
ENDBLK
  5
D7
330
D5
100
AcDbEntity
  8
0
100
AcDbBlockEnd
  0
ENDSEC
  0
SECTION
  2
ENTITIES
  0
LINE
  5
1C1
100
AcDbEntity
  8
outline construction
  6
ByLayer
 62
  256
370
   -1
100
AcDbLine
 10
50
 20
-20
 11
50
 21
20
  0
LINE
  5
1C2
100
AcDbEntity
  8
outline construction
  6
ByLayer
 62
  256
370
   -1
100
AcDbLine
 10
-50
 20
-20
 11
-50
 21
20
  0
LINE
  5
1C3
100
AcDbEntity
  8
outline construction
  6
ByLayer
 62
  256
370
   -1
100
AcDbLine
 10
50
 20
20
 11
115
 21
20
  0
LINE
  5
1C4
100
AcDbEntity
  8
outline construction
  6
ByLayer
 62
  256
370
   -1
100
AcDbLine
 10
50
 20
-20
 11
115
 21
-20
  0
LINE
  5
1C5
100
AcDbEntity
  8
outline construction
  6
ByLayer
 62
  256
370
   -1
100
AcDbLine
 10
-50
 20
20
 11
-115
 21
20
  0
LINE
  5
1C6
100
AcDbEntity
  8
outline construction
  6
ByLayer
 62
  256
370
   -1
100
AcDbLine
 10
-50
 20
-20
 11
-115
 21
-20
  0
LINE
  5
1C7
100
AcDbEntity
  8
outline construction
  6
ByLayer
 62
  256
370
   -1
100
AcDbLine
 10
-115
 20
20
 11
-115
 21
-20
  0
LINE
  5
1C8
100
AcDbEntity
  8
outline construction
  6
ByLayer
 62
  256
370
   -1
100
AcDbLine
 10
115
 20
-20
 11
115
 21
20
  0
CIRCLE
  5
1C9
100
AcDbEntity
  8
outline construction
  6
ByLayer
 62
  256
370
   -1
100
AcDbCircle
 10
0
 20
25
 40
40
  0
LWPOLYLINE
  5
1CA
100
AcDbEntity
  8
outline construction
  6
ByLayer
 62
  256
370
   -1
100
AcDbPolyline
 90
    4
 70
    1
 43
0
 10
115
 20
37
 10
157
 20
37
 10
157
 20
-37
 10
115
 20
-37
  0
LWPOLYLINE
  5
1CB
100
AcDbEntity
  8
outline construction
  6
ByLayer
 62
  256
370
   -1
100
AcDbPolyline
 90
    4
 70
    1
 43
0
 10
-157
 20
-37
 10
-115
 20
-37
 10
-115
 20
37
 10
-157
 20
37
  0
LINE
  5
1CC
100
AcDbEntity
  8
construction_1
  6
ByLayer
 62
  256
370
   -1
100
AcDbLine
 10
-136
 20
-37
 11
-136
 21
37
  0
LINE
  5
1CD
100
AcDbEntity
  8
construction_1
  6
ByLayer
 62
  256
370
   -1
100
AcDbLine
 10
136
 20
-37
 11
136
 21
37
  0
CIRCLE
  5
1CE
100
AcDbEntity
  8
construction_1
  6
ByLayer
 62
  256
370
   -1
100
AcDbCircle
 10
0
 20
0
 40
136
  0
CIRCLE
  5
1CF
100
AcDbEntity
  8
construction_1
  6
ByLayer
 62
  256
370
   -1
100
AcDbCircle
 10
0
 20
-137
 40
32.5
  0
CIRCLE
  5
1D0
100
AcDbEntity
  8
construction_1
  6
ByLayer
 62
  256
370
   -1
100
AcDbCircle
 10
0
 20
137
 40
32.5
  0
CIRCLE
  5
1D1
100
AcDbEntity
  8
outline construction
  6
ByLayer
 62
  256
370
   -1
100
AcDbCircle
 10
0
 20
0
 40
156
  0
LINE
  5
1D2
100
AcDbEntity
  8
constrcution
  6
ByLayer
 62
  256
370
   -1
100
AcDbLine
 10
-220
 20
0
 11
220
 21
0
  0
LINE
  5
1D3
100
AcDbEntity
  8
constrcution
  6
ByLayer
 62
  256
370
   -1
100
AcDbLine
 10
-1.347066989204615e-014
 20
-220
 11
1.347066989204615e-014
 21
220
  0
CIRCLE
  5
1D4
100
AcDbEntity
  8
construction_1
  6
ByLayer
 62
  256
370
   -1
100
AcDbCircle
 10
-77.30515191545575
 20
86.60501981505945
 40
58
  0
LINE
  5
1D5
100
AcDbEntity
  8
outline construction
  6
ByLayer
 62
  256
370
   -1
100
AcDbLine
 10
112
 20
-40
 11
112
 21
40
  0
LINE
  5
1D6
100
AcDbEntity
  8
outline construction
  6
ByLayer
 62
  256
370
   -1
100
AcDbLine
 10
-112
 20
-40
 11
-112
 21
40
  0
LINE
  5
1D7
100
AcDbEntity
  8
outline construction
  6
ByLayer
 62
  256
370
   -1
100
AcDbLine
 10
-112
 20
-40
 11
-150.6767935720719
 21
-40
  0
LINE
  5
1D8
100
AcDbEntity
  8
outline construction
  6
ByLayer
 62
  256
370
   -1
100
AcDbLine
 10
-112
 20
40
 11
-150.6888749101845
 21
40
  0
LINE
  5
1D9
100
AcDbEntity
  8
outline construction
  6
ByLayer
 62
  256
370
   -1
100
AcDbLine
 10
112
 20
40
 11
150.7162269565586
 21
40
  0
LINE
  5
1DA
100
AcDbEntity
  8
outline construction
  6
ByLayer
 62
  256
370
   -1
100
AcDbLine
 10
112
 20
-40
 11
150.6292538182716
 21
-40
  0
CIRCLE
  5
1DB
100
AcDbEntity
  8
outline construction
  6
ByLayer
 62
  256
370
   -1
100
AcDbCircle
 10
0
 20
25
 40
43
  0
CIRCLE
  5
1DC
100
AcDbEntity
  8
outline construction
  6
ByLayer
 62
  256
370
   -1
100
AcDbCircle
 10
0
 20
25
 40
48
  0
LWPOLYLINE
  5
1DD
100
AcDbEntity
  8
outline construction
  6
ByLayer
 62
  256
370
   -1
100
AcDbPolyline
 90
    4
 70
    1
 43
0
 10
50
 20
-23
 10
100
 20
-23
 10
100
 20
-28
 10
50
 20
-28
  0
LWPOLYLINE
  5
1DE
100
AcDbEntity
  8
outline construction
  6
ByLayer
 62
  256
370
   -1
100
AcDbPolyline
 90
    4
 70
    1
 43
0
 10
-50
 20
-23
 10
-100
 20
-23
 10
-100
 20
-28
 10
-50
 20
-28
  0
LINE
  5
1DF
100
AcDbEntity
  8
construction_1
  6
ByLayer
 62
  256
370
   -1
100
AcDbLine
 10
0
 20
0
 11
-77.30515191545575
 21
86.60501981505945
  0
CIRCLE
  5
1E0
100
AcDbEntity
  8
construction_1
  6
ByLayer
 62
  256
370
   -1
100
AcDbCircle
 10
77.67937209219986
 20
86.27168278967071
 40
58
  0
ARC
  5
1E1
100
AcDbEntity
  8
outline construction
  6
ByLayer
 62
  256
370
   -1
100
AcDbCircle
 10
0
 20
0
 40
135
100
AcDbArc
 50
206.456330663328
 51
248.8156711549539
  0
ARC
  5
1E2
100
AcDbEntity
  8
outline construction
  6
ByLayer
 62
  256
370
   -1
100
AcDbCircle
 10
0
 20
0
 40
135
100
AcDbArc
 50
-69
 51
-27
  0
ARC
  5
1E3
100
AcDbEntity
  8
outline construction
  6
ByLayer
 62
  256
370
   -1
100
AcDbCircle
 10
0
 20
0
 40
140
100
AcDbArc
 50
-69
 51
-27
  0
ARC
  5
1E4
100
AcDbEntity
  8
outline construction
  6
ByLayer
 62
  256
370
   -1
100
AcDbCircle
 10
0
 20
0
 40
140
100
AcDbArc
 50
207
 51
249
  0
LINE
  5
1E5
100
AcDbEntity
  8
outline construction
  6
ByLayer
 62
  256
370
   -1
100
AcDbLine
 10
120.2858807654297
 20
-61.28871746483881
 11
124.7409133863715
 21
-63.55866996353654
  0
LINE
  5
1E6
100
AcDbEntity
  8
outline construction
  6
ByLayer
 62
  256
370
   -1
100
AcDbLine
 10
50.17151293634205
 20
-130.7012597096083
 11
48.37967318861555
 21
-126.0333575771222
  0
LINE
  5
1E7
100
AcDbEntity
  8
outline construction
  6
ByLayer
 62
  256
370
   -1
100
AcDbLine
 10
-50.1715129363421
 20
-130.7012597096082
 11
-48.78488974199957
 21
-125.8770611861468
  0
LINE
  5
1E8
100
AcDbEntity
  8
outline construction
  6
ByLayer
 62
  256
370
   -1
100
AcDbLine
 10
-124.7409133863715
 20
-63.55866996353654
 11
-120.8620145528306
 21
-60.14460439832791
  0
POINT
  5
1E9
100
AcDbEntity
  8
outline construction
  6
ByLayer
 62
  256
370
   -1
100
AcDbPoint
 10
-77.30515191545575
 20
86.60501981505945
  0
POINT
  5
1EA
100
AcDbEntity
  8
outline construction
  6
ByLayer
 62
  256
370
   -1
100
AcDbPoint
 10
77.67937209219986
 20
86.27168278967071
  0
CIRCLE
  5
1EB
100
AcDbEntity
  8
0
  6
ByLayer
 62
  256
370
   -1
100
AcDbCircle
 10
0
 20
25
 40
40
  0
INSERT
  5
1EC
100
AcDbEntity
  8
0
  6
ByLayer
 62
  256
370
   -1
100
AcDbBlockReference
  2
main body
 10
0
 20
0
 30
0
 41
1
 42
1
 43
0
 50
0
 70
    1
 71
    1
 44
0
 45
0
  0
INSERT
  5
1ED
100
AcDbEntity
  8
0
  6
ByLayer
 62
  256
370
   -1
100
AcDbBlockReference
  2
vacuum wirehole
 10
0
 20
0
 30
0
 41
1
 42
1
 43
0
 50
0
 70
    1
 71
    1
 44
0
 45
0
  0
LINE
  5
1EE
100
AcDbEntity
  8
construction_1
  6
ByLayer
 62
  256
370
   -1
100
AcDbLine
 10
20
 20
-157
 11
20
 21
-117
  0
LINE
  5
1EF
100
AcDbEntity
  8
construction_1
  6
ByLayer
 62
  256
370
   -1
100
AcDbLine
 10
20
 20
-117
 11
-19.99999999999998
 21
-117
  0
LINE
  5
1F0
100
AcDbEntity
  8
construction_1
  6
ByLayer
 62
  256
370
   -1
100
AcDbLine
 10
-19.99999999999998
 20
-117
 11
-19.99999999999999
 21
-157
  0
LINE
  5
1F1
100
AcDbEntity
  8
construction_1
  6
ByLayer
 62
  256
370
   -1
100
AcDbLine
 10
-19.99999999999999
 20
-157
 11
20
 21
-157
  0
LINE
  5
1F2
100
AcDbEntity
  8
construction_1
  6
ByLayer
 62
  256
370
   -1
100
AcDbLine
 10
20
 20
157
 11
-20
 21
157
  0
LINE
  5
1F3
100
AcDbEntity
  8
construction_1
  6
ByLayer
 62
  256
370
   -1
100
AcDbLine
 10
-20
 20
157
 11
-20
 21
117
  0
LINE
  5
1F4
100
AcDbEntity
  8
construction_1
  6
ByLayer
 62
  256
370
   -1
100
AcDbLine
 10
-20
 20
117
 11
20
 21
117
  0
LINE
  5
1F5
100
AcDbEntity
  8
construction_1
  6
ByLayer
 62
  256
370
   -1
100
AcDbLine
 10
20
 20
117
 11
20
 21
157
  0
INSERT
  5
1F6
100
AcDbEntity
  8
0
  6
ByLayer
 62
  256
370
   -1
100
AcDbBlockReference
  2
general wirehole 1
 10
0
 20
0
 30
0
 41
1
 42
1
 43
0
 50
0
 70
    1
 71
    1
 44
0
 45
0
  0
INSERT
  5
1F7
100
AcDbEntity
  8
0
  6
ByLayer
 62
  256
370
   -1
100
AcDbBlockReference
  2
general wirehole 2
 10
0
 20
0
 30
0
 41
1
 42
1
 43
0
 50
0
 70
    1
 71
    1
 44
0
 45
0
  0
DIMENSION
  5
1F8
100
AcDbEntity
  8
dimensions0
  6
ByLayer
 62
  256
370
   -1
100
AcDbDimension
  2
*D1
 10
-9.057921764861298
 20
25
 30
0
 11
-13.7454217648613
 21
12.5
 31
0
 70
   32
 71
    5
 72
    0
  3
Standard
 53
0
210
0
220
0
230
1
100
AcDbAlignedDimension
 13
0
 23
0
 33
0
 14
0
 24
25
 34
0
 50
90
100
AcDbRotatedDimension
  0
POINT
  5
1F9
100
AcDbEntity
  8
0
  6
ByLayer
 62
  256
370
   -1
100
AcDbPoint
 10
-77.30515191545575
 20
86.60501981505945
  0
POINT
  5
1FA
100
AcDbEntity
  8
0
  6
ByLayer
 62
  256
370
   -1
100
AcDbPoint
 10
77.67937209219986
 20
86.27168278967071
  0
POINT
  5
1FB
100
AcDbEntity
  8
0
  6
ByLayer
 62
  256
370
   -1
100
AcDbPoint
 10
0
 20
25
  0
DIMENSION
  5
1FC
100
AcDbEntity
  8
dimensions0
  6
ByLayer
 62
  256
370
   -1
100
AcDbDimension
  2
*D2
 10
0
 20
25
 30
0
 11
20
 21
29.6875
 31
0
 70
   36
 71
    5
 72
    0
  3
Standard
 53
0
210
0
220
0
230
1
100
AcDbRadialDimension
 15
40
 25
25
 35
0
 40
0
  0
DIMENSION
  5
1FD
100
AcDbEntity
  8
dimensions0
  6
ByLayer
 62
  256
370
   -1
100
AcDbDimension
  2
*D3
 10
0
 20
25
 30
0
 11
18.91679642528885
 21
13.758226596565
 31
0
 70
   36
 71
    5
 72
    0
  3
Standard
 53
0
210
0
220
0
230
1
100
AcDbRadialDimension
 15
31.43731121843739
 25
-4.337611752750263
 35
0
 40
0
  0
DIMENSION
  5
1FE
100
AcDbEntity
  8
dimensions0
  6
ByLayer
 62
  256
370
   -1
100
AcDbDimension
  2
*D4
 10
0
 20
25
 30
0
 11
10.98953869885591
 21
3.155030431782507
 31
0
 70
   36
 71
    5
 72
    0
  3
Standard
 53
0
210
0
220
0
230
1
100
AcDbRadialDimension
 15
12.95181367790691
 25
-21.21959024540118
 35
0
 40
0
  0
LINE
  5
1FF
100
AcDbEntity
  8
outline construction
  6
ByLayer
 62
  256
370
   -1
100
AcDbLine
 10
11.5
 20
-148.5
 11
11.5
 21
-125.5
  0
LINE
  5
200
100
AcDbEntity
  8
outline construction
  6
ByLayer
 62
  256
370
   -1
100
AcDbLine
 10
11.5
 20
-125.5
 11
-11.49999999999999
 21
-125.5
  0
LINE
  5
201
100
AcDbEntity
  8
outline construction
  6
ByLayer
 62
  256
370
   -1
100
AcDbLine
 10
-11.49999999999999
 20
-125.5
 11
-11.49999999999999
 21
-148.5
  0
LINE
  5
202
100
AcDbEntity
  8
outline construction
  6
ByLayer
 62
  256
370
   -1
100
AcDbLine
 10
-11.49999999999999
 20
-148.5
 11
11.5
 21
-148.5
  0
LINE
  5
203
100
AcDbEntity
  8
outline construction
  6
ByLayer
 62
  256
370
   -1
100
AcDbLine
 10
11.5
 20
148.5
 11
-11.5
 21
148.5
  0
LINE
  5
204
100
AcDbEntity
  8
outline construction
  6
ByLayer
 62
  256
370
   -1
100
AcDbLine
 10
-11.5
 20
148.5
 11
-11.5
 21
125.5
  0
LINE
  5
205
100
AcDbEntity
  8
outline construction
  6
ByLayer
 62
  256
370
   -1
100
AcDbLine
 10
-11.5
 20
125.5
 11
11.5
 21
125.5
  0
LINE
  5
206
100
AcDbEntity
  8
outline construction
  6
ByLayer
 62
  256
370
   -1
100
AcDbLine
 10
11.5
 20
125.5
 11
11.5
 21
148.5
  0
DIMENSION
  5
207
100
AcDbEntity
  8
dimensions0
  6
ByLayer
 62
  256
370
   -1
100
AcDbDimension
  2
*D5
 10
-112
 20
-33.0347734953765
 30
0
 11
-131.338396786036
 21
-28.3472734953765
 31
0
 70
   32
 71
    5
 72
    0
  3
Standard
 53
0
210
0
220
0
230
1
100
AcDbAlignedDimension
 13
-150.6767935720719
 23
-40
 33
0
 14
-112
 24
-40
 34
0
100
AcDbRotatedDimension
  0
DIMENSION
  5
208
100
AcDbEntity
  8
dimensions0
  6
ByLayer
 62
  256
370
   -1
100
AcDbDimension
  2
*D6
 10
-150.6888749101845
 20
26.64094636723911
 30
0
 11
-131.3444374550922
 21
31.32844636723911
 31
0
 70
   32
 71
    5
 72
    0
  3
Standard
 53
0
210
0
220
0
230
1
100
AcDbAlignedDimension
 13
-112
 23
40
 33
0
 14
-150.6888749101845
 24
40
 34
0
100
AcDbRotatedDimension
  0
DIMENSION
  5
209
100
AcDbEntity
  8
dimensions0
  6
ByLayer
 62
  256
370
   -1
100
AcDbDimension
  2
*D7
 10
150.6292538182716
 20
-32.50195456803171
 30
0
 11
131.3146269091358
 21
-27.81445456803171
 31
0
 70
   32
 71
    5
 72
    0
  3
Standard
 53
0
210
0
220
0
230
1
100
AcDbAlignedDimension
 13
112
 23
-40
 33
0
 14
150.6292538182716
 24
-40
 34
0
100
AcDbRotatedDimension
  0
DIMENSION
  5
20A
100
AcDbEntity
  8
dimensions0
  6
ByLayer
 62
  256
370
   -1
100
AcDbDimension
  2
*D8
 10
112
 20
26.10812743989433
 30
0
 11
131.3900577557077
 21
30.79562743989433
 31
0
 70
   32
 71
    5
 72
    0
  3
Standard
 53
0
210
0
220
0
230
1
100
AcDbAlignedDimension
 13
150.7801155114154
 23
40.01695598573479
 33
0
 14
112
 24
40
 34
0
100
AcDbRotatedDimension
  0
DIMENSION
  5
20B
100
AcDbEntity
  8
dimensions0
  6
ByLayer
 62
  256
370
   -1
100
AcDbDimension
  2
*D9
 10
104.9653286869221
 20
40
 30
0
 11
100.2778286869221
 21
5.740342283542393e-016
 31
0
 70
   32
 71
    5
 72
    0
  3
Standard
 53
0
210
0
220
0
230
1
100
AcDbAlignedDimension
 13
112
 23
-40
 33
0
 14
112
 24
40
 34
0
 50
90
100
AcDbRotatedDimension
  0
LINE
  5
20C
100
AcDbEntity
  8
constrcution
  6
ByLayer
 62
  256
370
   -1
100
AcDbLine
 10
89.59198738632507
 20
233.3951066243004
 11
-89.59198738632507
 21
-233.3951066243004
  0
LINE
  5
20D
100
AcDbEntity
  8
constrcution
  6
ByLayer
 62
  256
370
   -1
100
AcDbLine
 10
222.7516310470919
 20
113.4976249348867
 11
-222.7516310470919
 21
-113.4976249348867
  0
LINE
  5
20E
100
AcDbEntity
  8
constrcution
  6
ByLayer
 62
  256
370
   -1
100
AcDbLine
 10
-89.5919873863251
 20
233.3951066243004
 11
89.5919873863251
 21
-233.3951066243004
  0
LINE
  5
20F
100
AcDbEntity
  8
constrcution
  6
ByLayer
 62
  256
370
   -1
100
AcDbLine
 10
167.2826515897146
 20
-185.7862063693485
 11
-167.2826515897146
 21
185.7862063693485
  0
LWPOLYLINE
  5
210
100
AcDbEntity
  8
0
  6
ByLayer
 62
  256
370
   -1
100
AcDbPolyline
 90
    4
 70
    1
 43
0
 10
-50
 20
-23
 10
-100
 20
-23
 10
-100
 20
-28
 10
-50
 20
-28
  0
LWPOLYLINE
  5
211
100
AcDbEntity
  8
0
  6
ByLayer
 62
  256
370
   -1
100
AcDbPolyline
 90
    4
 70
    1
 43
0
 10
50
 20
-28
 10
100
 20
-28
 10
100
 20
-23
 10
50
 20
-23
  0
DIMENSION
  5
212
100
AcDbEntity
  8
dimensions0
  6
ByLayer
 62
  256
370
   -1
100
AcDbDimension
  2
*D10
 10
89.5919873863251
 20
-233.3951066243004
 30
0
 11
0
 21
0
 31
0
 70
   34
 71
    5
 72
    0
  3
Standard
 53
0
210
0
220
0
230
1
100
AcDb2LineAngularDimension
 13
1.347066989204615e-014
 23
220
 33
0
 14
-1.347066989204615e-014
 24
-220
 34
0
 15
-89.5919873863251
 25
233.3951066243004
 35
0
 16
28.36505919344206
 26
-177.5899358198112
 36
0
  0
DIMENSION
  5
213
100
AcDbEntity
  8
dimensions0
  6
ByLayer
 62
  256
370
   -1
100
AcDbDimension
  2
*D11
 10
-1.347066989204615e-014
 20
-220
 30
0
 11
0
 21
0
 31
0
 70
   34
 71
    5
 72
    0
  3
Standard
 53
0
210
0
220
0
230
1
100
AcDb2LineAngularDimension
 13
89.59198738632507
 23
233.3951066243004
 33
0
 14
-89.59198738632507
 24
-233.3951066243004
 34
0
 15
1.347066989204615e-014
 25
220
 35
0
 16
-28.36505919344206
 26
-176.9733040982146
 36
0
  0
LINE
  5
214
100
AcDbEntity
  8
constrcution
  6
ByLayer
 62
  256
370
   -1
100
AcDbLine
 10
-222.751631047092
 20
113.4976249348867
 11
222.751631047092
 21
-113.4976249348867
  0
DIMENSION
  5
215
100
AcDbEntity
  8
dimensions0
  6
ByLayer
 62
  256
370
   -1
100
AcDbDimension
  2
*D12
 10
222.751631047092
 20
-113.4976249348867
 30
0
 11
0
 21
0
 31
0
 70
   34
 71
    5
 72
    0
  3
Standard
 53
0
210
0
220
0
230
1
100
AcDb2LineAngularDimension
 13
1.347066989204615e-014
 23
220
 33
0
 14
-1.347066989204615e-014
 24
-220
 34
0
 15
-222.751631047092
 25
113.4976249348867
 35
0
 16
173.8901454902318
 26
-99.89433889864378
 36
0
  0
DIMENSION
  5
216
100
AcDbEntity
  8
dimensions0
  6
ByLayer
 62
  256
370
   -1
100
AcDbDimension
  2
*D13
 10
-1.347066989204615e-014
 20
-220
 30
0
 11
0
 21
0
 31
0
 70
   34
 71
    5
 72
    0
  3
Standard
 53
0
210
0
220
0
230
1
100
AcDb2LineAngularDimension
 13
222.7516310470919
 23
113.4976249348867
 33
0
 14
-222.7516310470919
 24
-113.4976249348867
 34
0
 15
1.347066989204615e-014
 25
220
 35
0
 16
-137.5088739160343
 26
-144.9084545751931
 36
0
  0
DIMENSION
  5
217
100
AcDbEntity
  8
dimensions0
  6
ByLayer
 62
  256
370
   -1
100
AcDbDimension
  2
*D14
 10
3.101001055486806e-015
 20
50.56380117091846
 30
0
 11
-56
 21
55.25130117091846
 31
0
 70
   32
 71
    5
 72
    0
  3
Standard
 53
0
210
0
220
0
230
1
100
AcDbAlignedDimension
 13
-112
 23
40
 33
0
 14
2.454176153765655e-015
 24
40
 34
0
100
AcDbRotatedDimension
  0
DIMENSION
  5
218
100
AcDbEntity
  8
dimensions0
  6
ByLayer
 62
  256
370
   -1
100
AcDbDimension
  2
*D15
 10
2.987731386851471e-015
 20
51.18043289251503
 30
0
 11
56
 21
55.86793289251503
 31
0
 70
   32
 71
    5
 72
    0
  3
Standard
 53
0
210
0
220
0
230
1
100
AcDbAlignedDimension
 13
112
 23
40
 33
0
 14
2.303149928918541e-015
 24
40
 34
0
100
AcDbRotatedDimension
  0
DIMENSION
  5
219
100
AcDbEntity
  8
dimensions0
  6
ByLayer
 62
  256
370
   -1
100
AcDbDimension
  2
*D16
 10
-37.60340529105935
 20
-23
 30
0
 11
-42.29090529105935
 21
-25.5
 31
0
 70
   32
 71
    5
 72
    0
  3
Standard
 53
0
210
0
220
0
230
1
100
AcDbAlignedDimension
 13
-50
 23
-28
 33
0
 14
-50
 24
-23
 34
0
 50
90
100
AcDbRotatedDimension
  0
DIMENSION
  5
21A
100
AcDbEntity
  8
dimensions0
  6
ByLayer
 62
  256
370
   -1
100
AcDbDimension
  2
*D17
 10
-55.48545943762291
 20
6.717528480947932e-016
 30
0
 11
-60.17295943762291
 21
-11.5
 31
0
 70
   32
 71
    5
 72
    0
  3
Standard
 53
0
210
0
220
0
230
1
100
AcDbAlignedDimension
 13
-50
 23
-23
 33
0
 14
-50
 24
0
 34
0
 50
90
100
AcDbRotatedDimension
  0
DIMENSION
  5
21B
100
AcDbEntity
  8
dimensions0
  6
ByLayer
 62
  256
370
   -1
100
AcDbDimension
  2
*D18
 10
44.04094478382223
 20
-23
 30
0
 11
39.35344478382223
 21
-25.5
 31
0
 70
   32
 71
    5
 72
    0
  3
Standard
 53
0
210
0
220
0
230
1
100
AcDbAlignedDimension
 13
50
 23
-28
 33
0
 14
50
 24
-23
 34
0
 50
90
100
AcDbRotatedDimension
  0
DIMENSION
  5
21C
100
AcDbEntity
  8
dimensions0
  6
ByLayer
 62
  256
370
   -1
100
AcDbDimension
  2
*D19
 10
59.2662366000392
 20
-1.134749221642947e-015
 30
0
 11
54.5787366000392
 21
-11.5
 31
0
 70
   32
 71
    5
 72
    0
  3
Standard
 53
0
210
0
220
0
230
1
100
AcDbAlignedDimension
 13
50
 23
-23
 33
0
 14
50
 24
0
 34
0
 50
90
100
AcDbRotatedDimension
  0
DIMENSION
  5
21D
100
AcDbEntity
  8
dimensions0
  6
ByLayer
 62
  256
370
   -1
100
AcDbDimension
  2
*D20
 10
-100
 20
-40.16267143593554
 30
0
 11
-75
 21
-35.47517143593554
 31
0
 70
   32
 71
    5
 72
    0
  3
Standard
 53
0
210
0
220
0
230
1
100
AcDbAlignedDimension
 13
-50
 23
-28
 33
0
 14
-100
 24
-28
 34
0
100
AcDbRotatedDimension
  0
DIMENSION
  5
21E
100
AcDbEntity
  8
dimensions0
  6
ByLayer
 62
  256
370
   -1
100
AcDbDimension
  2
*D21
 10
100
 20
-40.41368813241014
 30
0
 11
75
 21
-35.72618813241014
 31
0
 70
   32
 71
    5
 72
    0
  3
Standard
 53
0
210
0
220
0
230
1
100
AcDbAlignedDimension
 13
50
 23
-28
 33
0
 14
100
 24
-28
 34
0
100
AcDbRotatedDimension
  0
DIMENSION
  5
21F
100
AcDbEntity
  8
dimensions0
  6
ByLayer
 62
  256
370
   -1
100
AcDbDimension
  2
*D22
 10
-7.90833732207774e-016
 20
-40.91572152535933
 30
0
 11
25
 21
-36.22822152535933
 31
0
 70
   32
 71
    5
 72
    0
  3
Standard
 53
0
210
0
220
0
230
1
100
AcDbAlignedDimension
 13
50
 23
-28
 33
0
 14
0
 24
-28
 34
0
100
AcDbRotatedDimension
  0
DIMENSION
  5
220
100
AcDbEntity
  8
dimensions0
  6
ByLayer
 62
  256
370
   -1
100
AcDbDimension
  2
*D23
 10
-7.908337322077742e-016
 20
-40.91572152535933
 30
0
 11
-25
 21
-36.22822152535933
 31
0
 70
   32
 71
    5
 72
    0
  3
Standard
 53
0
210
0
220
0
230
1
100
AcDbAlignedDimension
 13
-50
 23
-28
 33
0
 14
0
 24
-28
 34
0
100
AcDbRotatedDimension
  0
DIMENSION
  5
221
100
AcDbEntity
  8
dimensions0
  6
ByLayer
 62
  256
370
   -1
100
AcDbDimension
  2
*D24
 10
0
 20
0
 30
0
 11
-35.73944518163872
 21
-57.45358748031874
 31
0
 70
   36
 71
    5
 72
    0
  3
Standard
 53
0
210
0
220
0
230
1
100
AcDbRadialDimension
 15
-63.19446816229618
 25
-119.2956796941303
 35
0
 40
0
  0
DIMENSION
  5
222
100
AcDbEntity
  8
dimensions0
  6
ByLayer
 62
  256
370
   -1
100
AcDbDimension
  2
*D25
 10
0
 20
0
 30
0
 11
-55.16636241678187
 21
-43.34333990303789
 31
0
 70
   36
 71
    5
 72
    0
  3
Standard
 53
0
210
0
220
0
230
1
100
AcDbRadialDimension
 15
-104.0611804746033
 25
-93.65506242714297
 35
0
 40
0
  0
DIMENSION
  5
223
100
AcDbEntity
  8
dimensions0
  6
ByLayer
 62
  256
370
   -1
100
AcDbDimension
  2
*D26
 10
0
 20
0
 30
0
 11
37.31341357739711
 21
-56.44405923967659
 31
0
 70
   36
 71
    5
 72
    0
  3
Standard
 53
0
210
0
220
0
230
1
100
AcDbRadialDimension
 15
66.46683611401161
 25
-117.5038709872706
 35
0
 40
0
  0
DIMENSION
  5
224
100
AcDbEntity
  8
dimensions0
  6
ByLayer
 62
  256
370
   -1
100
AcDbDimension
  2
*D27
 10
0
 20
0
 30
0
 11
56.05302114781264
 21
-42.19041924955083
 31
0
 70
   36
 71
    5
 72
    0
  3
Standard
 53
0
210
0
220
0
230
1
100
AcDbRadialDimension
 15
105.9803012017284
 25
-91.47773366886025
 35
0
 40
0
  0
DIMENSION
  5
225
100
AcDbEntity
  8
dimensions0
  6
ByLayer
 62
  256
370
   -1
100
AcDbDimension
  2
*D28
 10
201.0219412404807
 20
-1.510460596996913e-014
 30
0
 11
196.3344412404807
 21
43.13584139483535
 31
0
 70
   32
 71
    5
 72
    0
  3
Standard
 53
0
210
0
220
0
230
1
100
AcDbAlignedDimension
 13
77.67937209219986
 23
86.27168278967071
 33
0
 14
77.6794
 24
0
 34
0
 50
90
100
AcDbRotatedDimension
  0
DIMENSION
  5
226
100
AcDbEntity
  8
dimensions0
  6
ByLayer
 62
  256
370
   -1
100
AcDbDimension
  2
*D29
 10
-199.172046075691
 20
1.492389140245848e-014
 30
0
 11
-203.859546075691
 21
43.30250990752972
 31
0
 70
   32
 71
    5
 72
    0
  3
Standard
 53
0
210
0
220
0
230
1
100
AcDbAlignedDimension
 13
-77.30515191545575
 23
86.60501981505945
 33
0
 14
-77.3052
 24
0
 34
0
 50
90
100
AcDbRotatedDimension
  0
DIMENSION
  5
227
100
AcDbEntity
  8
dimensions0
  6
ByLayer
 62
  256
370
   -1
100
AcDbDimension
  2
*D30
 10
257.1354279057682
 20
-3.008067057372823e-014
 30
0
 11
252.4479279057682
 21
62.75000000000001
 31
0
 70
   32
 71
    5
 72
    0
  3
Standard
 53
0
210
0
220
0
230
1
100
AcDbAlignedDimension
 13
11.5
 23
125.5
 33
0
 14
11.5
 24
0
 34
0
 50
90
100
AcDbRotatedDimension
  0
DIMENSION
  5
228
100
AcDbEntity
  8
dimensions0
  6
ByLayer
 62
  256
370
   -1
100
AcDbDimension
  2
*D31
 10
257.1354279057683
 20
-3.008067057372823e-014
 30
0
 11
252.4479279057683
 21
-62.74999999999999
 31
0
 70
   32
 71
    5
 72
    0
  3
Standard
 53
0
210
0
220
0
230
1
100
AcDbAlignedDimension
 13
11.5
 23
-125.5
 33
0
 14
11.5
 24
0
 34
0
 50
90
100
AcDbRotatedDimension
  0
DIMENSION
  5
229
100
AcDbEntity
  8
dimensions0
  6
ByLayer
 62
  256
370
   -1
100
AcDbDimension
  2
*D32
 10
6.892515992765373e-015
 20
199.172046075691
 30
0
 11
-38.65257595772788
 21
203.859546075691
 31
0
 70
   32
 71
    5
 72
    0
  3
Standard
 53
0
210
0
220
0
230
1
100
AcDbAlignedDimension
 13
-77.30515191545575
 23
86.60501981505945
 33
0
 14
0
 24
86.605
 34
0
100
AcDbRotatedDimension
  0
DIMENSION
  5
22A
100
AcDbEntity
  8
dimensions0
  6
ByLayer
 62
  256
370
   -1
100
AcDbDimension
  2
*D33
 10
6.950680613863602e-015
 20
199.7886777972876
 30
0
 11
38.83968604609993
 21
204.4761777972876
 31
0
 70
   32
 71
    5
 72
    0
  3
Standard
 53
0
210
0
220
0
230
1
100
AcDbAlignedDimension
 13
77.67937209219986
 23
86.27168278967071
 33
0
 14
0
 24
86.2717
 34
0
100
AcDbRotatedDimension
  0
DIMENSION
  5
22B
100
AcDbEntity
  8
dimensions0
  6
ByLayer
 62
  256
370
   -1
100
AcDbDimension
  2
*D34
 10
-247.2693203602232
 20
156
 30
0
 11
-251.9568203602232
 21
5.740342283542393e-016
 31
0
 70
   32
 71
    5
 72
    0
  3
Standard
 53
0
210
0
220
0
230
1
100
AcDbAlignedDimension
 13
-1.789540737817674e-014
 23
-156
 33
0
 14
1.789540737817674e-014
 24
156
 34
0
 50
90
100
AcDbRotatedDimension
  0
LWPOLYLINE
  5
22C
100
AcDbEntity
  8
0
  6
ByLayer
 62
  256
370
   -1
100
AcDbPolyline
 90
    4
 70
    1
 43
0
 10
14
 20
148.5
 10
-14
 20
148.5
 10
-14
 20
125.5
 10
14
 20
125.5
  0
LWPOLYLINE
  5
22D
100
AcDbEntity
  8
0
  6
ByLayer
 62
  256
370
   -1
100
AcDbPolyline
 90
    4
 70
    1
 43
0
 10
-14
 20
-125.5
 10
14
 20
-125.5
 10
14
 20
-148.5
 10
-14
 20
-148.5
  0
DIMENSION
  5
22E
100
AcDbEntity
  8
dimensions0
  6
ByLayer
 62
  256
370
   -1
100
AcDbDimension
  2
*D35
 10
-19.73221509109013
 20
148.5
 30
0
 11
-24.41971509109013
 21
137
 31
0
 70
   32
 71
    5
  3
Standard
 53
0
210
0
220
0
230
1
100
AcDbAlignedDimension
 13
-14
 23
125.5
 33
0
 14
-14
 24
148.5
 34
0
 50
90
100
AcDbRotatedDimension
  0
DIMENSION
  5
22F
100
AcDbEntity
  8
dimensions0
  6
ByLayer
 62
  256
370
   -1
100
AcDbDimension
  2
*D36
 10
-22.1987419774764
 20
-125.5
 30
0
 11
-26.8862419774764
 21
-137
 31
0
 70
   32
 71
    5
  3
Standard
 53
0
210
0
220
0
230
1
100
AcDbAlignedDimension
 13
-14
 23
-148.5
 33
0
 14
-14
 24
-125.5
 34
0
 50
90
100
AcDbRotatedDimension
  0
DIMENSION
  5
230
100
AcDbEntity
  8
dimensions0
  6
ByLayer
 62
  256
370
   -1
100
AcDbDimension
  2
*D37
 10
14
 20
-116.5433953817511
 30
0
 11
2.870171141771197e-016
 21
-111.8558953817511
 31
0
 70
   32
 71
    5
  3
Standard
 53
0
210
0
220
0
230
1
100
AcDbAlignedDimension
 13
-14
 23
-125.5
 33
0
 14
14
 24
-125.5
 34
0
100
AcDbRotatedDimension
  0
DIMENSION
  5
231
100
AcDbEntity
  8
dimensions0
  6
ByLayer
 62
  256
370
   -1
100
AcDbDimension
  2
*D38
 10
-14
 20
112.2269733305751
 30
0
 11
2.870171141771197e-016
 21
116.9144733305751
 31
0
 70
   32
 71
    5
  3
Standard
 53
0
210
0
220
0
230
1
100
AcDbAlignedDimension
 13
14
 23
125.5
 33
0
 14
-14
 24
125.5
 34
0
100
AcDbRotatedDimension
  0
LINE
  5
232
100
AcDbEntity
  8
constrcution
  6
ByLayer
 62
  256
370
   -1
100
AcDbLine
 10
-167.2826515897146
 20
-185.7862063693485
 11
167.2826515897146
 21
185.7862063693485
  0
DIMENSION
  5
233
100
AcDbEntity
  8
dimensions0
  6
ByLayer
 62
  256
370
   -1
100
AcDbDimension
  2
*D39
 10
-100.313655458739
 20
40.61663172159657
 30
0
 11
-105.001155458739
 21
0.6166317215965672
 31
0
 70
   32
 71
    5
 72
    0
  3
Standard
 53
0
210
0
220
0
230
1
100
AcDbAlignedDimension
 13
-105.2170510624378
 23
-39.38336827840343
 33
0
 14
-105.2170510624378
 24
40.61663172159657
 34
0
 50
90
100
AcDbRotatedDimension
  0
ENDSEC
  0
SECTION
  2
OBJECTS
  0
DICTIONARY
  5
C
330
0
100
AcDbDictionary
281
    1
  3
ACAD_GROUP
350
D
  0
DICTIONARY
  5
D
330
C
100
AcDbDictionary
281
    1
  0
PLOTSETTINGS
  5
234
100
AcDbPlotSettings
  6
1x2
 40
0
 41
0
 42
0
 43
0
  0
ENDSEC
  0
EOF
