999
dxfrw 0.6.3
  0
SECTION
  2
HEADER
  9
$ACADVER
  1
AC1021
  9
$DWGCODEPAGE
  3
ANSI_1252
  9
$INSBASE
 10
0
 20
0
 30
0
  9
$EXTMIN
 10
-250
 20
-250
 30
0
  9
$EXTMAX
 10
250
 20
250
 30
0
  9
$LIMMIN
 10
0
 20
0
  9
$LIMMAX
 10
420
 20
297
  9
$ORTHOMODE
 70
    0
  9
$REGENMODE
 70
    1
  9
$FILLMODE
 70
    1
  9
$QTEXTMODE
 70
    0
  9
$MIRRTEXT
 70
    0
  9
$LTSCALE
 40
1
  9
$ATTMODE
 70
    0
  9
$TEXTSIZE
 40
2.5
  9
$TRACEWID
 40
15.68
  9
$TEXTSTYLE
  7
STANDARD
  9
$CLAYER
  8
dimensions1
  9
$CELTYPE
  6
BYLAYER
  9
$CECOLOR
 62
  256
  9
$CELTSCALE
 40
1
  9
$DISPSILH
 70
    0
  9
$DIMSCALE
 40
1
  9
$DIMASZ
 40
2.5
  9
$DIMEXO
 40
0.625
  9
$DIMDLI
 40
3.75
  9
$DIMRND
 40
0
  9
$DIMDLE
 40
0
  9
$DIMEXE
 40
1.25
  9
$DIMTP
 40
0
  9
$DIMTM
 40
0
  9
$DIMTXT
 40
2.5
  9
$DIMCEN
 40
2.5
  9
$DIMTSZ
 40
0
  9
$DIMTOL
 70
    0
  9
$DIMLIM
 70
    0
  9
$DIMTIH
 70
    0
  9
$DIMTOH
 70
    0
  9
$DIMSE1
 70
    0
  9
$DIMSE2
 70
    0
  9
$DIMTAD
 70
    1
  9
$DIMZIN
 70
    8
  9
$DIMBLK
  1

  9
$DIMASO
 70
    1
  9
$DIMSHO
 70
    1
  9
$DIMPOST
  1

  9
$DIMAPOST
  1

  9
$DIMALT
 70
    0
  9
$DIMALTD
 70
    3
  9
$DIMALTF
 40
0.03937
  9
$DIMLFAC
 40
1
  9
$DIMTOFL
 70
    1
  9
$DIMTVP
 40
0
  9
$DIMTIX
 70
    0
  9
$DIMSOXD
 70
    0
  9
$DIMSAH
 70
    0
  9
$DIMBLK1
  1

  9
$DIMBLK2
  1

  9
$DIMSTYLE
  2
STANDARD
  9
$DIMCLRD
 70
    0
  9
$DIMCLRE
 70
    0
  9
$DIMCLRT
 70
    0
  9
$DIMTFAC
 40
1
  9
$DIMGAP
 40
0.625
  9
$DIMJUST
 70
    0
  9
$DIMSD1
 70
    0
  9
$DIMSD2
 70
    0
  9
$DIMTOLJ
 70
    0
  9
$DIMTZIN
 70
    8
  9
$DIMALTZ
 70
    0
  9
$DIMALTTZ
 70
    0
  9
$DIMUPT
 70
    0
  9
$DIMDEC
 70
    2
  9
$DIMTDEC
 70
    2
  9
$DIMALTU
 70
    2
  9
$DIMALTTD
 70
    3
  9
$DIMTXSTY
  7
STANDARD
  9
$DIMAUNIT
 70
    0
  9
$DIMADEC
 70
    0
  9
$DIMALTRND
 40
0
  9
$DIMAZIN
 70
    0
  9
$DIMDSEP
 70
   44
  9
$DIMATFIT
 70
    3
  9
$DIMFRAC
 70
    0
  9
$DIMLDRBLK
  1
STANDARD
  9
$DIMLUNIT
 70
    2
  9
$DIMLWD
 70
   -2
  9
$DIMLWE
 70
   -2
  9
$DIMTMOVE
 70
    0
  9
$DIMFXL
 40
1
  9
$DIMFXLON
 70
    0
  9
$DIMJOGANG
 40
0.7854
  9
$DIMTFILL
 70
    0
  9
$DIMTFILLCLR
 70
    0
  9
$DIMARCSYM
 70
    0
  9
$DIMLTYPE
  6

  9
$DIMLTEX1
  6

  9
$DIMLTEX2
  6

  9
$LUNITS
 70
    2
  9
$LUPREC
 70
    4
  9
$SKETCHINC
 40
1
  9
$FILLETRAD
 40
0
  9
$AUNITS
 70
    0
  9
$AUPREC
 70
    2
  9
$MENU
  1
.
  9
$ELEVATION
 40
0
  9
$PELEVATION
 40
0
  9
$THICKNESS
 40
0
  9
$LIMCHECK
 70
    0
  9
$CHAMFERA
 40
0
  9
$CHAMFERB
 40
0
  9
$CHAMFERC
 40
0
  9
$CHAMFERD
 40
0
  9
$SKPOLY
 70
    0
  9
$USRTIMER
 70
    1
  9
$ANGBASE
 50
0
  9
$ANGDIR
 70
    0
  9
$PDMODE
 70
   34
  9
$PDSIZE
 40
0
  9
$PLINEWID
 40
0
  9
$SPLFRAME
 70
    0
  9
$SPLINETYPE
 70
    2
  9
$SPLINESEGS
 70
    8
  9
$HANDSEED
  5
20000
  9
$SURFTAB1
 70
    6
  9
$SURFTAB2
 70
    6
  9
$SURFTYPE
 70
    6
  9
$SURFU
 70
    6
  9
$SURFV
 70
    6
  9
$UCSBASE
  2

  9
$UCSNAME
  2

  9
$UCSORG
 10
0
 20
0
 30
0
  9
$UCSXDIR
 10
1
 20
0
 30
0
  9
$UCSYDIR
 10
0
 20
1
 30
0
  9
$UCSORTHOREF
  2

  9
$UCSORTHOVIEW
 70
    0
  9
$UCSORGTOP
 10
0
 20
0
 30
0
  9
$UCSORGBOTTOM
 10
0
 20
0
 30
0
  9
$UCSORGLEFT
 10
0
 20
0
 30
0
  9
$UCSORGRIGHT
 10
0
 20
0
 30
0
  9
$UCSORGFRONT
 10
0
 20
0
 30
0
  9
$UCSORGBACK
 10
0
 20
0
 30
0
  9
$PUCSBASE
  2

  9
$PUCSNAME
  2

  9
$PUCSORG
 10
0
 20
0
 30
0
  9
$PUCSXDIR
 10
1
 20
0
 30
0
  9
$PUCSYDIR
 10
0
 20
1
 30
0
  9
$PUCSORTHOREF
  2

  9
$PUCSORTHOVIEW
 70
    0
  9
$PUCSORGTOP
 10
0
 20
0
 30
0
  9
$PUCSORGBOTTOM
 10
0
 20
0
 30
0
  9
$PUCSORGLEFT
 10
0
 20
0
 30
0
  9
$PUCSORGRIGHT
 10
0
 20
0
 30
0
  9
$PUCSORGFRONT
 10
0
 20
0
 30
0
  9
$PUCSORGBACK
 10
0
 20
0
 30
0
  9
$USERI1
 70
    0
  9
$USERI2
 70
    0
  9
$USERI3
 70
    0
  9
$USERI4
 70
    0
  9
$USERI5
 70
    0
  9
$USERR1
 40
0
  9
$USERR2
 40
0
  9
$USERR3
 40
0
  9
$USERR4
 40
0
  9
$USERR5
 40
0
  9
$WORLDVIEW
 70
    1
  9
$SHADEDGE
 70
    3
  9
$SHADEDIF
 70
   70
  9
$TILEMODE
 70
    1
  9
$MAXACTVP
 70
   64
  9
$PINSBASE
 10
0
 20
0
 30
0
  9
$PLIMCHECK
 70
    0
  9
$PEXTMIN
 10
0
 20
0
 30
0
  9
$PEXTMAX
 10
0
 20
0
 30
0
  9
$SNAPSTYLE
 70
    0
  9
$PLIMMIN
 10
0
 20
0
  9
$PLIMMAX
 10
297
 20
210
  9
$UNITMODE
 70
    0
  9
$VISRETAIN
 70
    1
  9
$PLINEGEN
 70
    0
  9
$PSLTSCALE
 70
    1
  9
$TREEDEPTH
 70
 3020
  9
$CMLSTYLE
  2
Standard
  9
$CMLJUST
 70
    0
  9
$CMLSCALE
 40
20
  9
$PROXYGRAPHICS
 70
    1
  9
$MEASUREMENT
 70
    1
  9
$CELWEIGHT
370
   -1
  9
$ENDCAPS
280
    0
  9
$JOINSTYLE
280
    0
  9
$LWDISPLAY
290
    0
  9
$INSUNITS
 70
    4
  9
$HYPERLINKBASE
  1

  9
$STYLESHEET
  1

  9
$XEDIT
290
    1
  9
$CEPSNTYPE
380
    0
  9
$PSTYLEMODE
290
    1
  9
$EXTNAMES
290
    1
  9
$PSVPSCALE
 40
1
  9
$OLESTARTUP
290
    0
  9
$SORTENTS
280
  127
  9
$INDEXCTL
280
    0
  9
$HIDETEXT
280
    1
  9
$XCLIPFRAME
290
    0
  9
$HALOGAP
280
    0
  9
$OBSCOLOR
 70
  257
  9
$OBSLTYPE
280
    0
  9
$INTERSECTIONDISPLAY
280
    0
  9
$INTERSECTIONCOLOR
 70
  257
  9
$DIMASSOC
280
    1
  9
$PROJECTNAME
  1

  9
$CAMERADISPLAY
290
    0
  9
$LENSLENGTH
 40
50
  9
$CAMERAHEIGHT
 40
0
  9
$STEPSPERSEC
 40
2
  9
$STEPSIZE
 40
50
  9
$3DDWFPREC
 40
2
  9
$PSOLWIDTH
 40
5
  9
$PSOLHEIGHT
 40
80
  9
$LOFTANG1
 40
1.570796326794897
  9
$LOFTANG2
 40
1.570796326794897
  9
$LOFTMAG1
 40
0
  9
$LOFTMAG2
 40
0
  9
$LOFTPARAM
 70
    7
  9
$LOFTNORMALS
280
    1
  9
$LATITUDE
 40
1
  9
$LONGITUDE
 40
1
  9
$NORTHDIRECTION
 40
0
  9
$TIMEZONE
 70
-8000
  9
$LIGHTGLYPHDISPLAY
280
    1
  9
$TILEMODELIGHTSYNCH
280
    1
  9
$SOLIDHIST
280
    1
  9
$SHOWHIST
280
    1
  9
$DWFFRAME
280
    2
  9
$DGNFRAME
280
    0
  9
$REALWORLDSCALE
290
    1
  9
$INTERFERECOLOR
 62
    1
  9
$CSHADOW
280
    0
  9
$SHADOWPLANELOCATION
 40
0
  0
ENDSEC
  0
SECTION
  2
CLASSES
  0
ENDSEC
  0
SECTION
  2
TABLES
  0
TABLE
  2
VPORT
  5
8
330
0
100
AcDbSymbolTable
 70
    1
  0
VPORT
  5
31
330
2
100
AcDbSymbolTableRecord
100
AcDbViewportTableRecord
  2
*ACTIVE
 70
    0
 10
0
 20
0
 11
1
 21
1
 12
87.78777818474492
 22
63.5890031874186
 13
0
 23
0
 14
10
 24
10
 15
10
 25
10
 16
0
 26
0
 36
1
 17
0
 27
0
 37
0
 40
208.9160908102506
 41
1.984555984555985
 42
50
 43
0
 44
0
 50
0
 51
0
 71
    0
 72
  100
 73
    1
 74
    3
 75
    0
 76
    1
 77
    0
 78
    0
281
    0
 65
    1
110
0
120
0
130
0
111
1
121
0
131
0
112
0
122
1
132
0
 79
    0
146
0
348
10020
 60
    7
 61
    5
292
1
282
    1
141
0
142
0
 63
  250
421
3358443
  0
ENDTAB
  0
TABLE
  2
LTYPE
  5
5
330
0
100
AcDbSymbolTable
 70
    4
  0
LTYPE
  5
14
330
5
100
AcDbSymbolTableRecord
100
AcDbLinetypeTableRecord
  2
ByBlock
 70
    0
  3

 72
   65
 73
    0
 40
0
  0
LTYPE
  5
15
330
5
100
AcDbSymbolTableRecord
100
AcDbLinetypeTableRecord
  2
ByLayer
 70
    0
  3

 72
   65
 73
    0
 40
0
  0
LTYPE
  5
16
330
5
100
AcDbSymbolTableRecord
100
AcDbLinetypeTableRecord
  2
Continuous
 70
    0
  3
Solid line
 72
   65
 73
    0
 40
0
  0
LTYPE
  5
32
330
5
100
AcDbSymbolTableRecord
100
AcDbLinetypeTableRecord
  2
DOT
 70
    0
  3
Dot . . . . . . . . . . . . . . . . . . . . . .
 72
   65
 73
    2
 40
6.35
 49
0
 74
    0
 49
-6.35
 74
    0
  0
LTYPE
  5
33
330
5
100
AcDbSymbolTableRecord
100
AcDbLinetypeTableRecord
  2
DOTTINY
 70
    0
  3
Dot (.15x) .....................................
 72
   65
 73
    2
 40
0.9525
 49
0
 74
    0
 49
-0.9525
 74
    0
  0
LTYPE
  5
34
330
5
100
AcDbSymbolTableRecord
100
AcDbLinetypeTableRecord
  2
DOT2
 70
    0
  3
Dot (.5x) .....................................
 72
   65
 73
    2
 40
3.175
 49
0
 74
    0
 49
-3.175
 74
    0
  0
LTYPE
  5
35
330
5
100
AcDbSymbolTableRecord
100
AcDbLinetypeTableRecord
  2
DOTX2
 70
    0
  3
Dot (2x) .  .  .  .  .  .  .  .  .  .  .  .  .
 72
   65
 73
    2
 40
12.7
 49
0
 74
    0
 49
-12.7
 74
    0
  0
LTYPE
  5
36
330
5
100
AcDbSymbolTableRecord
100
AcDbLinetypeTableRecord
  2
DASHED
 70
    0
  3
Dashed _ _ _ _ _ _ _ _ _ _ _ _ _ _ _ _ _
 72
   65
 73
    2
 40
19.05
 49
12.7
 74
    0
 49
-6.35
 74
    0
  0
LTYPE
  5
37
330
5
100
AcDbSymbolTableRecord
100
AcDbLinetypeTableRecord
  2
DASHEDTINY
 70
    0
  3
Dashed (.15x) _ _ _ _ _ _ _ _ _ _ _ _ _ _ _ _ _
 72
   65
 73
    2
 40
2.8575
 49
1.905
 74
    0
 49
-0.9525
 74
    0
  0
LTYPE
  5
38
330
5
100
AcDbSymbolTableRecord
100
AcDbLinetypeTableRecord
  2
DASHED2
 70
    0
  3
Dashed (.5x) _ _ _ _ _ _ _ _ _ _ _ _ _ _ _ _ _
 72
   65
 73
    2
 40
9.524999999999999
 49
6.35
 74
    0
 49
-3.175
 74
    0
  0
LTYPE
  5
39
330
5
100
AcDbSymbolTableRecord
100
AcDbLinetypeTableRecord
  2
DASHEDX2
 70
    0
  3
Dashed (2x) ____  ____  ____  ____  ____  ___
 72
   65
 73
    2
 40
38.09999999999999
 49
25.4
 74
    0
 49
-12.7
 74
    0
  0
LTYPE
  5
3A
330
5
100
AcDbSymbolTableRecord
100
AcDbLinetypeTableRecord
  2
DASHDOT
 70
    0
  3
Dash dot __ . __ . __ . __ . __ . __ . __ . __
 72
   65
 73
    4
 40
25.4
 49
12.7
 74
    0
 49
-6.35
 74
    0
 49
0
 74
    0
 49
-6.35
 74
    0
  0
LTYPE
  5
3B
330
5
100
AcDbSymbolTableRecord
100
AcDbLinetypeTableRecord
  2
DASHDOTTINY
 70
    0
  3
Dash dot (.15x) _._._._._._._._._._._._._._._.
 72
   65
 73
    4
 40
3.81
 49
1.905
 74
    0
 49
-0.9525
 74
    0
 49
0
 74
    0
 49
-0.9525
 74
    0
  0
LTYPE
  5
3C
330
5
100
AcDbSymbolTableRecord
100
AcDbLinetypeTableRecord
  2
DASHDOT2
 70
    0
  3
Dash dot (.5x) _._._._._._._._._._._._._._._.
 72
   65
 73
    4
 40
12.7
 49
6.35
 74
    0
 49
-3.175
 74
    0
 49
0
 74
    0
 49
-3.175
 74
    0
  0
LTYPE
  5
3D
330
5
100
AcDbSymbolTableRecord
100
AcDbLinetypeTableRecord
  2
DASHDOTX2
 70
    0
  3
Dash dot (2x) ____  .  ____  .  ____  .  ___
 72
   65
 73
    4
 40
50.8
 49
25.4
 74
    0
 49
-12.7
 74
    0
 49
0
 74
    0
 49
-12.7
 74
    0
  0
LTYPE
  5
3E
330
5
100
AcDbSymbolTableRecord
100
AcDbLinetypeTableRecord
  2
DIVIDE
 70
    0
  3
Divide ____ . . ____ . . ____ . . ____ . . ____
 72
   65
 73
    6
 40
31.75
 49
12.7
 74
    0
 49
-6.35
 74
    0
 49
0
 74
    0
 49
-6.35
 74
    0
 49
0
 74
    0
 49
-6.35
 74
    0
  0
LTYPE
  5
3F
330
5
100
AcDbSymbolTableRecord
100
AcDbLinetypeTableRecord
  2
DIVIDETINY
 70
    0
  3
Divide (.15x) __..__..__..__..__..__..__..__.._
 72
   65
 73
    6
 40
4.7625
 49
1.905
 74
    0
 49
-0.9525
 74
    0
 49
0
 74
    0
 49
-0.9525
 74
    0
 49
0
 74
    0
 49
-0.9525
 74
    0
  0
LTYPE
  5
40
330
5
100
AcDbSymbolTableRecord
100
AcDbLinetypeTableRecord
  2
DIVIDE2
 70
    0
  3
Divide (.5x) __..__..__..__..__..__..__..__.._
 72
   65
 73
    6
 40
15.875
 49
6.35
 74
    0
 49
-3.175
 74
    0
 49
0
 74
    0
 49
-3.175
 74
    0
 49
0
 74
    0
 49
-3.175
 74
    0
  0
LTYPE
  5
41
330
5
100
AcDbSymbolTableRecord
100
AcDbLinetypeTableRecord
  2
DIVIDEX2
 70
    0
  3
Divide (2x) ________  .  .  ________  .  .  _
 72
   65
 73
    6
 40
63.5
 49
25.4
 74
    0
 49
-12.7
 74
    0
 49
0
 74
    0
 49
-12.7
 74
    0
 49
0
 74
    0
 49
-12.7
 74
    0
  0
LTYPE
  5
42
330
5
100
AcDbSymbolTableRecord
100
AcDbLinetypeTableRecord
  2
BORDER
 70
    0
  3
Border __ __ . __ __ . __ __ . __ __ . __ __ .
 72
   65
 73
    6
 40
44.45
 49
12.7
 74
    0
 49
-6.35
 74
    0
 49
12.7
 74
    0
 49
-6.35
 74
    0
 49
0
 74
    0
 49
-6.35
 74
    0
  0
LTYPE
  5
43
330
5
100
AcDbSymbolTableRecord
100
AcDbLinetypeTableRecord
  2
BORDERTINY
 70
    0
  3
Border (.15x) __.__.__.__.__.__.__.__.__.__.__.
 72
   65
 73
    6
 40
6.6675
 49
1.905
 74
    0
 49
-0.9525
 74
    0
 49
1.905
 74
    0
 49
-0.9525
 74
    0
 49
0
 74
    0
 49
-0.9525
 74
    0
  0
LTYPE
  5
44
330
5
100
AcDbSymbolTableRecord
100
AcDbLinetypeTableRecord
  2
BORDER2
 70
    0
  3
Border (.5x) __.__.__.__.__.__.__.__.__.__.__.
 72
   65
 73
    6
 40
22.225
 49
6.35
 74
    0
 49
-3.175
 74
    0
 49
6.35
 74
    0
 49
-3.175
 74
    0
 49
0
 74
    0
 49
-3.175
 74
    0
  0
LTYPE
  5
45
330
5
100
AcDbSymbolTableRecord
100
AcDbLinetypeTableRecord
  2
BORDERX2
 70
    0
  3
Border (2x) ____  ____  .  ____  ____  .  ___
 72
   65
 73
    6
 40
88.89999999999999
 49
25.4
 74
    0
 49
-12.7
 74
    0
 49
25.4
 74
    0
 49
-12.7
 74
    0
 49
0
 74
    0
 49
-12.7
 74
    0
  0
LTYPE
  5
46
330
5
100
AcDbSymbolTableRecord
100
AcDbLinetypeTableRecord
  2
CENTER
 70
    0
  3
Center ____ _ ____ _ ____ _ ____ _ ____ _ ____
 72
   65
 73
    4
 40
50.8
 49
31.75
 74
    0
 49
-6.35
 74
    0
 49
6.35
 74
    0
 49
-6.35
 74
    0
  0
LTYPE
  5
47
330
5
100
AcDbSymbolTableRecord
100
AcDbLinetypeTableRecord
  2
CENTERTINY
 70
    0
  3
Center (.15x) ___ _ ___ _ ___ _ ___ _ ___ _ ___
 72
   65
 73
    4
 40
7.62
 49
4.7625
 74
    0
 49
-0.9525
 74
    0
 49
0.9525
 74
    0
 49
-0.9525
 74
    0
  0
LTYPE
  5
48
330
5
100
AcDbSymbolTableRecord
100
AcDbLinetypeTableRecord
  2
CENTER2
 70
    0
  3
Center (.5x) ___ _ ___ _ ___ _ ___ _ ___ _ ___
 72
   65
 73
    4
 40
28.575
 49
19.05
 74
    0
 49
-3.175
 74
    0
 49
3.175
 74
    0
 49
-3.175
 74
    0
  0
LTYPE
  5
49
330
5
100
AcDbSymbolTableRecord
100
AcDbLinetypeTableRecord
  2
CENTERX2
 70
    0
  3
Center (2x) ________  __  ________  __  _____
 72
   65
 73
    4
 40
101.6
 49
63.5
 74
    0
 49
-12.7
 74
    0
 49
12.7
 74
    0
 49
-12.7
 74
    0
  0
ENDTAB
  0
TABLE
  2
LAYER
  5
2
330
0
100
AcDbSymbolTable
 70
    1
  0
LAYER
  5
10
330
2
100
AcDbSymbolTableRecord
100
AcDbLayerTableRecord
  2
0
 70
    0
 62
    7
  6
CONTINUOUS
370
    0
390
F
  0
LAYER
  5
4A
330
2
100
AcDbSymbolTableRecord
100
AcDbLayerTableRecord
  2
constrcution
 70
    0
 62
    3
  6
CONTINUOUS
370
    0
390
F
  0
LAYER
  5
4B
330
2
100
AcDbSymbolTableRecord
100
AcDbLayerTableRecord
  2
dimensions
 70
    1
 62
    5
  6
CONTINUOUS
370
    0
390
F
  0
LAYER
  5
4C
330
2
100
AcDbSymbolTableRecord
100
AcDbLayerTableRecord
  2
dimensions1
 70
    0
 62
    5
  6
CONTINUOUS
370
    0
390
F
  0
LAYER
  5
4D
330
2
100
AcDbSymbolTableRecord
100
AcDbLayerTableRecord
  2
outline
 70
    1
 62
    1
  6
CONTINUOUS
370
    0
390
F
  0
LAYER
  5
4E
330
2
100
AcDbSymbolTableRecord
100
AcDbLayerTableRecord
  2
outline constrcution
 70
    1
 62
    3
  6
CONTINUOUS
370
    0
390
F
  0
ENDTAB
  0
TABLE
  2
STYLE
  5
3
330
0
100
AcDbSymbolTable
 70
    3
  0
STYLE
  5
4F
330
2
100
AcDbSymbolTableRecord
100
AcDbTextStyleTableRecord
  2
Standard
 70
    0
 40
0
 41
1
 50
0
 71
    0
 42
1
  3
txt
  4

  0
ENDTAB
  0
TABLE
  2
VIEW
  5
6
330
0
100
AcDbSymbolTable
 70
    0
  0
ENDTAB
  0
TABLE
  2
UCS
  5
7
330
0
100
AcDbSymbolTable
 70
    0
  0
ENDTAB
  0
TABLE
  2
APPID
  5
9
330
0
100
AcDbSymbolTable
 70
    1
  0
APPID
  5
12
330
9
100
AcDbSymbolTableRecord
100
AcDbRegAppTableRecord
  2
ACAD
 70
    0
  0
APPID
  5
50
330
9
100
AcDbSymbolTableRecord
100
AcDbRegAppTableRecord
  2
LibreCad
 70
    0
  0
ENDTAB
  0
TABLE
  2
DIMSTYLE
  5
A
330
0
100
AcDbSymbolTable
 70
    1
100
AcDbDimStyleTable
 71
    1
  0
DIMSTYLE
105
51
330
A
100
AcDbSymbolTableRecord
100
AcDbDimStyleTableRecord
  2
Standard
 70
    0
 40
1
 41
2.5
 42
0.625
 43
0.38
 44
1.25
 45
0
 46
0
 47
0
 48
0
 49
1
140
2.5
141
0.09
142
0
143
25.4
144
1
145
0
146
1
147
0.625
148
0
 71
    0
 72
    0
 73
    0
 74
    1
 75
    0
 76
    0
 77
    0
 78
    1
 79
    0
170
    0
171
    2
172
    0
173
    0
174
    0
175
    0
176
    0
177
    0
178
    0
179
    0
271
    2
272
    4
273
    2
274
    2
275
    0
276
    0
277
    2
278
    0
279
    0
280
    0
281
    0
282
    0
283
    1
284
    0
285
    0
286
    0
288
    0
289
    3
340
standard
341

371
   -2
372
   -2
  0
ENDTAB
  0
TABLE
  2
BLOCK_RECORD
  5
1
330
0
100
AcDbSymbolTable
 70
    2
  0
BLOCK_RECORD
  5
1F
330
1
100
AcDbSymbolTableRecord
100
AcDbBlockTableRecord
  2
*Model_Space
 70
    0
280
    1
281
    0
  0
BLOCK_RECORD
  5
1E
330
1
100
AcDbSymbolTableRecord
100
AcDbBlockTableRecord
  2
*Paper_Space
 70
    0
280
    1
281
    0
  0
BLOCK_RECORD
  5
52
330
1
100
AcDbSymbolTableRecord
100
AcDbBlockTableRecord
  2
*D21
 70
    0
280
    1
281
    0
  0
BLOCK_RECORD
  5
55
330
1
100
AcDbSymbolTableRecord
100
AcDbBlockTableRecord
  2
*D3
 70
    0
280
    1
281
    0
  0
BLOCK_RECORD
  5
58
330
1
100
AcDbSymbolTableRecord
100
AcDbBlockTableRecord
  2
*D40
 70
    0
280
    1
281
    0
  0
BLOCK_RECORD
  5
5B
330
1
100
AcDbSymbolTableRecord
100
AcDbBlockTableRecord
  2
*D42
 70
    0
280
    1
281
    0
  0
BLOCK_RECORD
  5
5E
330
1
100
AcDbSymbolTableRecord
100
AcDbBlockTableRecord
  2
*D39
 70
    0
280
    1
281
    0
  0
BLOCK_RECORD
  5
61
330
1
100
AcDbSymbolTableRecord
100
AcDbBlockTableRecord
  2
*D13
 70
    0
280
    1
281
    0
  0
BLOCK_RECORD
  5
64
330
1
100
AcDbSymbolTableRecord
100
AcDbBlockTableRecord
  2
*D29
 70
    0
280
    1
281
    0
  0
BLOCK_RECORD
  5
67
330
1
100
AcDbSymbolTableRecord
100
AcDbBlockTableRecord
  2
*D19
 70
    0
280
    1
281
    0
  0
BLOCK_RECORD
  5
6A
330
1
100
AcDbSymbolTableRecord
100
AcDbBlockTableRecord
  2
*D48
 70
    0
280
    1
281
    0
  0
BLOCK_RECORD
  5
6D
330
1
100
AcDbSymbolTableRecord
100
AcDbBlockTableRecord
  2
*D4
 70
    0
280
    1
281
    0
  0
BLOCK_RECORD
  5
70
330
1
100
AcDbSymbolTableRecord
100
AcDbBlockTableRecord
  2
*D50
 70
    0
280
    1
281
    0
  0
BLOCK_RECORD
  5
73
330
1
100
AcDbSymbolTableRecord
100
AcDbBlockTableRecord
  2
*D54
 70
    0
280
    1
281
    0
  0
BLOCK_RECORD
  5
76
330
1
100
AcDbSymbolTableRecord
100
AcDbBlockTableRecord
  2
*D32
 70
    0
280
    1
281
    0
  0
BLOCK_RECORD
  5
79
330
1
100
AcDbSymbolTableRecord
100
AcDbBlockTableRecord
  2
*D26
 70
    0
280
    1
281
    0
  0
BLOCK_RECORD
  5
7C
330
1
100
AcDbSymbolTableRecord
100
AcDbBlockTableRecord
  2
*D17
 70
    0
280
    1
281
    0
  0
BLOCK_RECORD
  5
7F
330
1
100
AcDbSymbolTableRecord
100
AcDbBlockTableRecord
  2
*D30
 70
    0
280
    1
281
    0
  0
BLOCK_RECORD
  5
82
330
1
100
AcDbSymbolTableRecord
100
AcDbBlockTableRecord
  2
*D49
 70
    0
280
    1
281
    0
  0
BLOCK_RECORD
  5
85
330
1
100
AcDbSymbolTableRecord
100
AcDbBlockTableRecord
  2
*D24
 70
    0
280
    1
281
    0
  0
BLOCK_RECORD
  5
88
330
1
100
AcDbSymbolTableRecord
100
AcDbBlockTableRecord
  2
*D45
 70
    0
280
    1
281
    0
  0
BLOCK_RECORD
  5
8B
330
1
100
AcDbSymbolTableRecord
100
AcDbBlockTableRecord
  2
*D16
 70
    0
280
    1
281
    0
  0
BLOCK_RECORD
  5
8E
330
1
100
AcDbSymbolTableRecord
100
AcDbBlockTableRecord
  2
*D41
 70
    0
280
    1
281
    0
  0
BLOCK_RECORD
  5
91
330
1
100
AcDbSymbolTableRecord
100
AcDbBlockTableRecord
  2
*D20
 70
    0
280
    1
281
    0
  0
BLOCK_RECORD
  5
94
330
1
100
AcDbSymbolTableRecord
100
AcDbBlockTableRecord
  2
*D25
 70
    0
280
    1
281
    0
  0
BLOCK_RECORD
  5
97
330
1
100
AcDbSymbolTableRecord
100
AcDbBlockTableRecord
  2
*D35
 70
    0
280
    1
281
    0
  0
BLOCK_RECORD
  5
9A
330
1
100
AcDbSymbolTableRecord
100
AcDbBlockTableRecord
  2
*D43
 70
    0
280
    1
281
    0
  0
BLOCK_RECORD
  5
9D
330
1
100
AcDbSymbolTableRecord
100
AcDbBlockTableRecord
  2
*D37
 70
    0
280
    1
281
    0
  0
BLOCK_RECORD
  5
A0
330
1
100
AcDbSymbolTableRecord
100
AcDbBlockTableRecord
  2
*D23
 70
    0
280
    1
281
    0
  0
BLOCK_RECORD
  5
A3
330
1
100
AcDbSymbolTableRecord
100
AcDbBlockTableRecord
  2
*D22
 70
    0
280
    1
281
    0
  0
BLOCK_RECORD
  5
A6
330
1
100
AcDbSymbolTableRecord
100
AcDbBlockTableRecord
  2
*D9
 70
    0
280
    1
281
    0
  0
BLOCK_RECORD
  5
A9
330
1
100
AcDbSymbolTableRecord
100
AcDbBlockTableRecord
  2
*D8
 70
    0
280
    1
281
    0
  0
BLOCK_RECORD
  5
AC
330
1
100
AcDbSymbolTableRecord
100
AcDbBlockTableRecord
  2
*D36
 70
    0
280
    1
281
    0
  0
BLOCK_RECORD
  5
AF
330
1
100
AcDbSymbolTableRecord
100
AcDbBlockTableRecord
  2
*D2
 70
    0
280
    1
281
    0
  0
BLOCK_RECORD
  5
B2
330
1
100
AcDbSymbolTableRecord
100
AcDbBlockTableRecord
  2
*D1
 70
    0
280
    1
281
    0
  0
BLOCK_RECORD
  5
B5
330
1
100
AcDbSymbolTableRecord
100
AcDbBlockTableRecord
  2
*D5
 70
    0
280
    1
281
    0
  0
BLOCK_RECORD
  5
B8
330
1
100
AcDbSymbolTableRecord
100
AcDbBlockTableRecord
  2
*D33
 70
    0
280
    1
281
    0
  0
BLOCK_RECORD
  5
BB
330
1
100
AcDbSymbolTableRecord
100
AcDbBlockTableRecord
  2
*D31
 70
    0
280
    1
281
    0
  0
BLOCK_RECORD
  5
BE
330
1
100
AcDbSymbolTableRecord
100
AcDbBlockTableRecord
  2
*D46
 70
    0
280
    1
281
    0
  0
BLOCK_RECORD
  5
C1
330
1
100
AcDbSymbolTableRecord
100
AcDbBlockTableRecord
  2
*D55
 70
    0
280
    1
281
    0
  0
BLOCK_RECORD
  5
C4
330
1
100
AcDbSymbolTableRecord
100
AcDbBlockTableRecord
  2
*D34
 70
    0
280
    1
281
    0
  0
BLOCK_RECORD
  5
C7
330
1
100
AcDbSymbolTableRecord
100
AcDbBlockTableRecord
  2
*D11
 70
    0
280
    1
281
    0
  0
BLOCK_RECORD
  5
CA
330
1
100
AcDbSymbolTableRecord
100
AcDbBlockTableRecord
  2
*D14
 70
    0
280
    1
281
    0
  0
BLOCK_RECORD
  5
CD
330
1
100
AcDbSymbolTableRecord
100
AcDbBlockTableRecord
  2
*D7
 70
    0
280
    1
281
    0
  0
BLOCK_RECORD
  5
D0
330
1
100
AcDbSymbolTableRecord
100
AcDbBlockTableRecord
  2
*D52
 70
    0
280
    1
281
    0
  0
BLOCK_RECORD
  5
D3
330
1
100
AcDbSymbolTableRecord
100
AcDbBlockTableRecord
  2
*D27
 70
    0
280
    1
281
    0
  0
BLOCK_RECORD
  5
D6
330
1
100
AcDbSymbolTableRecord
100
AcDbBlockTableRecord
  2
*D56
 70
    0
280
    1
281
    0
  0
BLOCK_RECORD
  5
D9
330
1
100
AcDbSymbolTableRecord
100
AcDbBlockTableRecord
  2
*D12
 70
    0
280
    1
281
    0
  0
BLOCK_RECORD
  5
DC
330
1
100
AcDbSymbolTableRecord
100
AcDbBlockTableRecord
  2
*D44
 70
    0
280
    1
281
    0
  0
BLOCK_RECORD
  5
DF
330
1
100
AcDbSymbolTableRecord
100
AcDbBlockTableRecord
  2
*D38
 70
    0
280
    1
281
    0
  0
BLOCK_RECORD
  5
E2
330
1
100
AcDbSymbolTableRecord
100
AcDbBlockTableRecord
  2
*D10
 70
    0
280
    1
281
    0
  0
BLOCK_RECORD
  5
E5
330
1
100
AcDbSymbolTableRecord
100
AcDbBlockTableRecord
  2
*D47
 70
    0
280
    1
281
    0
  0
BLOCK_RECORD
  5
E8
330
1
100
AcDbSymbolTableRecord
100
AcDbBlockTableRecord
  2
*D6
 70
    0
280
    1
281
    0
  0
BLOCK_RECORD
  5
EB
330
1
100
AcDbSymbolTableRecord
100
AcDbBlockTableRecord
  2
*D53
 70
    0
280
    1
281
    0
  0
BLOCK_RECORD
  5
EE
330
1
100
AcDbSymbolTableRecord
100
AcDbBlockTableRecord
  2
*D15
 70
    0
280
    1
281
    0
  0
BLOCK_RECORD
  5
F1
330
1
100
AcDbSymbolTableRecord
100
AcDbBlockTableRecord
  2
*D28
 70
    0
280
    1
281
    0
  0
BLOCK_RECORD
  5
F4
330
1
100
AcDbSymbolTableRecord
100
AcDbBlockTableRecord
  2
*D51
 70
    0
280
    1
281
    0
  0
BLOCK_RECORD
  5
F7
330
1
100
AcDbSymbolTableRecord
100
AcDbBlockTableRecord
  2
*D18
 70
    0
280
    1
281
    0
  0
ENDTAB
  0
ENDSEC
  0
SECTION
  2
BLOCKS
  0
BLOCK
  5
20
330
1F
100
AcDbEntity
  8
0
100
AcDbBlockBegin
  2
*Model_Space
 70
    0
 10
0
 20
0
 30
0
  3
*Model_Space
  1

  0
ENDBLK
  5
21
330
1F
100
AcDbEntity
  8
0
100
AcDbBlockEnd
  0
BLOCK
  5
1C
330
1B
100
AcDbEntity
  8
0
100
AcDbBlockBegin
  2
*Paper_Space
 70
    0
 10
0
 20
0
 30
0
  3
*Paper_Space
  1

  0
ENDBLK
  5
1D
330
1F
100
AcDbEntity
  8
0
100
AcDbBlockEnd
  0
BLOCK
  5
53
330
52
100
AcDbEntity
  8
0
100
AcDbBlockBegin
  2
*D21
 70
    1
 10
0
 20
0
  3
*D21
  1

  0
LINE
  5
FA
100
AcDbEntity
  8
dimensions
  6
ByBlock
 62
    0
370
   -2
100
AcDbLine
 10
53.47363313350835
 20
42.01245229258261
 11
53.47363313350834
 21
-42.01245229258257
  0
MTEXT
  5
FB
100
AcDbEntity
  8
dimensions
  6
CONTINUOUS
 62
    0
370
   -2
100
AcDbMText
 10
51.59863313350834
 20
2.15458957641447e-014
 30
0
 40
2.5
 41
12.22222222222222
 71
    5
 72
    1
  1
84.0249
  7
standard
210
0
220
0
230
1
 50
90
 73
    2
 44
1
  0
SOLID
  5
FC
100
AcDbEntity
  8
dimensions
  6
ByBlock
 62
    0
370
   -2
100
AcDbTrace
 10
53.47363313350835
 20
42.01245229258261
 30
0
 11
53.88991779128119
 21
39.51245229258261
 31
0
 12
53.05734847573551
 22
39.51245229258261
 32
0
 13
53.05734847573551
 23
39.51245229258261
 33
0
  0
SOLID
  5
FD
100
AcDbEntity
  8
dimensions
  6
ByBlock
 62
    0
370
   -2
100
AcDbTrace
 10
53.47363313350834
 20
-42.01245229258257
 30
0
 11
53.0573484757355
 21
-39.51245229258257
 31
0
 12
53.88991779128119
 22
-39.51245229258257
 32
0
 13
53.88991779128119
 23
-39.51245229258257
 33
0
  0
LINE
  5
FE
100
AcDbEntity
  8
dimensions
  6
ByBlock
 62
    0
370
   -2
100
AcDbLine
 10
59.37500000000001
 20
42.01245229258259
 11
52.22363313350835
 21
42.01245229258261
  0
LINE
  5
FF
100
AcDbEntity
  8
dimensions
  6
ByBlock
 62
    0
370
   -2
100
AcDbLine
 10
59.37499999999999
 20
-42.01245229258257
 11
52.22363313350834
 21
-42.01245229258257
  0
ENDBLK
  5
54
330
52
100
AcDbEntity
  8
0
100
AcDbBlockEnd
  0
BLOCK
  5
56
330
55
100
AcDbEntity
  8
0
100
AcDbBlockBegin
  2
*D3
 70
    1
 10
0
 20
0
  3
*D3
  1

  0
LINE
  5
100
100
AcDbEntity
  8
dimensions
  6
ByBlock
 62
    0
370
   -2
100
AcDbLine
 10
45.51348998363114
 20
71.44796359855317
 11
-45.5134899836312
 21
71.44796359855317
  0
MTEXT
  5
101
100
AcDbEntity
  8
dimensions
  6
CONTINUOUS
 62
    0
370
   -2
100
AcDbMText
 10
-2.830690258473316e-014
 20
73.32296359855317
 30
0
 40
2.5
 41
11.11111111111127
 71
    5
 72
    1
  1
91.0270
  7
standard
210
0
220
0
230
1
 50
0
 73
    2
 44
1
  0
SOLID
  5
102
100
AcDbEntity
  8
dimensions
  6
ByBlock
 62
    0
370
   -2
100
AcDbTrace
 10
45.51348998363114
 20
71.44796359855317
 30
0
 11
43.01348998363114
 21
71.03167894078034
 31
0
 12
43.01348998363114
 22
71.86424825632601
 32
0
 13
43.01348998363114
 23
71.86424825632601
 33
0
  0
SOLID
  5
103
100
AcDbEntity
  8
dimensions
  6
ByBlock
 62
    0
370
   -2
100
AcDbTrace
 10
-45.5134899836312
 20
71.44796359855317
 30
0
 11
-43.0134899836312
 21
71.86424825632601
 31
0
 12
-43.0134899836312
 22
71.03167894078034
 32
0
 13
-43.0134899836312
 23
71.03167894078034
 33
0
  0
LINE
  5
104
100
AcDbEntity
  8
dimensions
  6
ByBlock
 62
    0
370
   -2
100
AcDbLine
 10
45.51348998363115
 20
65.62500000000001
 11
45.51348998363114
 21
72.69796359855317
  0
LINE
  5
105
100
AcDbEntity
  8
dimensions
  6
ByBlock
 62
    0
370
   -2
100
AcDbLine
 10
-45.5134899836312
 20
65.62500000000007
 11
-45.5134899836312
 21
72.69796359855317
  0
ENDBLK
  5
57
330
55
100
AcDbEntity
  8
0
100
AcDbBlockEnd
  0
BLOCK
  5
59
330
58
100
AcDbEntity
  8
0
100
AcDbBlockBegin
  2
*D40
 70
    1
 10
0
 20
0
  3
*D40
  1

  0
LINE
  5
106
100
AcDbEntity
  8
dimensions1
  6
ByBlock
 62
    0
370
   -2
100
AcDbLine
 10
35.62499999999999
 20
-24.50726383733983
 11
36.24999999999999
 21
-24.50726383733983
  0
LINE
  5
107
100
AcDbEntity
  8
dimensions1
  6
ByBlock
 62
    0
370
   -2
100
AcDbLine
 10
60.62499999999999
 20
-42.01245229258257
 11
61.24999999999999
 21
-42.01245229258257
  0
LINE
  5
108
100
AcDbEntity
  8
dimensions1
  6
ByBlock
 62
    0
370
   -2
100
AcDbLine
 10
34.99999999999999
 20
-24.50726383733983
 11
59.99999999999999
 21
-42.01245229258257
  0
MTEXT
  5
109
100
AcDbEntity
  8
dimensions1
  6
CONTINUOUS
 62
    0
370
   -2
100
AcDbMText
 10
48.5754558181582
 20
-31.72394798191933
 30
0
 40
2.5
 41
11.3888888888892
 71
    5
 72
    1
  1
30.5194
  7
standard
210
0
220
0
230
1
 50
325.0000000000001
 73
    2
 44
1
  0
SOLID
  5
10A
100
AcDbEntity
  8
dimensions1
  6
ByBlock
 62
    0
370
   -2
100
AcDbTrace
 10
34.99999999999999
 20
-24.50726383733983
 30
0
 11
37.28665118123543
 21
-25.60020449979668
 31
0
 12
36.80910904020951
 22
-26.28220535663821
 32
0
 13
36.80910904020951
 23
-26.28220535663821
 33
0
  0
SOLID
  5
10B
100
AcDbEntity
  8
dimensions1
  6
ByBlock
 62
    0
370
   -2
100
AcDbTrace
 10
59.99999999999999
 20
-42.01245229258257
 30
0
 11
57.71334881876455
 21
-40.91951163012572
 31
0
 12
58.19089095979047
 22
-40.23751077328419
 32
0
 13
58.19089095979047
 23
-40.23751077328419
 33
0
  0
ENDBLK
  5
5A
330
58
100
AcDbEntity
  8
0
100
AcDbBlockEnd
  0
BLOCK
  5
5C
330
5B
100
AcDbEntity
  8
0
100
AcDbBlockBegin
  2
*D42
 70
    1
 10
0
 20
0
  3
*D42
  1

  0
LINE
  5
10C
100
AcDbEntity
  8
dimensions1
  6
ByBlock
 62
    0
370
   -2
100
AcDbLine
 10
0.625
 20
0
 11
1.25
 21
0
  0
LINE
  5
10D
100
AcDbEntity
  8
dimensions1
  6
ByBlock
 62
    0
370
   -2
100
AcDbLine
 10
-20.3812261462913
 20
-30.00000000000001
 11
-19.7562261462913
 21
-30.00000000000001
  0
LINE
  5
10E
100
AcDbEntity
  8
dimensions1
  6
ByBlock
 62
    0
370
   -2
100
AcDbLine
 10
0
 20
0
 11
-21.0062261462913
 21
-30.00000000000001
  0
MTEXT
  5
10F
100
AcDbEntity
  8
dimensions1
  6
CONTINUOUS
 62
    0
370
   -2
100
AcDbMText
 10
-12.03902315618751
 20
-13.9245441818418
 30
0
 40
2.5
 41
11.66666666666729
 71
    5
 72
    1
  1
36.6232
  7
standard
210
0
220
0
230
1
 50
54.99999999999999
 73
    2
 44
1
  0
SOLID
  5
110
100
AcDbEntity
  8
dimensions1
  6
ByBlock
 62
    0
370
   -2
100
AcDbTrace
 10
0
 20
0
 30
0
 11
-1.09294066245685
 21
-2.28665118123544
 31
0
 12
-1.774941519298381
 22
-1.809109040209518
 32
0
 13
-1.774941519298381
 23
-1.809109040209518
 33
0
  0
SOLID
  5
111
100
AcDbEntity
  8
dimensions1
  6
ByBlock
 62
    0
370
   -2
100
AcDbTrace
 10
-21.0062261462913
 20
-30.00000000000001
 30
0
 11
-19.91328548383445
 21
-27.71334881876458
 31
0
 12
-19.23128462699292
 22
-28.1908909597905
 32
0
 13
-19.23128462699292
 23
-28.1908909597905
 33
0
  0
ENDBLK
  5
5D
330
5B
100
AcDbEntity
  8
0
100
AcDbBlockEnd
  0
BLOCK
  5
5F
330
5E
100
AcDbEntity
  8
0
100
AcDbBlockBegin
  2
*D39
 70
    1
 10
0
 20
0
  3
*D39
  1

  0
LINE
  5
112
100
AcDbEntity
  8
dimensions1
  6
ByBlock
 62
    0
370
   -2
100
AcDbLine
 10
0.625
 20
0
 11
1.25
 21
0
  0
LINE
  5
113
100
AcDbEntity
  8
dimensions1
  6
ByBlock
 62
    0
370
   -2
100
AcDbLine
 10
30.625
 20
-21.00622614629128
 11
31.25
 21
-21.00622614629128
  0
LINE
  5
114
100
AcDbEntity
  8
dimensions1
  6
ByBlock
 62
    0
370
   -2
100
AcDbLine
 10
0
 20
0
 11
30
 21
-21.00622614629128
  0
MTEXT
  5
115
100
AcDbEntity
  8
dimensions1
  6
CONTINUOUS
 62
    0
370
   -2
100
AcDbMText
 10
16.07545581815821
 20
-8.967202990103782
 30
0
 40
2.5
 41
11.66666666666729
 71
    5
 72
    1
  1
36.6232
  7
standard
210
0
220
0
230
1
 50
325.0000000000001
 73
    2
 44
1
  0
SOLID
  5
116
100
AcDbEntity
  8
dimensions1
  6
ByBlock
 62
    0
370
   -2
100
AcDbTrace
 10
0
 20
0
 30
0
 11
2.28665118123544
 21
-1.092940662456849
 31
0
 12
1.809109040209519
 22
-1.774941519298381
 32
0
 13
1.809109040209519
 23
-1.774941519298381
 33
0
  0
SOLID
  5
117
100
AcDbEntity
  8
dimensions1
  6
ByBlock
 62
    0
370
   -2
100
AcDbTrace
 10
30
 20
-21.00622614629128
 30
0
 11
27.71334881876455
 21
-19.91328548383444
 31
0
 12
28.19089095979048
 22
-19.2312846269929
 32
0
 13
28.19089095979048
 23
-19.2312846269929
 33
0
  0
ENDBLK
  5
60
330
5E
100
AcDbEntity
  8
0
100
AcDbBlockEnd
  0
BLOCK
  5
62
330
61
100
AcDbEntity
  8
0
100
AcDbBlockBegin
  2
*D13
 70
    1
 10
0
 20
0
  3
*D13
  1

  0
LINE
  5
118
100
AcDbEntity
  8
dimensions
  6
ByBlock
 62
    0
370
   -2
100
AcDbLine
 10
-22.0185548196799
 20
21.00622614629127
 11
-22.01855481967991
 21
-21.00622614629128
  0
MTEXT
  5
119
100
AcDbEntity
  8
dimensions
  6
CONTINUOUS
 62
    0
370
   -2
100
AcDbMText
 10
-23.89355481967991
 20
-6.875813666259306e-015
 30
0
 40
2.5
 41
11.38888888888905
 71
    5
 72
    1
  1
42.0125
  7
standard
210
0
220
0
230
1
 50
90
 73
    2
 44
1
  0
SOLID
  5
11A
100
AcDbEntity
  8
dimensions
  6
ByBlock
 62
    0
370
   -2
100
AcDbTrace
 10
-22.0185548196799
 20
21.00622614629127
 30
0
 11
-21.60227016190706
 21
18.50622614629127
 31
0
 12
-22.43483947745274
 22
18.50622614629127
 32
0
 13
-22.43483947745274
 23
18.50622614629127
 33
0
  0
SOLID
  5
11B
100
AcDbEntity
  8
dimensions
  6
ByBlock
 62
    0
370
   -2
100
AcDbTrace
 10
-22.01855481967991
 20
-21.00622614629128
 30
0
 11
-22.43483947745275
 21
-18.50622614629128
 31
0
 12
-21.60227016190706
 22
-18.50622614629128
 32
0
 13
-21.60227016190706
 23
-18.50622614629128
 33
0
  0
LINE
  5
11C
100
AcDbEntity
  8
dimensions
  6
ByBlock
 62
    0
370
   -2
100
AcDbLine
 10
-29.37499999999997
 20
21.00622614629126
 11
-20.7685548196799
 21
21.00622614629127
  0
LINE
  5
11D
100
AcDbEntity
  8
dimensions
  6
ByBlock
 62
    0
370
   -2
100
AcDbLine
 10
-29.37499999999998
 20
-21.00622614629128
 11
-20.76855481967991
 21
-21.00622614629128
  0
ENDBLK
  5
63
330
61
100
AcDbEntity
  8
0
100
AcDbBlockEnd
  0
BLOCK
  5
65
330
64
100
AcDbEntity
  8
0
100
AcDbBlockBegin
  2
*D29
 70
    1
 10
0
 20
0
  3
*D29
  1

  0
ARC
  5
11E
100
AcDbEntity
  8
dimensions1
  6
ByBlock
 62
    0
370
   -2
100
AcDbCircle
 10
0
 20
0
 40
199.8992841098441
100
AcDbArc
 50
180
 51
215
  0
SOLID
  5
11F
100
AcDbEntity
  8
dimensions1
  6
ByBlock
 62
    0
370
   -2
100
AcDbTrace
 10
-199.8992841098441
 20
2.447979334454597e-014
 30
0
 11
-199.467374820285
 21
-2.497348049809934
 31
0
 12
-200.2999278583744
 22
-2.502554195828843
 32
0
 13
-200.2999278583744
 23
-2.502554195828843
 33
0
  0
SOLID
  5
120
100
AcDbEntity
  8
dimensions1
  6
ByBlock
 62
    0
370
   -2
100
AcDbTrace
 10
-163.7479072304849
 20
-114.6575190088495
 30
0
 11
-165.5115014935439
 21
-112.8373464369207
 31
0
 12
-164.8265278477334
 22
-112.3640782574144
 32
0
 13
-164.8265278477334
 23
-112.3640782574144
 33
0
  0
MTEXT
  5
121
100
AcDbEntity
  8
dimensions1
  6
CONTINUOUS
 62
    0
370
   -2
100
AcDbMText
 10
-190.0512626037764
 20
-59.92293292389225
 30
0
 40
2.5
 41
4.722222222222532
 71
    8
 72
    1
  1
35%%D
  7
standard
210
0
220
0
230
1
 50
-72.50000000000001
 73
    2
 44
1
  0
ENDBLK
  5
66
330
64
100
AcDbEntity
  8
0
100
AcDbBlockEnd
  0
BLOCK
  5
68
330
67
100
AcDbEntity
  8
0
100
AcDbBlockBegin
  2
*D19
 70
    1
 10
0
 20
0
  3
*D19
  1

  0
LINE
  5
122
100
AcDbEntity
  8
dimensions
  6
ByBlock
 62
    0
370
   -2
100
AcDbLine
 10
24.71470438943663
 20
21.0062261462913
 11
24.71470438943663
 21
-21.00622614629128
  0
MTEXT
  5
123
100
AcDbEntity
  8
dimensions
  6
CONTINUOUS
 62
    0
370
   -2
100
AcDbMText
 10
22.83970438943663
 20
1.08877547277432e-014
 30
0
 40
2.5
 41
11.38888888888905
 71
    5
 72
    1
  1
42.0125
  7
standard
210
0
220
0
230
1
 50
90
 73
    2
 44
1
  0
SOLID
  5
124
100
AcDbEntity
  8
dimensions
  6
ByBlock
 62
    0
370
   -2
100
AcDbTrace
 10
24.71470438943663
 20
21.0062261462913
 30
0
 11
25.13098904720948
 21
18.5062261462913
 31
0
 12
24.29841973166379
 22
18.5062261462913
 32
0
 13
24.29841973166379
 23
18.5062261462913
 33
0
  0
SOLID
  5
125
100
AcDbEntity
  8
dimensions
  6
ByBlock
 62
    0
370
   -2
100
AcDbTrace
 10
24.71470438943663
 20
-21.00622614629128
 30
0
 11
24.29841973166379
 21
-18.50622614629128
 31
0
 12
25.13098904720947
 22
-18.50622614629128
 32
0
 13
25.13098904720947
 23
-18.50622614629128
 33
0
  0
LINE
  5
126
100
AcDbEntity
  8
dimensions
  6
ByBlock
 62
    0
370
   -2
100
AcDbLine
 10
29.375
 20
21.0062261462913
 11
23.46470438943663
 21
21.00622614629131
  0
LINE
  5
127
100
AcDbEntity
  8
dimensions
  6
ByBlock
 62
    0
370
   -2
100
AcDbLine
 10
29.375
 20
-21.00622614629128
 11
23.46470438943663
 21
-21.00622614629128
  0
ENDBLK
  5
69
330
67
100
AcDbEntity
  8
0
100
AcDbBlockEnd
  0
BLOCK
  5
6B
330
6A
100
AcDbEntity
  8
0
100
AcDbBlockBegin
  2
*D48
 70
    1
 10
0
 20
0
  3
*D48
  1

  0
LINE
  5
128
100
AcDbEntity
  8
dimensions1
  6
ByBlock
 62
    0
370
   -2
100
AcDbLine
 10
6.429183357567483e-015
 20
105
 11
5.5107285922007e-015
 21
90.00000000000004
  0
MTEXT
  5
129
100
AcDbEntity
  8
dimensions1
  6
CONTINUOUS
 62
    0
370
   -2
100
AcDbMText
 10
-1.874999999999994
 20
105.4861111111112
 30
0
 40
2.5
 41
9.722222222222378
 71
    5
 72
    1
  1
5.0000
  7
standard
210
0
220
0
230
1
 50
90
 73
    2
 44
1
  0
SOLID
  5
12A
100
AcDbEntity
  8
dimensions1
  6
ByBlock
 62
    0
370
   -2
100
AcDbTrace
 10
6.123031769111889e-015
 20
100
 30
0
 11
-0.4162846577728339
 21
102.5
 31
0
 12
0.416284657772847
 22
102.5
 32
0
 13
0.416284657772847
 23
102.5
 33
0
  0
SOLID
  5
12B
100
AcDbEntity
  8
dimensions1
  6
ByBlock
 62
    0
370
   -2
100
AcDbTrace
 10
5.816880180656294e-015
 20
95.00000000000004
 30
0
 11
0.4162846577728462
 21
92.50000000000004
 31
0
 12
-0.4162846577728348
 22
92.50000000000004
 32
0
 13
-0.4162846577728348
 23
92.50000000000004
 33
0
  0
LINE
  5
12C
100
AcDbEntity
  8
dimensions1
  6
ByBlock
 62
    0
370
   -2
100
AcDbLine
 10
-0.6249999999999939
 20
100
 11
-1.249999999999994
 21
100
  0
LINE
  5
12D
100
AcDbEntity
  8
dimensions1
  6
ByBlock
 62
    0
370
   -2
100
AcDbLine
 10
-0.6249999999999942
 20
95.00000000000004
 11
-1.249999999999994
 21
95.00000000000004
  0
ENDBLK
  5
6C
330
6A
100
AcDbEntity
  8
0
100
AcDbBlockEnd
  0
BLOCK
  5
6E
330
6D
100
AcDbEntity
  8
0
100
AcDbBlockBegin
  2
*D4
 70
    1
 10
0
 20
0
  3
*D4
  1

  0
LINE
  5
12E
100
AcDbEntity
  8
dimensions
  6
ByBlock
 62
    0
370
   -2
100
AcDbLine
 10
-42.01245229258264
 20
52.5749166102561
 11
42.01245229258259
 21
52.5749166102561
  0
MTEXT
  5
12F
100
AcDbEntity
  8
dimensions
  6
CONTINUOUS
 62
    0
370
   -2
100
AcDbMText
 10
-2.830690258473316e-014
 20
54.4499166102561
 30
0
 40
2.5
 41
12.22222222222222
 71
    5
 72
    1
  1
84.0249
  7
standard
210
0
220
0
230
1
 50
0
 73
    2
 44
1
  0
SOLID
  5
130
100
AcDbEntity
  8
dimensions
  6
ByBlock
 62
    0
370
   -2
100
AcDbTrace
 10
-42.01245229258264
 20
52.5749166102561
 30
0
 11
-39.51245229258264
 21
52.99120126802895
 31
0
 12
-39.51245229258264
 22
52.15863195248326
 32
0
 13
-39.51245229258264
 23
52.15863195248326
 33
0
  0
SOLID
  5
131
100
AcDbEntity
  8
dimensions
  6
ByBlock
 62
    0
370
   -2
100
AcDbTrace
 10
42.01245229258259
 20
52.5749166102561
 30
0
 11
39.51245229258259
 21
52.15863195248326
 31
0
 12
39.51245229258259
 22
52.99120126802895
 32
0
 13
39.51245229258259
 23
52.99120126802895
 33
0
  0
LINE
  5
132
100
AcDbEntity
  8
dimensions
  6
ByBlock
 62
    0
370
   -2
100
AcDbLine
 10
-42.01245229258264
 20
59.37500000000006
 11
-42.01245229258264
 21
51.3249166102561
  0
LINE
  5
133
100
AcDbEntity
  8
dimensions
  6
ByBlock
 62
    0
370
   -2
100
AcDbLine
 10
42.01245229258259
 20
59.375
 11
42.01245229258259
 21
51.3249166102561
  0
ENDBLK
  5
6F
330
6D
100
AcDbEntity
  8
0
100
AcDbBlockEnd
  0
BLOCK
  5
71
330
70
100
AcDbEntity
  8
0
100
AcDbBlockBegin
  2
*D50
 70
    1
 10
0
 20
0
  3
*D50
  1

  0
LINE
  5
134
100
AcDbEntity
  8
dimensions1
  6
ByBlock
 62
    0
370
   -2
100
AcDbLine
 10
2.449212707644756e-015
 20
40.00000000000002
 11
1.530757942277972e-015
 21
25.00000000000001
  0
MTEXT
  5
135
100
AcDbEntity
  8
dimensions1
  6
CONTINUOUS
 62
    0
370
   -2
100
AcDbMText
 10
-1.874999999999998
 20
40.48611111111121
 30
0
 40
2.5
 41
9.722222222222378
 71
    5
 72
    1
  1
5.0000
  7
standard
210
0
220
0
230
1
 50
90
 73
    2
 44
1
  0
SOLID
  5
136
100
AcDbEntity
  8
dimensions1
  6
ByBlock
 62
    0
370
   -2
100
AcDbTrace
 10
2.143061119189161e-015
 20
35.00000000000002
 30
0
 11
-0.4162846577728379
 21
37.50000000000002
 31
0
 12
0.4162846577728431
 22
37.50000000000002
 32
0
 13
0.4162846577728431
 23
37.50000000000002
 33
0
  0
SOLID
  5
137
100
AcDbEntity
  8
dimensions1
  6
ByBlock
 62
    0
370
   -2
100
AcDbTrace
 10
1.836909530733567e-015
 20
30.00000000000001
 30
0
 11
0.4162846577728422
 21
27.50000000000001
 31
0
 12
-0.4162846577728388
 22
27.50000000000001
 32
0
 13
-0.4162846577728388
 23
27.50000000000001
 33
0
  0
LINE
  5
138
100
AcDbEntity
  8
dimensions1
  6
ByBlock
 62
    0
370
   -2
100
AcDbLine
 10
-0.6249999999999979
 20
35.00000000000002
 11
-1.249999999999998
 21
35.00000000000002
  0
LINE
  5
139
100
AcDbEntity
  8
dimensions1
  6
ByBlock
 62
    0
370
   -2
100
AcDbLine
 10
-0.6249999999999981
 20
30.00000000000001
 11
-1.249999999999998
 21
30.00000000000001
  0
ENDBLK
  5
72
330
70
100
AcDbEntity
  8
0
100
AcDbBlockEnd
  0
BLOCK
  5
74
330
73
100
AcDbEntity
  8
0
100
AcDbBlockBegin
  2
*D54
 70
    1
 10
0
 20
0
  3
*D54
  1

  0
LINE
  5
13A
100
AcDbEntity
  8
dimensions1
  6
ByBlock
 62
    0
370
   -2
100
AcDbLine
 10
-24.99999999999998
 20
0
 11
-39.99999999999996
 21
0
  0
MTEXT
  5
13B
100
AcDbEntity
  8
dimensions1
  6
CONTINUOUS
 62
    0
370
   -2
100
AcDbMText
 10
-24.51388888888879
 20
1.875
 30
0
 40
2.5
 41
9.722222222222378
 71
    5
 72
    1
  1
5.0000
  7
standard
210
0
220
0
230
1
 50
0
 73
    2
 44
1
  0
SOLID
  5
13C
100
AcDbEntity
  8
dimensions1
  6
ByBlock
 62
    0
370
   -2
100
AcDbTrace
 10
-29.99999999999998
 20
0
 30
0
 11
-27.49999999999998
 21
0.4162846577728402
 31
0
 12
-27.49999999999998
 22
-0.4162846577728408
 32
0
 13
-27.49999999999998
 23
-0.4162846577728408
 33
0
  0
SOLID
  5
13D
100
AcDbEntity
  8
dimensions1
  6
ByBlock
 62
    0
370
   -2
100
AcDbTrace
 10
-34.99999999999996
 20
0
 30
0
 11
-37.49999999999996
 21
-0.4162846577728404
 31
0
 12
-37.49999999999996
 22
0.4162846577728404
 32
0
 13
-37.49999999999996
 23
0.4162846577728404
 33
0
  0
LINE
  5
13E
100
AcDbEntity
  8
dimensions1
  6
ByBlock
 62
    0
370
   -2
100
AcDbLine
 10
-29.99999999999998
 20
0.625
 11
-29.99999999999998
 21
1.25
  0
LINE
  5
13F
100
AcDbEntity
  8
dimensions1
  6
ByBlock
 62
    0
370
   -2
100
AcDbLine
 10
-34.99999999999996
 20
0.625
 11
-34.99999999999996
 21
1.25
  0
ENDBLK
  5
75
330
73
100
AcDbEntity
  8
0
100
AcDbBlockEnd
  0
BLOCK
  5
77
330
76
100
AcDbEntity
  8
0
100
AcDbBlockBegin
  2
*D32
 70
    1
 10
0
 20
0
  3
*D32
  1

  0
ARC
  5
140
100
AcDbEntity
  8
dimensions1
  6
ByBlock
 62
    0
370
   -2
100
AcDbCircle
 10
0
 20
-0
 40
199.2031072793666
100
AcDbArc
 50
54.99999999999999
 51
90
  0
SOLID
  5
141
100
AcDbEntity
  8
dimensions1
  6
ByBlock
 62
    0
370
   -2
100
AcDbTrace
 10
114.2582083833543
 20
163.1776325566125
 30
0
 11
111.9647440607644
 21
164.2562030537542
 31
0
 12
112.4379972710438
 22
164.9411870419966
 32
0
 13
112.4379972710438
 23
164.9411870419966
 33
0
  0
SOLID
  5
142
100
AcDbEntity
  8
dimensions1
  6
ByBlock
 62
    0
370
   -2
100
AcDbTrace
 10
1.219726954377365e-014
 20
199.2031072793666
 30
0
 11
2.502562950724223
 21
199.6036963380784
 31
0
 12
2.497338610457272
 22
198.7711434139607
 32
0
 13
2.497338610457272
 23
198.7711434139607
 33
0
  0
MTEXT
  5
143
100
AcDbEntity
  8
dimensions1
  6
CONTINUOUS
 62
    0
370
   -2
100
AcDbMText
 10
60.08947076286763
 20
190.5794531482671
 30
0
 40
2.5
 41
4.722222222222532
 71
    8
 72
    1
  1
35%%D
  7
standard
210
0
220
0
230
1
 50
342.4999999999999
 73
    2
 44
1
  0
ENDBLK
  5
78
330
76
100
AcDbEntity
  8
0
100
AcDbBlockEnd
  0
BLOCK
  5
7A
330
79
100
AcDbEntity
  8
0
100
AcDbBlockBegin
  2
*D26
 70
    1
 10
0
 20
0
  3
*D26
  1

  0
ARC
  5
144
100
AcDbEntity
  8
dimensions1
  6
ByBlock
 62
    0
370
   -2
100
AcDbCircle
 10
0
 20
-0
 40
199.3419293824377
100
AcDbArc
 50
325.0000000000001
 51
0
  0
SOLID
  5
145
100
AcDbEntity
  8
dimensions1
  6
ByBlock
 62
    0
370
   -2
100
AcDbTrace
 10
163.2913489661357
 20
-114.3378334705204
 30
0
 11
164.3699294855315
 21
-112.0443738612234
 31
0
 12
165.0549114056869
 22
-112.5176300648261
 32
0
 13
165.0549114056869
 23
-112.5176300648261
 33
0
  0
SOLID
  5
146
100
AcDbEntity
  8
dimensions1
  6
ByBlock
 62
    0
370
   -2
100
AcDbTrace
 10
199.3419293824377
 20
0
 30
0
 11
199.7425293771551
 21
-2.502561200156644
 31
0
 12
198.9099764302154
 22
-2.497340498082602
 32
0
 13
198.9099764302154
 23
-2.497340498082602
 33
0
  0
MTEXT
  5
147
100
AcDbEntity
  8
dimensions1
  6
CONTINUOUS
 62
    0
370
   -2
100
AcDbMText
 10
189.5197039526692
 20
-59.75533312498008
 30
0
 40
2.5
 41
4.722222222222532
 71
    8
 72
    1
  1
35%%D
  7
standard
210
0
220
0
230
1
 50
72.50000000000001
 73
    2
 44
1
  0
ENDBLK
  5
7B
330
79
100
AcDbEntity
  8
0
100
AcDbBlockEnd
  0
BLOCK
  5
7D
330
7C
100
AcDbEntity
  8
0
100
AcDbBlockBegin
  2
*D17
 70
    1
 10
0
 20
0
  3
*D17
  1

  0
LINE
  5
148
100
AcDbEntity
  8
dimensions
  6
ByBlock
 62
    0
370
   -2
100
AcDbLine
 10
-86.72614449384126
 20
66.51971612992236
 11
-86.72614449384126
 21
-66.51971612992239
  0
MTEXT
  5
149
100
AcDbEntity
  8
dimensions
  6
CONTINUOUS
 62
    0
370
   -2
100
AcDbMText
 10
-88.60114449384126
 20
-1.398124102386031e-014
 30
0
 40
2.5
 41
13.3333333333338
 71
    5
 72
    1
  1
133.0394
  7
standard
210
0
220
0
230
1
 50
90
 73
    2
 44
1
  0
SOLID
  5
14A
100
AcDbEntity
  8
dimensions
  6
ByBlock
 62
    0
370
   -2
100
AcDbTrace
 10
-86.72614449384126
 20
66.51971612992236
 30
0
 11
-86.30985983606843
 21
64.01971612992236
 31
0
 12
-87.1424291516141
 22
64.01971612992236
 32
0
 13
-87.1424291516141
 23
64.01971612992236
 33
0
  0
SOLID
  5
14B
100
AcDbEntity
  8
dimensions
  6
ByBlock
 62
    0
370
   -2
100
AcDbTrace
 10
-86.72614449384126
 20
-66.51971612992239
 30
0
 11
-87.1424291516141
 21
-64.01971612992239
 31
0
 12
-86.30985983606843
 22
-64.01971612992239
 32
0
 13
-86.30985983606843
 23
-64.01971612992239
 33
0
  0
LINE
  5
14C
100
AcDbEntity
  8
dimensions
  6
ByBlock
 62
    0
370
   -2
100
AcDbLine
 10
-94.37499999999987
 20
66.51971612992232
 11
-85.47614449384126
 21
66.51971612992236
  0
LINE
  5
14D
100
AcDbEntity
  8
dimensions
  6
ByBlock
 62
    0
370
   -2
100
AcDbLine
 10
-94.37499999999993
 20
-66.51971612992239
 11
-85.47614449384126
 21
-66.51971612992239
  0
ENDBLK
  5
7E
330
7C
100
AcDbEntity
  8
0
100
AcDbBlockEnd
  0
BLOCK
  5
80
330
7F
100
AcDbEntity
  8
0
100
AcDbBlockBegin
  2
*D30
 70
    1
 10
0
 20
0
  3
*D30
  1

  0
ARC
  5
14E
100
AcDbEntity
  8
dimensions1
  6
ByBlock
 62
    0
370
   -2
100
AcDbCircle
 10
0
 20
0
 40
199.4872343461744
100
AcDbArc
 50
145
 51
180
  0
SOLID
  5
14F
100
AcDbEntity
  8
dimensions1
  6
ByBlock
 62
    0
370
   -2
100
AcDbTrace
 10
-163.410375824226
 20
114.4211769738047
 30
0
 11
-164.4889668189424
 21
112.127722290927
 31
0
 12
-165.1739465775022
 22
112.6009816231662
 32
0
 13
-165.1739465775022
 23
112.6009816231662
 33
0
  0
SOLID
  5
150
100
AcDbEntity
  8
dimensions1
  6
ByBlock
 62
    0
370
   -2
100
AcDbTrace
 10
-199.4872343461744
 20
2.442933346867787e-014
 30
0
 11
-199.8878457712869
 21
2.502559370397921
 31
0
 12
-199.0552928005104
 22
2.49734247099324
 32
0
 13
-199.0552928005104
 23
2.49734247099324
 33
0
  0
MTEXT
  5
151
100
AcDbEntity
  8
dimensions1
  6
CONTINUOUS
 62
    0
370
   -2
100
AcDbMText
 10
-190.8504299480481
 20
60.17490941965278
 30
0
 40
2.5
 41
4.722222222222532
 71
    8
 72
    1
  1
35%%D
  7
standard
210
0
220
0
230
1
 50
432.5
 73
    2
 44
1
  0
ENDBLK
  5
81
330
7F
100
AcDbEntity
  8
0
100
AcDbBlockEnd
  0
BLOCK
  5
83
330
82
100
AcDbEntity
  8
0
100
AcDbBlockBegin
  2
*D49
 70
    1
 10
0
 20
0
  3
*D49
  1

  0
LINE
  5
152
100
AcDbEntity
  8
dimensions1
  6
ByBlock
 62
    0
370
   -2
100
AcDbLine
 10
4.286122238378323e-015
 20
70.00000000000004
 11
3.367667473011539e-015
 21
55.00000000000003
  0
MTEXT
  5
153
100
AcDbEntity
  8
dimensions1
  6
CONTINUOUS
 62
    0
370
   -2
100
AcDbMText
 10
-1.874999999999996
 20
70.48611111111123
 30
0
 40
2.5
 41
9.722222222222378
 71
    5
 72
    1
  1
5.0000
  7
standard
210
0
220
0
230
1
 50
90
 73
    2
 44
1
  0
SOLID
  5
154
100
AcDbEntity
  8
dimensions1
  6
ByBlock
 62
    0
370
   -2
100
AcDbTrace
 10
3.979970649922728e-015
 20
65.00000000000004
 30
0
 11
-0.416284657772836
 21
67.50000000000004
 31
0
 12
0.4162846577728449
 22
67.50000000000004
 32
0
 13
0.4162846577728449
 23
67.50000000000004
 33
0
  0
SOLID
  5
155
100
AcDbEntity
  8
dimensions1
  6
ByBlock
 62
    0
370
   -2
100
AcDbTrace
 10
3.673819061467133e-015
 20
60.00000000000003
 30
0
 11
0.416284657772844
 21
57.50000000000003
 31
0
 12
-0.416284657772837
 22
57.50000000000003
 32
0
 13
-0.416284657772837
 23
57.50000000000003
 33
0
  0
LINE
  5
156
100
AcDbEntity
  8
dimensions1
  6
ByBlock
 62
    0
370
   -2
100
AcDbLine
 10
-0.624999999999996
 20
65.00000000000004
 11
-1.249999999999996
 21
65.00000000000004
  0
LINE
  5
157
100
AcDbEntity
  8
dimensions1
  6
ByBlock
 62
    0
370
   -2
100
AcDbLine
 10
-0.6249999999999963
 20
60.00000000000003
 11
-1.249999999999996
 21
60.00000000000003
  0
ENDBLK
  5
84
330
82
100
AcDbEntity
  8
0
100
AcDbBlockEnd
  0
BLOCK
  5
86
330
85
100
AcDbEntity
  8
0
100
AcDbBlockBegin
  2
*D24
 70
    1
 10
0
 20
0
  3
*D24
  1

  0
LINE
  5
158
100
AcDbEntity
  8
dimensions
  6
ByBlock
 62
    0
370
   -2
100
AcDbLine
 10
107.3966245286428
 20
-70.02075382097094
 11
107.3966245286428
 21
70.020753820971
  0
MTEXT
  5
159
100
AcDbEntity
  8
dimensions
  6
CONTINUOUS
 62
    0
370
   -2
100
AcDbMText
 10
105.5216245286428
 20
2.86513231217457e-014
 30
0
 40
2.5
 41
13.05555555555571
 71
    5
 72
    1
  1
140.0415
  7
standard
210
0
220
0
230
1
 50
90
 73
    2
 44
1
  0
SOLID
  5
15A
100
AcDbEntity
  8
dimensions
  6
ByBlock
 62
    0
370
   -2
100
AcDbTrace
 10
107.3966245286428
 20
-70.02075382097094
 30
0
 11
106.98033987087
 21
-67.52075382097094
 31
0
 12
107.8129091864157
 22
-67.52075382097094
 32
0
 13
107.8129091864157
 23
-67.52075382097094
 33
0
  0
SOLID
  5
15B
100
AcDbEntity
  8
dimensions
  6
ByBlock
 62
    0
370
   -2
100
AcDbTrace
 10
107.3966245286428
 20
70.020753820971
 30
0
 11
107.8129091864157
 21
67.520753820971
 31
0
 12
106.98033987087
 22
67.520753820971
 32
0
 13
106.98033987087
 23
67.520753820971
 33
0
  0
LINE
  5
15C
100
AcDbEntity
  8
dimensions
  6
ByBlock
 62
    0
370
   -2
100
AcDbLine
 10
100.625
 20
-70.02075382097094
 11
108.6466245286428
 21
-70.02075382097094
  0
LINE
  5
15D
100
AcDbEntity
  8
dimensions
  6
ByBlock
 62
    0
370
   -2
100
AcDbLine
 10
100.625
 20
70.020753820971
 11
108.6466245286428
 21
70.020753820971
  0
ENDBLK
  5
87
330
85
100
AcDbEntity
  8
0
100
AcDbBlockEnd
  0
BLOCK
  5
89
330
88
100
AcDbEntity
  8
0
100
AcDbBlockBegin
  2
*D45
 70
    1
 10
0
 20
0
  3
*D45
  1

  0
LINE
  5
15E
100
AcDbEntity
  8
dimensions1
  6
ByBlock
 62
    0
370
   -2
100
AcDbLine
 10
-1.530757942277972e-015
 20
-25.00000000000001
 11
-2.449212707644755e-015
 21
-40.00000000000001
  0
MTEXT
  5
15F
100
AcDbEntity
  8
dimensions1
  6
CONTINUOUS
 62
    0
370
   -2
100
AcDbMText
 10
-1.875000000000002
 20
-24.51388888888883
 30
0
 40
2.5
 41
9.722222222222378
 71
    5
 72
    1
  1
5.0000
  7
standard
210
0
220
0
230
1
 50
90
 73
    2
 44
1
  0
SOLID
  5
160
100
AcDbEntity
  8
dimensions1
  6
ByBlock
 62
    0
370
   -2
100
AcDbTrace
 10
-1.836909530733567e-015
 20
-30.00000000000001
 30
0
 11
-0.4162846577728418
 21
-27.50000000000001
 31
0
 12
0.4162846577728391
 22
-27.50000000000001
 32
0
 13
0.4162846577728391
 23
-27.50000000000001
 33
0
  0
SOLID
  5
161
100
AcDbEntity
  8
dimensions1
  6
ByBlock
 62
    0
370
   -2
100
AcDbTrace
 10
-2.143061119189161e-015
 20
-35.00000000000001
 30
0
 11
0.4162846577728382
 21
-37.50000000000001
 31
0
 12
-0.4162846577728428
 22
-37.50000000000001
 32
0
 13
-0.4162846577728428
 23
-37.50000000000001
 33
0
  0
LINE
  5
162
100
AcDbEntity
  8
dimensions1
  6
ByBlock
 62
    0
370
   -2
100
AcDbLine
 10
-0.6250000000000019
 20
-30.00000000000001
 11
-1.250000000000002
 21
-30.00000000000001
  0
LINE
  5
163
100
AcDbEntity
  8
dimensions1
  6
ByBlock
 62
    0
370
   -2
100
AcDbLine
 10
-0.6250000000000021
 20
-35.00000000000001
 11
-1.250000000000002
 21
-35.00000000000001
  0
ENDBLK
  5
8A
330
88
100
AcDbEntity
  8
0
100
AcDbBlockEnd
  0
BLOCK
  5
8C
330
8B
100
AcDbEntity
  8
0
100
AcDbBlockBegin
  2
*D16
 70
    1
 10
0
 20
0
  3
*D16
  1

  0
LINE
  5
164
100
AcDbEntity
  8
dimensions
  6
ByBlock
 62
    0
370
   -2
100
AcDbLine
 10
-70.09988881367481
 20
-45.51348998363113
 11
-70.09988881367481
 21
45.51348998363108
  0
MTEXT
  5
165
100
AcDbEntity
  8
dimensions
  6
CONTINUOUS
 62
    0
370
   -2
100
AcDbMText
 10
-71.97488881367481
 20
-2.819209573906231e-014
 30
0
 40
2.5
 41
11.11111111111127
 71
    5
 72
    1
  1
91.0270
  7
standard
210
0
220
0
230
1
 50
90
 73
    2
 44
1
  0
SOLID
  5
166
100
AcDbEntity
  8
dimensions
  6
ByBlock
 62
    0
370
   -2
100
AcDbTrace
 10
-70.09988881367481
 20
-45.51348998363113
 30
0
 11
-70.51617347144764
 21
-43.01348998363113
 31
0
 12
-69.68360415590197
 22
-43.01348998363113
 32
0
 13
-69.68360415590197
 23
-43.01348998363113
 33
0
  0
SOLID
  5
167
100
AcDbEntity
  8
dimensions
  6
ByBlock
 62
    0
370
   -2
100
AcDbTrace
 10
-70.09988881367481
 20
45.51348998363108
 30
0
 11
-69.68360415590197
 21
43.01348998363108
 31
0
 12
-70.51617347144764
 22
43.01348998363108
 32
0
 13
-70.51617347144764
 23
43.01348998363108
 33
0
  0
LINE
  5
168
100
AcDbEntity
  8
dimensions
  6
ByBlock
 62
    0
370
   -2
100
AcDbLine
 10
-65.62499999999997
 20
-45.51348998363112
 11
-71.34988881367481
 21
-45.51348998363113
  0
LINE
  5
169
100
AcDbEntity
  8
dimensions
  6
ByBlock
 62
    0
370
   -2
100
AcDbLine
 10
-65.62499999999994
 20
45.51348998363108
 11
-71.34988881367481
 21
45.51348998363108
  0
ENDBLK
  5
8D
330
8B
100
AcDbEntity
  8
0
100
AcDbBlockEnd
  0
BLOCK
  5
8F
330
8E
100
AcDbEntity
  8
0
100
AcDbBlockBegin
  2
*D41
 70
    1
 10
0
 20
0
  3
*D41
  1

  0
LINE
  5
16A
100
AcDbEntity
  8
dimensions1
  6
ByBlock
 62
    0
370
   -2
100
AcDbLine
 10
65.62499999999999
 20
-45.51348998363111
 11
66.24999999999999
 21
-45.51348998363111
  0
LINE
  5
16B
100
AcDbEntity
  8
dimensions1
  6
ByBlock
 62
    0
370
   -2
100
AcDbLine
 10
95.62499999999997
 20
-66.51971612992239
 11
96.24999999999997
 21
-66.51971612992239
  0
LINE
  5
16C
100
AcDbEntity
  8
dimensions1
  6
ByBlock
 62
    0
370
   -2
100
AcDbLine
 10
64.99999999999999
 20
-45.51348998363111
 11
94.99999999999997
 21
-66.51971612992239
  0
MTEXT
  5
16D
100
AcDbEntity
  8
dimensions1
  6
CONTINUOUS
 62
    0
370
   -2
100
AcDbMText
 10
81.07545581815818
 20
-54.48069297373488
 30
0
 40
2.5
 41
11.66666666666729
 71
    5
 72
    1
  1
36.6232
  7
standard
210
0
220
0
230
1
 50
325.0000000000001
 73
    2
 44
1
  0
SOLID
  5
16E
100
AcDbEntity
  8
dimensions1
  6
ByBlock
 62
    0
370
   -2
100
AcDbTrace
 10
64.99999999999999
 20
-45.51348998363111
 30
0
 11
67.28665118123543
 21
-46.60643064608796
 31
0
 12
66.80910904020951
 22
-47.28843150292949
 32
0
 13
66.80910904020951
 23
-47.28843150292949
 33
0
  0
SOLID
  5
16F
100
AcDbEntity
  8
dimensions1
  6
ByBlock
 62
    0
370
   -2
100
AcDbTrace
 10
94.99999999999997
 20
-66.51971612992239
 30
0
 11
92.71334881876453
 21
-65.42677546746553
 31
0
 12
93.19089095979045
 22
-64.74477461062401
 32
0
 13
93.19089095979045
 23
-64.74477461062401
 33
0
  0
ENDBLK
  5
90
330
8E
100
AcDbEntity
  8
0
100
AcDbBlockEnd
  0
BLOCK
  5
92
330
91
100
AcDbEntity
  8
0
100
AcDbBlockBegin
  2
*D20
 70
    1
 10
0
 20
0
  3
*D20
  1

  0
LINE
  5
170
100
AcDbEntity
  8
dimensions
  6
ByBlock
 62
    0
370
   -2
100
AcDbLine
 10
42.23967659285533
 20
-24.50726383733983
 11
42.23967659285533
 21
24.50726383733985
  0
MTEXT
  5
171
100
AcDbEntity
  8
dimensions
  6
CONTINUOUS
 62
    0
370
   -2
100
AcDbMText
 10
40.36467659285533
 20
1.08877547277432e-014
 30
0
 40
2.5
 41
11.66666666666682
 71
    5
 72
    1
  1
49.0145
  7
standard
210
0
220
0
230
1
 50
90
 73
    2
 44
1
  0
SOLID
  5
172
100
AcDbEntity
  8
dimensions
  6
ByBlock
 62
    0
370
   -2
100
AcDbTrace
 10
42.23967659285533
 20
-24.50726383733983
 30
0
 11
41.82339193508249
 21
-22.00726383733983
 31
0
 12
42.65596125062817
 22
-22.00726383733983
 32
0
 13
42.65596125062817
 23
-22.00726383733983
 33
0
  0
SOLID
  5
173
100
AcDbEntity
  8
dimensions
  6
ByBlock
 62
    0
370
   -2
100
AcDbTrace
 10
42.23967659285533
 20
24.50726383733985
 30
0
 11
42.65596125062817
 21
22.00726383733985
 31
0
 12
41.82339193508249
 22
22.00726383733985
 32
0
 13
41.82339193508249
 23
22.00726383733985
 33
0
  0
LINE
  5
174
100
AcDbEntity
  8
dimensions
  6
ByBlock
 62
    0
370
   -2
100
AcDbLine
 10
35.62499999999999
 20
-24.50726383733983
 11
43.48967659285533
 21
-24.50726383733983
  0
LINE
  5
175
100
AcDbEntity
  8
dimensions
  6
ByBlock
 62
    0
370
   -2
100
AcDbLine
 10
35.62500000000001
 20
24.50726383733985
 11
43.48967659285533
 21
24.50726383733985
  0
ENDBLK
  5
93
330
91
100
AcDbEntity
  8
0
100
AcDbBlockEnd
  0
BLOCK
  5
95
330
94
100
AcDbEntity
  8
0
100
AcDbBlockBegin
  2
*D25
 70
    1
 10
0
 20
0
  3
*D25
  1

  0
ARC
  5
176
100
AcDbEntity
  8
dimensions1
  6
ByBlock
 62
    0
370
   -2
100
AcDbCircle
 10
0
 20
-0
 40
199.5110198482986
100
AcDbArc
 50
0
 51
35.00000000000001
  0
SOLID
  5
177
100
AcDbEntity
  8
dimensions1
  6
ByBlock
 62
    0
370
   -2
100
AcDbTrace
 10
199.5110198482986
 20
0
 30
0
 11
199.0790801682344
 21
2.497342793667516
 31
0
 12
199.9116331429078
 22
2.502559071126865
 32
0
 13
199.9116331429078
 23
2.502559071126865
 33
0
  0
SOLID
  5
178
100
AcDbEntity
  8
dimensions1
  6
ByBlock
 62
    0
370
   -2
100
AcDbTrace
 10
163.4298597669154
 20
114.43481977735
 30
0
 11
165.1934318799389
 21
112.6146257441593
 31
0
 12
164.50845247492
 22
112.141365900217
 32
0
 13
164.50845247492
 23
112.141365900217
 33
0
  0
MTEXT
  5
179
100
AcDbEntity
  8
dimensions1
  6
CONTINUOUS
 62
    0
370
   -2
100
AcDbMText
 10
190.873114584606
 20
60.18206185808572
 30
0
 40
2.5
 41
4.722222222222532
 71
    8
 72
    1
  1
35%%D
  7
standard
210
0
220
0
230
1
 50
287.5000000000001
 73
    2
 44
1
  0
ENDBLK
  5
96
330
94
100
AcDbEntity
  8
0
100
AcDbBlockEnd
  0
BLOCK
  5
98
330
97
100
AcDbEntity
  8
0
100
AcDbBlockBegin
  2
*D35
 70
    1
 10
0
 20
0
  3
*D35
  1

  0
LINE
  5
17A
100
AcDbEntity
  8
dimensions1
  6
ByBlock
 62
    0
370
   -2
100
AcDbLine
 10
-64.37499999999994
 20
45.51348998363108
 11
-63.74999999999994
 21
45.51348998363108
  0
LINE
  5
17B
100
AcDbEntity
  8
dimensions1
  6
ByBlock
 62
    0
370
   -2
100
AcDbLine
 10
-94.37499999999987
 20
66.51971612992232
 11
-93.74999999999987
 21
66.51971612992232
  0
LINE
  5
17C
100
AcDbEntity
  8
dimensions1
  6
ByBlock
 62
    0
370
   -2
100
AcDbLine
 10
-64.99999999999994
 20
45.51348998363108
 11
-94.99999999999987
 21
66.51971612992232
  0
MTEXT
  5
17D
100
AcDbEntity
  8
dimensions1
  6
CONTINUOUS
 62
    0
370
   -2
100
AcDbMText
 10
-78.9245441818417
 20
57.55251313981856
 30
0
 40
2.5
 41
11.66666666666729
 71
    5
 72
    1
  1
36.6232
  7
standard
210
0
220
0
230
1
 50
325.0000000000001
 73
    2
 44
1
  0
SOLID
  5
17E
100
AcDbEntity
  8
dimensions1
  6
ByBlock
 62
    0
370
   -2
100
AcDbTrace
 10
-64.99999999999994
 20
45.51348998363108
 30
0
 11
-67.28665118123538
 21
46.60643064608792
 31
0
 12
-66.80910904020946
 22
47.28843150292946
 32
0
 13
-66.80910904020946
 23
47.28843150292946
 33
0
  0
SOLID
  5
17F
100
AcDbEntity
  8
dimensions1
  6
ByBlock
 62
    0
370
   -2
100
AcDbTrace
 10
-94.99999999999987
 20
66.51971612992232
 30
0
 11
-92.71334881876443
 21
65.42677546746546
 31
0
 12
-93.19089095979035
 22
64.74477461062394
 32
0
 13
-93.19089095979035
 23
64.74477461062394
 33
0
  0
ENDBLK
  5
99
330
97
100
AcDbEntity
  8
0
100
AcDbBlockEnd
  0
BLOCK
  5
9B
330
9A
100
AcDbEntity
  8
0
100
AcDbBlockBegin
  2
*D43
 70
    1
 10
0
 20
0
  3
*D43
  1

  0
LINE
  5
180
100
AcDbEntity
  8
dimensions1
  6
ByBlock
 62
    0
370
   -2
100
AcDbLine
 10
-23.88226383733986
 20
-35.00000000000002
 11
-23.25726383733986
 21
-35.00000000000002
  0
LINE
  5
181
100
AcDbEntity
  8
dimensions1
  6
ByBlock
 62
    0
370
   -2
100
AcDbLine
 10
-41.38745229258261
 20
-60.00000000000003
 11
-40.76245229258261
 21
-60.00000000000003
  0
LINE
  5
182
100
AcDbEntity
  8
dimensions1
  6
ByBlock
 62
    0
370
   -2
100
AcDbLine
 10
-24.50726383733986
 20
-35.00000000000002
 11
-42.01245229258261
 21
-60.00000000000003
  0
MTEXT
  5
183
100
AcDbEntity
  8
dimensions1
  6
CONTINUOUS
 62
    0
370
   -2
100
AcDbMText
 10
-34.7957681480031
 20
-46.42454418184182
 30
0
 40
2.5
 41
11.3888888888892
 71
    5
 72
    1
  1
30.5194
  7
standard
210
0
220
0
230
1
 50
54.99999999999999
 73
    2
 44
1
  0
SOLID
  5
184
100
AcDbEntity
  8
dimensions1
  6
ByBlock
 62
    0
370
   -2
100
AcDbTrace
 10
-24.50726383733986
 20
-35.00000000000002
 30
0
 11
-25.60020449979671
 21
-37.28665118123546
 31
0
 12
-26.28220535663824
 22
-36.80910904020954
 32
0
 13
-26.28220535663824
 23
-36.80910904020954
 33
0
  0
SOLID
  5
185
100
AcDbEntity
  8
dimensions1
  6
ByBlock
 62
    0
370
   -2
100
AcDbTrace
 10
-42.01245229258261
 20
-60.00000000000003
 30
0
 11
-40.91951163012576
 21
-57.71334881876459
 31
0
 12
-40.23751077328423
 22
-58.19089095979051
 32
0
 13
-40.23751077328423
 23
-58.19089095979051
 33
0
  0
ENDBLK
  5
9C
330
9A
100
AcDbEntity
  8
0
100
AcDbBlockEnd
  0
BLOCK
  5
9E
330
9D
100
AcDbEntity
  8
0
100
AcDbBlockBegin
  2
*D37
 70
    1
 10
0
 20
0
  3
*D37
  1

  0
LINE
  5
186
100
AcDbEntity
  8
dimensions1
  6
ByBlock
 62
    0
370
   -2
100
AcDbLine
 10
25.13226383733985
 20
35.00000000000001
 11
25.75726383733985
 21
35.00000000000001
  0
LINE
  5
187
100
AcDbEntity
  8
dimensions1
  6
ByBlock
 62
    0
370
   -2
100
AcDbLine
 10
42.63745229258259
 20
60
 11
43.26245229258259
 21
60
  0
LINE
  5
188
100
AcDbEntity
  8
dimensions1
  6
ByBlock
 62
    0
370
   -2
100
AcDbLine
 10
24.50726383733985
 20
35.00000000000001
 11
42.01245229258259
 21
60
  0
MTEXT
  5
189
100
AcDbEntity
  8
dimensions1
  6
CONTINUOUS
 62
    0
370
   -2
100
AcDbMText
 10
31.72394798191936
 20
48.57545581815821
 30
0
 40
2.5
 41
11.3888888888892
 71
    5
 72
    1
  1
30.5194
  7
standard
210
0
220
0
230
1
 50
54.99999999999999
 73
    2
 44
1
  0
SOLID
  5
18A
100
AcDbEntity
  8
dimensions1
  6
ByBlock
 62
    0
370
   -2
100
AcDbTrace
 10
24.50726383733985
 20
35.00000000000001
 30
0
 11
25.6002044997967
 21
37.28665118123545
 31
0
 12
26.28220535663823
 22
36.80910904020953
 32
0
 13
26.28220535663823
 23
36.80910904020953
 33
0
  0
SOLID
  5
18B
100
AcDbEntity
  8
dimensions1
  6
ByBlock
 62
    0
370
   -2
100
AcDbTrace
 10
42.01245229258259
 20
60
 30
0
 11
40.91951163012574
 21
57.71334881876456
 31
0
 12
40.23751077328421
 22
58.19089095979048
 32
0
 13
40.23751077328421
 23
58.19089095979048
 33
0
  0
ENDBLK
  5
9F
330
9D
100
AcDbEntity
  8
0
100
AcDbBlockEnd
  0
BLOCK
  5
A1
330
A0
100
AcDbEntity
  8
0
100
AcDbBlockBegin
  2
*D23
 70
    1
 10
0
 20
0
  3
*D23
  1

  0
LINE
  5
18C
100
AcDbEntity
  8
dimensions
  6
ByBlock
 62
    0
370
   -2
100
AcDbLine
 10
88.52357754034576
 20
66.51971612992244
 11
88.52357754034576
 21
-66.51971612992239
  0
MTEXT
  5
18D
100
AcDbEntity
  8
dimensions
  6
CONTINUOUS
 62
    0
370
   -2
100
AcDbMText
 10
86.64857754034576
 20
2.86513231217457e-014
 30
0
 40
2.5
 41
13.3333333333338
 71
    5
 72
    1
  1
133.0394
  7
standard
210
0
220
0
230
1
 50
90
 73
    2
 44
1
  0
SOLID
  5
18E
100
AcDbEntity
  8
dimensions
  6
ByBlock
 62
    0
370
   -2
100
AcDbTrace
 10
88.52357754034576
 20
66.51971612992244
 30
0
 11
88.93986219811859
 21
64.01971612992244
 31
0
 12
88.10729288257292
 22
64.01971612992244
 32
0
 13
88.10729288257292
 23
64.01971612992244
 33
0
  0
SOLID
  5
18F
100
AcDbEntity
  8
dimensions
  6
ByBlock
 62
    0
370
   -2
100
AcDbTrace
 10
88.52357754034576
 20
-66.51971612992239
 30
0
 11
88.10729288257292
 21
-64.01971612992239
 31
0
 12
88.93986219811859
 22
-64.01971612992239
 32
0
 13
88.93986219811859
 23
-64.01971612992239
 33
0
  0
LINE
  5
190
100
AcDbEntity
  8
dimensions
  6
ByBlock
 62
    0
370
   -2
100
AcDbLine
 10
94.37500000000001
 20
66.51971612992244
 11
87.27357754034576
 21
66.51971612992244
  0
LINE
  5
191
100
AcDbEntity
  8
dimensions
  6
ByBlock
 62
    0
370
   -2
100
AcDbLine
 10
94.37499999999997
 20
-66.51971612992239
 11
87.27357754034576
 21
-66.51971612992239
  0
ENDBLK
  5
A2
330
A0
100
AcDbEntity
  8
0
100
AcDbBlockEnd
  0
BLOCK
  5
A4
330
A3
100
AcDbEntity
  8
0
100
AcDbBlockBegin
  2
*D22
 70
    1
 10
0
 20
0
  3
*D22
  1

  0
LINE
  5
192
100
AcDbEntity
  8
dimensions
  6
ByBlock
 62
    0
370
   -2
100
AcDbLine
 10
71.89732186017929
 20
-45.51348998363112
 11
71.89732186017929
 21
45.51348998363115
  0
MTEXT
  5
193
100
AcDbEntity
  8
dimensions
  6
CONTINUOUS
 62
    0
370
   -2
100
AcDbMText
 10
70.02232186017929
 20
1.44404684065437e-014
 30
0
 40
2.5
 41
11.11111111111127
 71
    5
 72
    1
  1
91.0270
  7
standard
210
0
220
0
230
1
 50
90
 73
    2
 44
1
  0
SOLID
  5
194
100
AcDbEntity
  8
dimensions
  6
ByBlock
 62
    0
370
   -2
100
AcDbTrace
 10
71.89732186017929
 20
-45.51348998363112
 30
0
 11
71.48103720240645
 21
-43.01348998363112
 31
0
 12
72.31360651795212
 22
-43.01348998363112
 32
0
 13
72.31360651795212
 23
-43.01348998363112
 33
0
  0
SOLID
  5
195
100
AcDbEntity
  8
dimensions
  6
ByBlock
 62
    0
370
   -2
100
AcDbTrace
 10
71.89732186017929
 20
45.51348998363115
 30
0
 11
72.31360651795212
 21
43.01348998363115
 31
0
 12
71.48103720240645
 22
43.01348998363115
 32
0
 13
71.48103720240645
 23
43.01348998363115
 33
0
  0
LINE
  5
196
100
AcDbEntity
  8
dimensions
  6
ByBlock
 62
    0
370
   -2
100
AcDbLine
 10
65.62499999999999
 20
-45.51348998363111
 11
73.14732186017929
 21
-45.51348998363112
  0
LINE
  5
197
100
AcDbEntity
  8
dimensions
  6
ByBlock
 62
    0
370
   -2
100
AcDbLine
 10
65.62500000000001
 20
45.51348998363115
 11
73.14732186017929
 21
45.51348998363115
  0
ENDBLK
  5
A5
330
A3
100
AcDbEntity
  8
0
100
AcDbBlockEnd
  0
BLOCK
  5
A7
330
A6
100
AcDbEntity
  8
0
100
AcDbBlockBegin
  2
*D9
 70
    1
 10
0
 20
0
  3
*D9
  1

  0
LINE
  5
198
100
AcDbEntity
  8
dimensions
  6
ByBlock
 62
    0
370
   -2
100
AcDbLine
 10
24.50726383733985
 20
-43.5877513777337
 11
-24.50726383733986
 21
-43.5877513777337
  0
MTEXT
  5
199
100
AcDbEntity
  8
dimensions
  6
CONTINUOUS
 62
    0
370
   -2
100
AcDbMText
 10
-3.437906833129653e-015
 20
-41.7127513777337
 30
0
 40
2.5
 41
11.66666666666682
 71
    5
 72
    1
  1
49.0145
  7
standard
210
0
220
0
230
1
 50
0
 73
    2
 44
1
  0
SOLID
  5
19A
100
AcDbEntity
  8
dimensions
  6
ByBlock
 62
    0
370
   -2
100
AcDbTrace
 10
24.50726383733985
 20
-43.5877513777337
 30
0
 11
22.00726383733985
 21
-44.00403603550654
 31
0
 12
22.00726383733985
 22
-43.17146671996085
 32
0
 13
22.00726383733985
 23
-43.17146671996085
 33
0
  0
SOLID
  5
19B
100
AcDbEntity
  8
dimensions
  6
ByBlock
 62
    0
370
   -2
100
AcDbTrace
 10
-24.50726383733986
 20
-43.5877513777337
 30
0
 11
-22.00726383733986
 21
-43.17146671996085
 31
0
 12
-22.00726383733986
 22
-44.00403603550654
 32
0
 13
-22.00726383733986
 23
-44.00403603550654
 33
0
  0
LINE
  5
19C
100
AcDbEntity
  8
dimensions
  6
ByBlock
 62
    0
370
   -2
100
AcDbLine
 10
24.50726383733985
 20
-35.62500000000001
 11
24.50726383733985
 21
-44.8377513777337
  0
LINE
  5
19D
100
AcDbEntity
  8
dimensions
  6
ByBlock
 62
    0
370
   -2
100
AcDbLine
 10
-24.50726383733986
 20
-35.62500000000002
 11
-24.50726383733986
 21
-44.8377513777337
  0
ENDBLK
  5
A8
330
A6
100
AcDbEntity
  8
0
100
AcDbBlockEnd
  0
BLOCK
  5
AA
330
A9
100
AcDbEntity
  8
0
100
AcDbBlockBegin
  2
*D8
 70
    1
 10
0
 20
0
  3
*D8
  1

  0
LINE
  5
19E
100
AcDbEntity
  8
dimensions
  6
ByBlock
 62
    0
370
   -2
100
AcDbLine
 10
-42.01245229258259
 20
-54.82170791838671
 11
42.01245229258261
 21
-54.82170791838671
  0
MTEXT
  5
19F
100
AcDbEntity
  8
dimensions
  6
CONTINUOUS
 62
    0
370
   -2
100
AcDbMText
 10
7.22023420327185e-015
 20
-52.94670791838671
 30
0
 40
2.5
 41
12.22222222222222
 71
    5
 72
    1
  1
84.0249
  7
standard
210
0
220
0
230
1
 50
0
 73
    2
 44
1
  0
SOLID
  5
1A0
100
AcDbEntity
  8
dimensions
  6
ByBlock
 62
    0
370
   -2
100
AcDbTrace
 10
-42.01245229258259
 20
-54.82170791838671
 30
0
 11
-39.51245229258259
 21
-54.40542326061387
 31
0
 12
-39.51245229258259
 22
-55.23799257615955
 32
0
 13
-39.51245229258259
 23
-55.23799257615955
 33
0
  0
SOLID
  5
1A1
100
AcDbEntity
  8
dimensions
  6
ByBlock
 62
    0
370
   -2
100
AcDbTrace
 10
42.01245229258261
 20
-54.82170791838671
 30
0
 11
39.51245229258261
 21
-55.23799257615955
 31
0
 12
39.51245229258261
 22
-54.40542326061387
 32
0
 13
39.51245229258261
 23
-54.40542326061387
 33
0
  0
LINE
  5
1A2
100
AcDbEntity
  8
dimensions
  6
ByBlock
 62
    0
370
   -2
100
AcDbLine
 10
-42.01245229258261
 20
-59.37500000000003
 11
-42.01245229258259
 21
-53.57170791838671
  0
LINE
  5
1A3
100
AcDbEntity
  8
dimensions
  6
ByBlock
 62
    0
370
   -2
100
AcDbLine
 10
42.01245229258261
 20
-59.37500000000001
 11
42.01245229258261
 21
-53.57170791838671
  0
ENDBLK
  5
AB
330
A9
100
AcDbEntity
  8
0
100
AcDbBlockEnd
  0
BLOCK
  5
AD
330
AC
100
AcDbEntity
  8
0
100
AcDbBlockBegin
  2
*D36
 70
    1
 10
0
 20
0
  3
*D36
  1

  0
LINE
  5
1A4
100
AcDbEntity
  8
dimensions1
  6
ByBlock
 62
    0
370
   -2
100
AcDbLine
 10
0.625
 20
0
 11
1.25
 21
0
  0
LINE
  5
1A5
100
AcDbEntity
  8
dimensions1
  6
ByBlock
 62
    0
370
   -2
100
AcDbLine
 10
21.63122614629129
 20
30
 11
22.25622614629129
 21
30
  0
LINE
  5
1A6
100
AcDbEntity
  8
dimensions1
  6
ByBlock
 62
    0
370
   -2
100
AcDbLine
 10
0
 20
0
 11
21.00622614629129
 21
30
  0
MTEXT
  5
1A7
100
AcDbEntity
  8
dimensions1
  6
CONTINUOUS
 62
    0
370
   -2
100
AcDbMText
 10
8.967202990103788
 20
16.07545581815821
 30
0
 40
2.5
 41
11.66666666666729
 71
    5
 72
    1
  1
36.6232
  7
standard
210
0
220
0
230
1
 50
54.99999999999999
 73
    2
 44
1
  0
SOLID
  5
1A8
100
AcDbEntity
  8
dimensions1
  6
ByBlock
 62
    0
370
   -2
100
AcDbTrace
 10
0
 20
0
 30
0
 11
1.092940662456851
 21
2.28665118123544
 31
0
 12
1.774941519298382
 22
1.809109040209518
 32
0
 13
1.774941519298382
 23
1.809109040209518
 33
0
  0
SOLID
  5
1A9
100
AcDbEntity
  8
dimensions1
  6
ByBlock
 62
    0
370
   -2
100
AcDbTrace
 10
21.00622614629129
 20
30
 30
0
 11
19.91328548383444
 21
27.71334881876456
 31
0
 12
19.23128462699291
 22
28.19089095979048
 32
0
 13
19.23128462699291
 23
28.19089095979048
 33
0
  0
ENDBLK
  5
AE
330
AC
100
AcDbEntity
  8
0
100
AcDbBlockEnd
  0
BLOCK
  5
B0
330
AF
100
AcDbEntity
  8
0
100
AcDbBlockBegin
  2
*D2
 70
    1
 10
0
 20
0
  3
*D2
  1

  0
LINE
  5
1AA
100
AcDbEntity
  8
dimensions
  6
ByBlock
 62
    0
370
   -2
100
AcDbLine
 10
66.51971612992244
 20
88.07421927871962
 11
-66.5197161299225
 21
88.07421927871962
  0
MTEXT
  5
1AB
100
AcDbEntity
  8
dimensions
  6
CONTINUOUS
 62
    0
370
   -2
100
AcDbMText
 10
-2.830690258473316e-014
 20
89.94921927871962
 30
0
 40
2.5
 41
13.3333333333338
 71
    5
 72
    1
  1
133.0394
  7
standard
210
0
220
0
230
1
 50
0
 73
    2
 44
1
  0
SOLID
  5
1AC
100
AcDbEntity
  8
dimensions
  6
ByBlock
 62
    0
370
   -2
100
AcDbTrace
 10
66.51971612992244
 20
88.07421927871962
 30
0
 11
64.01971612992244
 21
87.65793462094679
 31
0
 12
64.01971612992244
 22
88.49050393649246
 32
0
 13
64.01971612992244
 23
88.49050393649246
 33
0
  0
SOLID
  5
1AD
100
AcDbEntity
  8
dimensions
  6
ByBlock
 62
    0
370
   -2
100
AcDbTrace
 10
-66.5197161299225
 20
88.07421927871962
 30
0
 11
-64.0197161299225
 21
88.49050393649246
 31
0
 12
-64.0197161299225
 22
87.65793462094679
 32
0
 13
-64.0197161299225
 23
87.65793462094679
 33
0
  0
LINE
  5
1AE
100
AcDbEntity
  8
dimensions
  6
ByBlock
 62
    0
370
   -2
100
AcDbLine
 10
66.51971612992243
 20
94.375
 11
66.51971612992244
 21
86.82421927871962
  0
LINE
  5
1AF
100
AcDbEntity
  8
dimensions
  6
ByBlock
 62
    0
370
   -2
100
AcDbLine
 10
-66.5197161299225
 20
94.37500000000009
 11
-66.5197161299225
 21
86.82421927871962
  0
ENDBLK
  5
B1
330
AF
100
AcDbEntity
  8
0
100
AcDbBlockEnd
  0
BLOCK
  5
B3
330
B2
100
AcDbEntity
  8
0
100
AcDbBlockBegin
  2
*D1
 70
    1
 10
0
 20
0
  3
*D1
  1

  0
LINE
  5
1B0
100
AcDbEntity
  8
dimensions
  6
ByBlock
 62
    0
370
   -2
100
AcDbLine
 10
-70.02075382097104
 20
107.3966245286428
 11
70.02075382097098
 21
107.3966245286428
  0
MTEXT
  5
1B1
100
AcDbEntity
  8
dimensions
  6
CONTINUOUS
 62
    0
370
   -2
100
AcDbMText
 10
-2.830690258473316e-014
 20
109.2716245286428
 30
0
 40
2.5
 41
13.05555555555571
 71
    5
 72
    1
  1
140.0415
  7
standard
210
0
220
0
230
1
 50
0
 73
    2
 44
1
  0
SOLID
  5
1B2
100
AcDbEntity
  8
dimensions
  6
ByBlock
 62
    0
370
   -2
100
AcDbTrace
 10
-70.02075382097104
 20
107.3966245286428
 30
0
 11
-67.52075382097104
 21
107.8129091864157
 31
0
 12
-67.52075382097104
 22
106.98033987087
 32
0
 13
-67.52075382097104
 23
106.98033987087
 33
0
  0
SOLID
  5
1B3
100
AcDbEntity
  8
dimensions
  6
ByBlock
 62
    0
370
   -2
100
AcDbTrace
 10
70.02075382097098
 20
107.3966245286428
 30
0
 11
67.52075382097098
 21
106.98033987087
 31
0
 12
67.52075382097098
 22
107.8129091864157
 32
0
 13
67.52075382097098
 23
107.8129091864157
 33
0
  0
LINE
  5
1B4
100
AcDbEntity
  8
dimensions
  6
ByBlock
 62
    0
370
   -2
100
AcDbLine
 10
-70.02075382097105
 20
100.6250000000001
 11
-70.02075382097104
 21
108.6466245286428
  0
LINE
  5
1B5
100
AcDbEntity
  8
dimensions
  6
ByBlock
 62
    0
370
   -2
100
AcDbLine
 10
70.02075382097098
 20
100.625
 11
70.02075382097098
 21
108.6466245286428
  0
ENDBLK
  5
B4
330
B2
100
AcDbEntity
  8
0
100
AcDbBlockEnd
  0
BLOCK
  5
B6
330
B5
100
AcDbEntity
  8
0
100
AcDbBlockBegin
  2
*D5
 70
    1
 10
0
 20
0
  3
*D5
  1

  0
LINE
  5
1B6
100
AcDbEntity
  8
dimensions
  6
ByBlock
 62
    0
370
   -2
100
AcDbLine
 10
-24.50726383733988
 20
41.79031833122921
 11
24.50726383733985
 21
41.79031833122921
  0
MTEXT
  5
1B7
100
AcDbEntity
  8
dimensions
  6
CONTINUOUS
 62
    0
370
   -2
100
AcDbMText
 10
-1.764876154833166e-014
 20
43.66531833122921
 30
0
 40
2.5
 41
11.66666666666682
 71
    5
 72
    1
  1
49.0145
  7
standard
210
0
220
0
230
1
 50
0
 73
    2
 44
1
  0
SOLID
  5
1B8
100
AcDbEntity
  8
dimensions
  6
ByBlock
 62
    0
370
   -2
100
AcDbTrace
 10
-24.50726383733988
 20
41.79031833122921
 30
0
 11
-22.00726383733988
 21
42.20660298900205
 31
0
 12
-22.00726383733988
 22
41.37403367345637
 32
0
 13
-22.00726383733988
 23
41.37403367345637
 33
0
  0
SOLID
  5
1B9
100
AcDbEntity
  8
dimensions
  6
ByBlock
 62
    0
370
   -2
100
AcDbTrace
 10
24.50726383733985
 20
41.79031833122921
 30
0
 11
22.00726383733985
 21
41.37403367345637
 31
0
 12
22.00726383733985
 22
42.20660298900205
 32
0
 13
22.00726383733985
 23
42.20660298900205
 33
0
  0
LINE
  5
1BA
100
AcDbEntity
  8
dimensions
  6
ByBlock
 62
    0
370
   -2
100
AcDbLine
 10
-24.50726383733987
 20
35.62500000000004
 11
-24.50726383733989
 21
43.04031833122921
  0
LINE
  5
1BB
100
AcDbEntity
  8
dimensions
  6
ByBlock
 62
    0
370
   -2
100
AcDbLine
 10
24.50726383733985
 20
35.62500000000001
 11
24.50726383733985
 21
43.04031833122921
  0
ENDBLK
  5
B7
330
B5
100
AcDbEntity
  8
0
100
AcDbBlockEnd
  0
BLOCK
  5
B9
330
B8
100
AcDbEntity
  8
0
100
AcDbBlockBegin
  2
*D33
 70
    1
 10
0
 20
0
  3
*D33
  1

  0
LINE
  5
1BC
100
AcDbEntity
  8
dimensions1
  6
ByBlock
 62
    0
370
   -2
100
AcDbLine
 10
0.625
 20
0
 11
1.25
 21
0
  0
LINE
  5
1BD
100
AcDbEntity
  8
dimensions1
  6
ByBlock
 62
    0
370
   -2
100
AcDbLine
 10
-29.37499999999997
 20
21.00622614629126
 11
-28.74999999999997
 21
21.00622614629126
  0
LINE
  5
1BE
100
AcDbEntity
  8
dimensions1
  6
ByBlock
 62
    0
370
   -2
100
AcDbLine
 10
0
 20
0
 11
-29.99999999999997
 21
21.00622614629126
  0
MTEXT
  5
1BF
100
AcDbEntity
  8
dimensions1
  6
CONTINUOUS
 62
    0
370
   -2
100
AcDbMText
 10
-13.92454418184177
 20
12.03902315618749
 30
0
 40
2.5
 41
11.66666666666729
 71
    5
 72
    1
  1
36.6232
  7
standard
210
0
220
0
230
1
 50
325.0000000000001
 73
    2
 44
1
  0
SOLID
  5
1C0
100
AcDbEntity
  8
dimensions1
  6
ByBlock
 62
    0
370
   -2
100
AcDbTrace
 10
0
 20
0
 30
0
 11
-2.286651181235441
 21
1.092940662456849
 31
0
 12
-1.80910904020952
 22
1.77494151929838
 32
0
 13
-1.80910904020952
 23
1.77494151929838
 33
0
  0
SOLID
  5
1C1
100
AcDbEntity
  8
dimensions1
  6
ByBlock
 62
    0
370
   -2
100
AcDbTrace
 10
-29.99999999999997
 20
21.00622614629126
 30
0
 11
-27.71334881876453
 21
19.91328548383441
 31
0
 12
-28.19089095979045
 22
19.23128462699288
 32
0
 13
-28.19089095979045
 23
19.23128462699288
 33
0
  0
ENDBLK
  5
BA
330
B8
100
AcDbEntity
  8
0
100
AcDbBlockEnd
  0
BLOCK
  5
BC
330
BB
100
AcDbEntity
  8
0
100
AcDbBlockBegin
  2
*D31
 70
    1
 10
0
 20
0
  3
*D31
  1

  0
ARC
  5
1C2
100
AcDbEntity
  8
dimensions1
  6
ByBlock
 62
    0
370
   -2
100
AcDbCircle
 10
0
 20
0
 40
199.2254063994743
100
AcDbArc
 50
90
 51
125
  0
SOLID
  5
1C3
100
AcDbEntity
  8
dimensions1
  6
ByBlock
 62
    0
370
   -2
100
AcDbTrace
 10
1.219863492598208e-014
 20
199.2254063994743
 30
0
 11
-2.497338913848776
 21
198.7934442880877
 31
0
 12
-2.502562669367701
 22
199.6259972158745
 32
0
 13
-2.502562669367701
 23
199.6259972158745
 33
0
  0
SOLID
  5
1C4
100
AcDbEntity
  8
dimensions1
  6
ByBlock
 62
    0
370
   -2
100
AcDbTrace
 10
-114.2709986331994
 20
163.1958989264346
 30
0
 11
-112.4507887595313
 21
164.9594546902533
 31
0
 12
-111.9775350681499
 22
164.2744710344029
 32
0
 13
-111.9775350681499
 23
164.2744710344029
 33
0
  0
MTEXT
  5
1C5
100
AcDbEntity
  8
dimensions1
  6
CONTINUOUS
 62
    0
370
   -2
100
AcDbMText
 10
-60.09617623760782
 20
190.6007201971006
 30
0
 40
2.5
 41
4.722222222222532
 71
    8
 72
    1
  1
35%%D
  7
standard
210
0
220
0
230
1
 50
377.5
 73
    2
 44
1
  0
ENDBLK
  5
BD
330
BB
100
AcDbEntity
  8
0
100
AcDbBlockEnd
  0
BLOCK
  5
BF
330
BE
100
AcDbEntity
  8
0
100
AcDbBlockBegin
  2
*D46
 70
    1
 10
0
 20
0
  3
*D46
  1

  0
LINE
  5
1C6
100
AcDbEntity
  8
dimensions1
  6
ByBlock
 62
    0
370
   -2
100
AcDbLine
 10
-3.367667473011539e-015
 20
-55.00000000000003
 11
-4.286122238378322e-015
 21
-70.00000000000003
  0
MTEXT
  5
1C7
100
AcDbEntity
  8
dimensions1
  6
CONTINUOUS
 62
    0
370
   -2
100
AcDbMText
 10
-1.875000000000003
 20
-54.51388888888884
 30
0
 40
2.5
 41
9.722222222222378
 71
    5
 72
    1
  1
5.0000
  7
standard
210
0
220
0
230
1
 50
90
 73
    2
 44
1
  0
SOLID
  5
1C8
100
AcDbEntity
  8
dimensions1
  6
ByBlock
 62
    0
370
   -2
100
AcDbTrace
 10
-3.673819061467133e-015
 20
-60.00000000000003
 30
0
 11
-0.4162846577728437
 21
-57.50000000000003
 31
0
 12
0.4162846577728372
 22
-57.50000000000003
 32
0
 13
0.4162846577728372
 23
-57.50000000000003
 33
0
  0
SOLID
  5
1C9
100
AcDbEntity
  8
dimensions1
  6
ByBlock
 62
    0
370
   -2
100
AcDbTrace
 10
-3.979970649922728e-015
 20
-65.00000000000003
 30
0
 11
0.4162846577728364
 21
-67.50000000000003
 31
0
 12
-0.4162846577728446
 22
-67.50000000000003
 32
0
 13
-0.4162846577728446
 23
-67.50000000000003
 33
0
  0
LINE
  5
1CA
100
AcDbEntity
  8
dimensions1
  6
ByBlock
 62
    0
370
   -2
100
AcDbLine
 10
-0.6250000000000037
 20
-60.00000000000003
 11
-1.250000000000004
 21
-60.00000000000003
  0
LINE
  5
1CB
100
AcDbEntity
  8
dimensions1
  6
ByBlock
 62
    0
370
   -2
100
AcDbLine
 10
-0.625000000000004
 20
-65.00000000000003
 11
-1.250000000000004
 21
-65.00000000000003
  0
ENDBLK
  5
C0
330
BE
100
AcDbEntity
  8
0
100
AcDbBlockEnd
  0
BLOCK
  5
C2
330
C1
100
AcDbEntity
  8
0
100
AcDbBlockBegin
  2
*D55
 70
    1
 10
0
 20
0
  3
*D55
  1

  0
LINE
  5
1CC
100
AcDbEntity
  8
dimensions1
  6
ByBlock
 62
    0
370
   -2
100
AcDbLine
 10
-54.99999999999996
 20
0
 11
-69.99999999999996
 21
0
  0
MTEXT
  5
1CD
100
AcDbEntity
  8
dimensions1
  6
CONTINUOUS
 62
    0
370
   -2
100
AcDbMText
 10
-54.51388888888877
 20
1.875
 30
0
 40
2.5
 41
9.722222222222378
 71
    5
 72
    1
  1
5.0000
  7
standard
210
0
220
0
230
1
 50
0
 73
    2
 44
1
  0
SOLID
  5
1CE
100
AcDbEntity
  8
dimensions1
  6
ByBlock
 62
    0
370
   -2
100
AcDbTrace
 10
-59.99999999999996
 20
0
 30
0
 11
-57.49999999999996
 21
0.4162846577728402
 31
0
 12
-57.49999999999996
 22
-0.4162846577728408
 32
0
 13
-57.49999999999996
 23
-0.4162846577728408
 33
0
  0
SOLID
  5
1CF
100
AcDbEntity
  8
dimensions1
  6
ByBlock
 62
    0
370
   -2
100
AcDbTrace
 10
-64.99999999999996
 20
0
 30
0
 11
-67.49999999999996
 21
-0.4162846577728404
 31
0
 12
-67.49999999999996
 22
0.4162846577728404
 32
0
 13
-67.49999999999996
 23
0.4162846577728404
 33
0
  0
LINE
  5
1D0
100
AcDbEntity
  8
dimensions1
  6
ByBlock
 62
    0
370
   -2
100
AcDbLine
 10
-59.99999999999996
 20
0.625
 11
-59.99999999999996
 21
1.25
  0
LINE
  5
1D1
100
AcDbEntity
  8
dimensions1
  6
ByBlock
 62
    0
370
   -2
100
AcDbLine
 10
-64.99999999999996
 20
0.625
 11
-64.99999999999996
 21
1.25
  0
ENDBLK
  5
C3
330
C1
100
AcDbEntity
  8
0
100
AcDbBlockEnd
  0
BLOCK
  5
C5
330
C4
100
AcDbEntity
  8
0
100
AcDbBlockBegin
  2
*D34
 70
    1
 10
0
 20
0
  3
*D34
  1

  0
LINE
  5
1D2
100
AcDbEntity
  8
dimensions1
  6
ByBlock
 62
    0
370
   -2
100
AcDbLine
 10
-34.37499999999996
 20
24.5072638373398
 11
-33.74999999999996
 21
24.5072638373398
  0
LINE
  5
1D3
100
AcDbEntity
  8
dimensions1
  6
ByBlock
 62
    0
370
   -2
100
AcDbLine
 10
-59.37499999999994
 20
42.01245229258252
 11
-58.74999999999994
 21
42.01245229258252
  0
LINE
  5
1D4
100
AcDbEntity
  8
dimensions1
  6
ByBlock
 62
    0
370
   -2
100
AcDbLine
 10
-34.99999999999996
 20
24.5072638373398
 11
-59.99999999999994
 21
42.01245229258252
  0
MTEXT
  5
1D5
100
AcDbEntity
  8
dimensions1
  6
CONTINUOUS
 62
    0
370
   -2
100
AcDbMText
 10
-46.42454418184173
 20
34.79576814800303
 30
0
 40
2.5
 41
11.3888888888892
 71
    5
 72
    1
  1
30.5194
  7
standard
210
0
220
0
230
1
 50
325.0000000000001
 73
    2
 44
1
  0
SOLID
  5
1D6
100
AcDbEntity
  8
dimensions1
  6
ByBlock
 62
    0
370
   -2
100
AcDbTrace
 10
-34.99999999999996
 20
24.5072638373398
 30
0
 11
-37.2866511812354
 21
25.60020449979665
 31
0
 12
-36.80910904020948
 22
26.28220535663818
 32
0
 13
-36.80910904020948
 23
26.28220535663818
 33
0
  0
SOLID
  5
1D7
100
AcDbEntity
  8
dimensions1
  6
ByBlock
 62
    0
370
   -2
100
AcDbTrace
 10
-59.99999999999994
 20
42.01245229258252
 30
0
 11
-57.71334881876449
 21
40.91951163012568
 31
0
 12
-58.19089095979042
 22
40.23751077328414
 32
0
 13
-58.19089095979042
 23
40.23751077328414
 33
0
  0
ENDBLK
  5
C6
330
C4
100
AcDbEntity
  8
0
100
AcDbBlockEnd
  0
BLOCK
  5
C8
330
C7
100
AcDbEntity
  8
0
100
AcDbBlockBegin
  2
*D11
 70
    1
 10
0
 20
0
  3
*D11
  1

  0
LINE
  5
1D8
100
AcDbEntity
  8
dimensions
  6
ByBlock
 62
    0
370
   -2
100
AcDbLine
 10
-66.51971612992249
 20
-88.52357754034576
 11
66.51971612992246
 21
-88.52357754034576
  0
MTEXT
  5
1D9
100
AcDbEntity
  8
dimensions
  6
CONTINUOUS
 62
    0
370
   -2
100
AcDbMText
 10
-1.409604786953116e-014
 20
-86.64857754034576
 30
0
 40
2.5
 41
13.3333333333338
 71
    5
 72
    1
  1
133.0394
  7
standard
210
0
220
0
230
1
 50
0
 73
    2
 44
1
  0
SOLID
  5
1DA
100
AcDbEntity
  8
dimensions
  6
ByBlock
 62
    0
370
   -2
100
AcDbTrace
 10
-66.51971612992249
 20
-88.52357754034576
 30
0
 11
-64.01971612992249
 21
-88.10729288257292
 31
0
 12
-64.01971612992249
 22
-88.93986219811859
 32
0
 13
-64.01971612992249
 23
-88.93986219811859
 33
0
  0
SOLID
  5
1DB
100
AcDbEntity
  8
dimensions
  6
ByBlock
 62
    0
370
   -2
100
AcDbTrace
 10
66.51971612992246
 20
-88.52357754034576
 30
0
 11
64.01971612992246
 21
-88.93986219811859
 31
0
 12
64.01971612992246
 22
-88.10729288257292
 32
0
 13
64.01971612992246
 23
-88.10729288257292
 33
0
  0
LINE
  5
1DC
100
AcDbEntity
  8
dimensions
  6
ByBlock
 62
    0
370
   -2
100
AcDbLine
 10
-66.51971612992247
 20
-94.37500000000006
 11
-66.51971612992249
 21
-87.27357754034576
  0
LINE
  5
1DD
100
AcDbEntity
  8
dimensions
  6
ByBlock
 62
    0
370
   -2
100
AcDbLine
 10
66.51971612992246
 20
-94.37500000000003
 11
66.51971612992246
 21
-87.27357754034576
  0
ENDBLK
  5
C9
330
C7
100
AcDbEntity
  8
0
100
AcDbBlockEnd
  0
BLOCK
  5
CB
330
CA
100
AcDbEntity
  8
0
100
AcDbBlockBegin
  2
*D14
 70
    1
 10
0
 20
0
  3
*D14
  1

  0
LINE
  5
1DE
100
AcDbEntity
  8
dimensions
  6
ByBlock
 62
    0
370
   -2
100
AcDbLine
 10
-40.44224354635085
 20
-24.50726383733983
 11
-40.44224354635085
 21
24.5072638373398
  0
MTEXT
  5
1DF
100
AcDbEntity
  8
dimensions
  6
CONTINUOUS
 62
    0
370
   -2
100
AcDbMText
 10
-42.31724354635085
 20
-1.398124102386031e-014
 30
0
 40
2.5
 41
11.66666666666682
 71
    5
 72
    1
  1
49.0145
  7
standard
210
0
220
0
230
1
 50
90
 73
    2
 44
1
  0
SOLID
  5
1E0
100
AcDbEntity
  8
dimensions
  6
ByBlock
 62
    0
370
   -2
100
AcDbTrace
 10
-40.44224354635085
 20
-24.50726383733983
 30
0
 11
-40.85852820412369
 21
-22.00726383733983
 31
0
 12
-40.02595888857801
 22
-22.00726383733983
 32
0
 13
-40.02595888857801
 23
-22.00726383733983
 33
0
  0
SOLID
  5
1E1
100
AcDbEntity
  8
dimensions
  6
ByBlock
 62
    0
370
   -2
100
AcDbTrace
 10
-40.44224354635085
 20
24.5072638373398
 30
0
 11
-40.02595888857801
 21
22.0072638373398
 31
0
 12
-40.85852820412369
 22
22.0072638373398
 32
0
 13
-40.85852820412369
 23
22.0072638373398
 33
0
  0
LINE
  5
1E2
100
AcDbEntity
  8
dimensions
  6
ByBlock
 62
    0
370
   -2
100
AcDbLine
 10
-35.62499999999997
 20
-24.50726383733982
 11
-41.69224354635085
 21
-24.50726383733983
  0
LINE
  5
1E3
100
AcDbEntity
  8
dimensions
  6
ByBlock
 62
    0
370
   -2
100
AcDbLine
 10
-35.62499999999996
 20
24.5072638373398
 11
-41.69224354635085
 21
24.5072638373398
  0
ENDBLK
  5
CC
330
CA
100
AcDbEntity
  8
0
100
AcDbBlockEnd
  0
BLOCK
  5
CE
330
CD
100
AcDbEntity
  8
0
100
AcDbBlockBegin
  2
*D7
 70
    1
 10
0
 20
0
  3
*D7
  1

  0
LINE
  5
1E4
100
AcDbEntity
  8
dimensions
  6
ByBlock
 62
    0
370
   -2
100
AcDbLine
 10
21.00622614629131
 20
-25.16406265106275
 11
-21.0062261462913
 21
-25.16406265106275
  0
MTEXT
  5
1E5
100
AcDbEntity
  8
dimensions
  6
CONTINUOUS
 62
    0
370
   -2
100
AcDbMText
 10
3.667520524471349e-015
 20
-23.28906265106275
 30
0
 40
2.5
 41
11.38888888888905
 71
    5
 72
    1
  1
42.0125
  7
standard
210
0
220
0
230
1
 50
0
 73
    2
 44
1
  0
SOLID
  5
1E6
100
AcDbEntity
  8
dimensions
  6
ByBlock
 62
    0
370
   -2
100
AcDbTrace
 10
21.00622614629131
 20
-25.16406265106275
 30
0
 11
18.50622614629131
 21
-25.58034730883559
 31
0
 12
18.50622614629131
 22
-24.74777799328991
 32
0
 13
18.50622614629131
 23
-24.74777799328991
 33
0
  0
SOLID
  5
1E7
100
AcDbEntity
  8
dimensions
  6
ByBlock
 62
    0
370
   -2
100
AcDbTrace
 10
-21.0062261462913
 20
-25.16406265106275
 30
0
 11
-18.5062261462913
 21
-24.74777799328991
 31
0
 12
-18.5062261462913
 22
-25.58034730883559
 32
0
 13
-18.5062261462913
 23
-25.58034730883559
 33
0
  0
LINE
  5
1E8
100
AcDbEntity
  8
dimensions
  6
ByBlock
 62
    0
370
   -2
100
AcDbLine
 10
21.0062261462913
 20
-29.37500000000001
 11
21.00622614629131
 21
-23.91406265106275
  0
LINE
  5
1E9
100
AcDbEntity
  8
dimensions
  6
ByBlock
 62
    0
370
   -2
100
AcDbLine
 10
-21.0062261462913
 20
-29.37500000000001
 11
-21.0062261462913
 21
-23.91406265106275
  0
ENDBLK
  5
CF
330
CD
100
AcDbEntity
  8
0
100
AcDbBlockEnd
  0
BLOCK
  5
D1
330
D0
100
AcDbEntity
  8
0
100
AcDbBlockBegin
  2
*D52
 70
    1
 10
0
 20
0
  3
*D52
  1

  0
LINE
  5
1EA
100
AcDbEntity
  8
dimensions1
  6
ByBlock
 62
    0
370
   -2
100
AcDbLine
 10
55
 20
6.123031769111886e-016
 11
70
 21
-6.123031769111886e-016
  0
MTEXT
  5
1EB
100
AcDbEntity
  8
dimensions1
  6
CONTINUOUS
 62
    0
370
   -2
100
AcDbMText
 10
70.48611111111119
 20
1.875
 30
0
 40
2.5
 41
9.722222222222378
 71
    5
 72
    1
  1
5.0000
  7
standard
210
0
220
0
230
1
 50
0
 73
    2
 44
1
  0
SOLID
  5
1EC
100
AcDbEntity
  8
dimensions1
  6
ByBlock
 62
    0
370
   -2
100
AcDbTrace
 10
60
 20
0
 30
0
 11
57.5
 21
-0.4162846577728404
 31
0
 12
57.5
 22
0.4162846577728404
 32
0
 13
57.5
 23
0.4162846577728404
 33
0
  0
SOLID
  5
1ED
100
AcDbEntity
  8
dimensions1
  6
ByBlock
 62
    0
370
   -2
100
AcDbTrace
 10
65
 20
0
 30
0
 11
67.5
 21
0.4162846577728402
 31
0
 12
67.5
 22
-0.4162846577728408
 32
0
 13
67.5
 23
-0.4162846577728408
 33
0
  0
LINE
  5
1EE
100
AcDbEntity
  8
dimensions1
  6
ByBlock
 62
    0
370
   -2
100
AcDbLine
 10
60
 20
0.625
 11
60
 21
1.25
  0
LINE
  5
1EF
100
AcDbEntity
  8
dimensions1
  6
ByBlock
 62
    0
370
   -2
100
AcDbLine
 10
65
 20
0.625
 11
65
 21
1.25
  0
ENDBLK
  5
D2
330
D0
100
AcDbEntity
  8
0
100
AcDbBlockEnd
  0
BLOCK
  5
D4
330
D3
100
AcDbEntity
  8
0
100
AcDbBlockBegin
  2
*D27
 70
    1
 10
0
 20
0
  3
*D27
  1

  0
ARC
  5
1F0
100
AcDbEntity
  8
dimensions1
  6
ByBlock
 62
    0
370
   -2
100
AcDbCircle
 10
-0
 20
-0
 40
188.87217851441
100
AcDbArc
 50
270
 51
305
  0
SOLID
  5
1F1
100
AcDbEntity
  8
dimensions1
  6
ByBlock
 62
    0
370
   -2
100
AcDbTrace
 10
-3.469411048035312e-014
 20
-188.87217851441
 30
0
 11
2.497190200386644
 21
-188.4393575128519
 31
0
 12
2.502700297507701
 22
-189.2719085947789
 32
0
 13
2.502700297507701
 23
-189.2719085947789
 33
0
  0
SOLID
  5
1F2
100
AcDbEntity
  8
dimensions1
  6
ByBlock
 62
    0
370
   -2
100
AcDbTrace
 10
108.3326310781539
 20
-154.7150311393944
 30
0
 11
106.5118147682081
 21
-156.4779607697916
 31
0
 12
106.0387966928771
 22
-155.7928143871854
 32
0
 13
106.0387966928771
 23
-155.7928143871854
 33
0
  0
MTEXT
  5
1F3
100
AcDbEntity
  8
dimensions1
  6
CONTINUOUS
 62
    0
370
   -2
100
AcDbMText
 10
56.60701831959936
 20
-179.5345250797203
 30
0
 40
2.5
 41
4.722222222222532
 71
    8
 72
    1
  1
35%%D
  7
standard
210
0
220
0
230
1
 50
17.50000000000002
 73
    2
 44
1
  0
ENDBLK
  5
D5
330
D3
100
AcDbEntity
  8
0
100
AcDbBlockEnd
  0
BLOCK
  5
D7
330
D6
100
AcDbEntity
  8
0
100
AcDbBlockBegin
  2
*D56
 70
    1
 10
0
 20
0
  3
*D56
  1

  0
LINE
  5
1F4
100
AcDbEntity
  8
dimensions1
  6
ByBlock
 62
    0
370
   -2
100
AcDbLine
 10
-89.9999999999999
 20
0
 11
-104.9999999999999
 21
0
  0
MTEXT
  5
1F5
100
AcDbEntity
  8
dimensions1
  6
CONTINUOUS
 62
    0
370
   -2
100
AcDbMText
 10
-89.51388888888872
 20
1.875
 30
0
 40
2.5
 41
9.722222222222378
 71
    5
 72
    1
  1
5.0000
  7
standard
210
0
220
0
230
1
 50
0
 73
    2
 44
1
  0
SOLID
  5
1F6
100
AcDbEntity
  8
dimensions1
  6
ByBlock
 62
    0
370
   -2
100
AcDbTrace
 10
-94.9999999999999
 20
0
 30
0
 11
-92.4999999999999
 21
0.4162846577728402
 31
0
 12
-92.4999999999999
 22
-0.4162846577728408
 32
0
 13
-92.4999999999999
 23
-0.4162846577728408
 33
0
  0
SOLID
  5
1F7
100
AcDbEntity
  8
dimensions1
  6
ByBlock
 62
    0
370
   -2
100
AcDbTrace
 10
-99.99999999999991
 20
0
 30
0
 11
-102.4999999999999
 21
-0.4162846577728404
 31
0
 12
-102.4999999999999
 22
0.4162846577728404
 32
0
 13
-102.4999999999999
 23
0.4162846577728404
 33
0
  0
LINE
  5
1F8
100
AcDbEntity
  8
dimensions1
  6
ByBlock
 62
    0
370
   -2
100
AcDbLine
 10
-94.9999999999999
 20
0.625
 11
-94.9999999999999
 21
1.25
  0
LINE
  5
1F9
100
AcDbEntity
  8
dimensions1
  6
ByBlock
 62
    0
370
   -2
100
AcDbLine
 10
-99.99999999999991
 20
0.625
 11
-99.99999999999991
 21
1.25
  0
ENDBLK
  5
D8
330
D6
100
AcDbEntity
  8
0
100
AcDbBlockEnd
  0
BLOCK
  5
DA
330
D9
100
AcDbEntity
  8
0
100
AcDbBlockBegin
  2
*D12
 70
    1
 10
0
 20
0
  3
*D12
  1

  0
LINE
  5
1FA
100
AcDbEntity
  8
dimensions
  6
ByBlock
 62
    0
370
   -2
100
AcDbLine
 10
-70.02075382097101
 20
-107.3966245286428
 11
70.02075382097101
 21
-107.3966245286428
  0
MTEXT
  5
1FB
100
AcDbEntity
  8
dimensions
  6
CONTINUOUS
 62
    0
370
   -2
100
AcDbMText
 10
1.148068456708479e-016
 20
-105.5216245286428
 30
0
 40
2.5
 41
13.05555555555571
 71
    5
 72
    1
  1
140.0415
  7
standard
210
0
220
0
230
1
 50
0
 73
    2
 44
1
  0
SOLID
  5
1FC
100
AcDbEntity
  8
dimensions
  6
ByBlock
 62
    0
370
   -2
100
AcDbTrace
 10
-70.02075382097101
 20
-107.3966245286428
 30
0
 11
-67.52075382097101
 21
-106.98033987087
 31
0
 12
-67.52075382097101
 22
-107.8129091864157
 32
0
 13
-67.52075382097101
 23
-107.8129091864157
 33
0
  0
SOLID
  5
1FD
100
AcDbEntity
  8
dimensions
  6
ByBlock
 62
    0
370
   -2
100
AcDbTrace
 10
70.02075382097101
 20
-107.3966245286428
 30
0
 11
67.52075382097101
 21
-107.8129091864157
 31
0
 12
67.52075382097101
 22
-106.98033987087
 32
0
 13
67.52075382097101
 23
-106.98033987087
 33
0
  0
LINE
  5
1FE
100
AcDbEntity
  8
dimensions
  6
ByBlock
 62
    0
370
   -2
100
AcDbLine
 10
-70.02075382097102
 20
-100.6250000000001
 11
-70.02075382097101
 21
-108.6466245286428
  0
LINE
  5
1FF
100
AcDbEntity
  8
dimensions
  6
ByBlock
 62
    0
370
   -2
100
AcDbLine
 10
70.02075382097101
 20
-100.625
 11
70.02075382097101
 21
-108.6466245286428
  0
ENDBLK
  5
DB
330
D9
100
AcDbEntity
  8
0
100
AcDbBlockEnd
  0
BLOCK
  5
DD
330
DC
100
AcDbEntity
  8
0
100
AcDbBlockBegin
  2
*D44
 70
    1
 10
0
 20
0
  3
*D44
  1

  0
LINE
  5
200
100
AcDbEntity
  8
dimensions1
  6
ByBlock
 62
    0
370
   -2
100
AcDbLine
 10
-44.88848998363117
 20
-65.00000000000004
 11
-44.26348998363117
 21
-65.00000000000004
  0
LINE
  5
201
100
AcDbEntity
  8
dimensions1
  6
ByBlock
 62
    0
370
   -2
100
AcDbLine
 10
-65.89471612992247
 20
-95.00000000000006
 11
-65.26971612992247
 21
-95.00000000000006
  0
LINE
  5
202
100
AcDbEntity
  8
dimensions1
  6
ByBlock
 62
    0
370
   -2
100
AcDbLine
 10
-45.51348998363117
 20
-65.00000000000004
 11
-66.51971612992247
 21
-95.00000000000006
  0
MTEXT
  5
203
100
AcDbEntity
  8
dimensions1
  6
CONTINUOUS
 62
    0
370
   -2
100
AcDbMText
 10
-57.55251313981868
 20
-78.92454418184184
 30
0
 40
2.5
 41
11.66666666666729
 71
    5
 72
    1
  1
36.6232
  7
standard
210
0
220
0
230
1
 50
54.99999999999999
 73
    2
 44
1
  0
SOLID
  5
204
100
AcDbEntity
  8
dimensions1
  6
ByBlock
 62
    0
370
   -2
100
AcDbTrace
 10
-45.51348998363117
 20
-65.00000000000004
 30
0
 11
-46.60643064608801
 21
-67.28665118123548
 31
0
 12
-47.28843150292955
 22
-66.80910904020956
 32
0
 13
-47.28843150292955
 23
-66.80910904020956
 33
0
  0
SOLID
  5
205
100
AcDbEntity
  8
dimensions1
  6
ByBlock
 62
    0
370
   -2
100
AcDbTrace
 10
-66.51971612992247
 20
-95.00000000000006
 30
0
 11
-65.42677546746562
 21
-92.71334881876462
 31
0
 12
-64.74477461062409
 22
-93.19089095979054
 32
0
 13
-64.74477461062409
 23
-93.19089095979054
 33
0
  0
ENDBLK
  5
DE
330
DC
100
AcDbEntity
  8
0
100
AcDbBlockEnd
  0
BLOCK
  5
E0
330
DF
100
AcDbEntity
  8
0
100
AcDbBlockBegin
  2
*D38
 70
    1
 10
0
 20
0
  3
*D38
  1

  0
LINE
  5
206
100
AcDbEntity
  8
dimensions1
  6
ByBlock
 62
    0
370
   -2
100
AcDbLine
 10
46.13848998363115
 20
65.00000000000001
 11
46.76348998363115
 21
65.00000000000001
  0
LINE
  5
207
100
AcDbEntity
  8
dimensions1
  6
ByBlock
 62
    0
370
   -2
100
AcDbLine
 10
67.14471612992243
 20
95
 11
67.76971612992243
 21
95
  0
LINE
  5
208
100
AcDbEntity
  8
dimensions1
  6
ByBlock
 62
    0
370
   -2
100
AcDbLine
 10
45.51348998363115
 20
65.00000000000001
 11
66.51971612992243
 21
95
  0
MTEXT
  5
209
100
AcDbEntity
  8
dimensions1
  6
CONTINUOUS
 62
    0
370
   -2
100
AcDbMText
 10
54.48069297373493
 20
81.07545581815822
 30
0
 40
2.5
 41
11.66666666666729
 71
    5
 72
    1
  1
36.6232
  7
standard
210
0
220
0
230
1
 50
54.99999999999999
 73
    2
 44
1
  0
SOLID
  5
20A
100
AcDbEntity
  8
dimensions1
  6
ByBlock
 62
    0
370
   -2
100
AcDbTrace
 10
45.51348998363115
 20
65.00000000000001
 30
0
 11
46.60643064608799
 21
67.28665118123546
 31
0
 12
47.28843150292953
 22
66.80910904020953
 32
0
 13
47.28843150292953
 23
66.80910904020953
 33
0
  0
SOLID
  5
20B
100
AcDbEntity
  8
dimensions1
  6
ByBlock
 62
    0
370
   -2
100
AcDbTrace
 10
66.51971612992243
 20
95
 30
0
 11
65.42677546746557
 21
92.71334881876456
 31
0
 12
64.74477461062405
 22
93.19089095979048
 32
0
 13
64.74477461062405
 23
93.19089095979048
 33
0
  0
ENDBLK
  5
E1
330
DF
100
AcDbEntity
  8
0
100
AcDbBlockEnd
  0
BLOCK
  5
E3
330
E2
100
AcDbEntity
  8
0
100
AcDbBlockBegin
  2
*D10
 70
    1
 10
0
 20
0
  3
*D10
  1

  0
LINE
  5
20C
100
AcDbEntity
  8
dimensions
  6
ByBlock
 62
    0
370
   -2
100
AcDbLine
 10
-45.51348998363118
 20
-72.34668012180541
 11
45.51348998363115
 21
-72.34668012180541
  0
MTEXT
  5
20D
100
AcDbEntity
  8
dimensions
  6
CONTINUOUS
 62
    0
370
   -2
100
AcDbMText
 10
-1.409604786953116e-014
 20
-70.47168012180541
 30
0
 40
2.5
 41
11.11111111111127
 71
    5
 72
    1
  1
91.0270
  7
standard
210
0
220
0
230
1
 50
0
 73
    2
 44
1
  0
SOLID
  5
20E
100
AcDbEntity
  8
dimensions
  6
ByBlock
 62
    0
370
   -2
100
AcDbTrace
 10
-45.51348998363118
 20
-72.34668012180541
 30
0
 11
-43.01348998363118
 21
-71.93039546403257
 31
0
 12
-43.01348998363118
 22
-72.76296477957824
 32
0
 13
-43.01348998363118
 23
-72.76296477957824
 33
0
  0
SOLID
  5
20F
100
AcDbEntity
  8
dimensions
  6
ByBlock
 62
    0
370
   -2
100
AcDbTrace
 10
45.51348998363115
 20
-72.34668012180541
 30
0
 11
43.01348998363115
 21
-72.76296477957824
 31
0
 12
43.01348998363115
 22
-71.93039546403257
 32
0
 13
43.01348998363115
 23
-71.93039546403257
 33
0
  0
LINE
  5
210
100
AcDbEntity
  8
dimensions
  6
ByBlock
 62
    0
370
   -2
100
AcDbLine
 10
-45.51348998363117
 20
-65.62500000000004
 11
-45.51348998363118
 21
-73.59668012180541
  0
LINE
  5
211
100
AcDbEntity
  8
dimensions
  6
ByBlock
 62
    0
370
   -2
100
AcDbLine
 10
45.51348998363115
 20
-65.62500000000001
 11
45.51348998363115
 21
-73.59668012180541
  0
ENDBLK
  5
E4
330
E2
100
AcDbEntity
  8
0
100
AcDbBlockEnd
  0
BLOCK
  5
E6
330
E5
100
AcDbEntity
  8
0
100
AcDbBlockBegin
  2
*D47
 70
    1
 10
0
 20
0
  3
*D47
  1

  0
LINE
  5
212
100
AcDbEntity
  8
dimensions1
  6
ByBlock
 62
    0
370
   -2
100
AcDbLine
 10
-5.5107285922007e-015
 20
-90.00000000000004
 11
-6.429183357567483e-015
 21
-105
  0
MTEXT
  5
213
100
AcDbEntity
  8
dimensions1
  6
CONTINUOUS
 62
    0
370
   -2
100
AcDbMText
 10
-1.875000000000006
 20
-89.51388888888886
 30
0
 40
2.5
 41
9.722222222222378
 71
    5
 72
    1
  1
5.0000
  7
standard
210
0
220
0
230
1
 50
90
 73
    2
 44
1
  0
SOLID
  5
214
100
AcDbEntity
  8
dimensions1
  6
ByBlock
 62
    0
370
   -2
100
AcDbTrace
 10
-5.816880180656294e-015
 20
-95.00000000000004
 30
0
 11
-0.4162846577728458
 21
-92.50000000000004
 31
0
 12
0.4162846577728351
 22
-92.50000000000004
 32
0
 13
0.4162846577728351
 23
-92.50000000000004
 33
0
  0
SOLID
  5
215
100
AcDbEntity
  8
dimensions1
  6
ByBlock
 62
    0
370
   -2
100
AcDbTrace
 10
-6.123031769111889e-015
 20
-100
 30
0
 11
0.4162846577728342
 21
-102.5
 31
0
 12
-0.4162846577728467
 22
-102.5
 32
0
 13
-0.4162846577728467
 23
-102.5
 33
0
  0
LINE
  5
216
100
AcDbEntity
  8
dimensions1
  6
ByBlock
 62
    0
370
   -2
100
AcDbLine
 10
-0.6250000000000058
 20
-95.00000000000004
 11
-1.250000000000006
 21
-95.00000000000004
  0
LINE
  5
217
100
AcDbEntity
  8
dimensions1
  6
ByBlock
 62
    0
370
   -2
100
AcDbLine
 10
-0.6250000000000061
 20
-100
 11
-1.250000000000006
 21
-100
  0
ENDBLK
  5
E7
330
E5
100
AcDbEntity
  8
0
100
AcDbBlockEnd
  0
BLOCK
  5
E9
330
E8
100
AcDbEntity
  8
0
100
AcDbBlockBegin
  2
*D6
 70
    1
 10
0
 20
0
  3
*D6
  1

  0
LINE
  5
218
100
AcDbEntity
  8
dimensions
  6
ByBlock
 62
    0
370
   -2
100
AcDbLine
 10
-21.00622614629132
 20
22.91727134293215
 11
21.00622614629129
 21
22.91727134293215
  0
MTEXT
  5
219
100
AcDbEntity
  8
dimensions
  6
CONTINUOUS
 62
    0
370
   -2
100
AcDbMText
 10
-1.409604786953116e-014
 20
24.79227134293215
 30
0
 40
2.5
 41
11.38888888888905
 71
    5
 72
    1
  1
42.0125
  7
standard
210
0
220
0
230
1
 50
0
 73
    2
 44
1
  0
SOLID
  5
21A
100
AcDbEntity
  8
dimensions
  6
ByBlock
 62
    0
370
   -2
100
AcDbTrace
 10
-21.00622614629132
 20
22.91727134293215
 30
0
 11
-18.50622614629132
 21
23.33355600070499
 31
0
 12
-18.50622614629132
 22
22.50098668515931
 32
0
 13
-18.50622614629132
 23
22.50098668515931
 33
0
  0
SOLID
  5
21B
100
AcDbEntity
  8
dimensions
  6
ByBlock
 62
    0
370
   -2
100
AcDbTrace
 10
21.00622614629129
 20
22.91727134293215
 30
0
 11
18.50622614629129
 21
22.50098668515931
 31
0
 12
18.50622614629129
 22
23.33355600070499
 32
0
 13
18.50622614629129
 23
23.33355600070499
 33
0
  0
LINE
  5
21C
100
AcDbEntity
  8
dimensions
  6
ByBlock
 62
    0
370
   -2
100
AcDbLine
 10
-21.00622614629132
 20
29.37500000000003
 11
-21.00622614629132
 21
21.66727134293215
  0
LINE
  5
21D
100
AcDbEntity
  8
dimensions
  6
ByBlock
 62
    0
370
   -2
100
AcDbLine
 10
21.00622614629129
 20
29.375
 11
21.00622614629129
 21
21.66727134293215
  0
ENDBLK
  5
EA
330
E8
100
AcDbEntity
  8
0
100
AcDbBlockEnd
  0
BLOCK
  5
EC
330
EB
100
AcDbEntity
  8
0
100
AcDbBlockBegin
  2
*D53
 70
    1
 10
0
 20
0
  3
*D53
  1

  0
LINE
  5
21E
100
AcDbEntity
  8
dimensions1
  6
ByBlock
 62
    0
370
   -2
100
AcDbLine
 10
89.99999999999999
 20
6.123031769111886e-016
 11
105
 21
-6.123031769111886e-016
  0
MTEXT
  5
21F
100
AcDbEntity
  8
dimensions1
  6
CONTINUOUS
 62
    0
370
   -2
100
AcDbMText
 10
105.4861111111112
 20
1.875
 30
0
 40
2.5
 41
9.722222222222378
 71
    5
 72
    1
  1
5.0000
  7
standard
210
0
220
0
230
1
 50
0
 73
    2
 44
1
  0
SOLID
  5
220
100
AcDbEntity
  8
dimensions1
  6
ByBlock
 62
    0
370
   -2
100
AcDbTrace
 10
94.99999999999999
 20
0
 30
0
 11
92.49999999999999
 21
-0.4162846577728404
 31
0
 12
92.49999999999999
 22
0.4162846577728404
 32
0
 13
92.49999999999999
 23
0.4162846577728404
 33
0
  0
SOLID
  5
221
100
AcDbEntity
  8
dimensions1
  6
ByBlock
 62
    0
370
   -2
100
AcDbTrace
 10
100
 20
0
 30
0
 11
102.5
 21
0.4162846577728402
 31
0
 12
102.5
 22
-0.4162846577728408
 32
0
 13
102.5
 23
-0.4162846577728408
 33
0
  0
LINE
  5
222
100
AcDbEntity
  8
dimensions1
  6
ByBlock
 62
    0
370
   -2
100
AcDbLine
 10
94.99999999999999
 20
0.625
 11
94.99999999999999
 21
1.25
  0
LINE
  5
223
100
AcDbEntity
  8
dimensions1
  6
ByBlock
 62
    0
370
   -2
100
AcDbLine
 10
100
 20
0.625
 11
100
 21
1.25
  0
ENDBLK
  5
ED
330
EB
100
AcDbEntity
  8
0
100
AcDbBlockEnd
  0
BLOCK
  5
EF
330
EE
100
AcDbEntity
  8
0
100
AcDbBlockBegin
  2
*D15
 70
    1
 10
0
 20
0
  3
*D15
  1

  0
LINE
  5
224
100
AcDbEntity
  8
dimensions
  6
ByBlock
 62
    0
370
   -2
100
AcDbLine
 10
-53.47363313350834
 20
42.01245229258254
 11
-53.47363313350834
 21
-42.01245229258257
  0
MTEXT
  5
225
100
AcDbEntity
  8
dimensions
  6
CONTINUOUS
 62
    0
370
   -2
100
AcDbMText
 10
-55.34863313350834
 20
-1.398124102386031e-014
 30
0
 40
2.5
 41
12.22222222222222
 71
    5
 72
    1
  1
84.0249
  7
standard
210
0
220
0
230
1
 50
90
 73
    2
 44
1
  0
SOLID
  5
226
100
AcDbEntity
  8
dimensions
  6
ByBlock
 62
    0
370
   -2
100
AcDbTrace
 10
-53.47363313350834
 20
42.01245229258254
 30
0
 11
-53.05734847573549
 21
39.51245229258254
 31
0
 12
-53.88991779128118
 22
39.51245229258254
 32
0
 13
-53.88991779128118
 23
39.51245229258254
 33
0
  0
SOLID
  5
227
100
AcDbEntity
  8
dimensions
  6
ByBlock
 62
    0
370
   -2
100
AcDbTrace
 10
-53.47363313350834
 20
-42.01245229258257
 30
0
 11
-53.88991779128119
 21
-39.51245229258257
 31
0
 12
-53.0573484757355
 22
-39.51245229258257
 32
0
 13
-53.0573484757355
 23
-39.51245229258257
 33
0
  0
LINE
  5
228
100
AcDbEntity
  8
dimensions
  6
ByBlock
 62
    0
370
   -2
100
AcDbLine
 10
-59.37499999999994
 20
42.01245229258252
 11
-52.22363313350834
 21
42.01245229258254
  0
LINE
  5
229
100
AcDbEntity
  8
dimensions
  6
ByBlock
 62
    0
370
   -2
100
AcDbLine
 10
-59.37499999999996
 20
-42.01245229258257
 11
-52.22363313350834
 21
-42.01245229258257
  0
ENDBLK
  5
F0
330
EE
100
AcDbEntity
  8
0
100
AcDbBlockEnd
  0
BLOCK
  5
F2
330
F1
100
AcDbEntity
  8
0
100
AcDbBlockBegin
  2
*D28
 70
    1
 10
0
 20
0
  3
*D28
  1

  0
ARC
  5
22A
100
AcDbEntity
  8
dimensions1
  6
ByBlock
 62
    0
370
   -2
100
AcDbCircle
 10
0
 20
0
 40
188.5083347775924
100
AcDbArc
 50
235
 51
270
  0
SOLID
  5
22B
100
AcDbEntity
  8
dimensions1
  6
ByBlock
 62
    0
370
   -2
100
AcDbTrace
 10
-108.1239388842015
 20
-154.4169877985784
 30
0
 11
-105.8300907315258
 21
-155.4947417448776
 31
0
 12
-106.3031000547693
 22
-156.1798941697533
 32
0
 13
-106.3031000547693
 23
-156.1798941697533
 33
0
  0
SOLID
  5
22C
100
AcDbEntity
  8
dimensions1
  6
ByBlock
 62
    0
370
   -2
100
AcDbTrace
 10
-3.462727567756732e-014
 20
-188.5083347775924
 30
0
 11
-2.502705403449258
 21
-188.908032888475
 31
0
 12
-2.497184671334397
 22
-188.0754818770017
 32
0
 13
-2.497184671334397
 23
-188.0754818770017
 33
0
  0
MTEXT
  5
22D
100
AcDbEntity
  8
dimensions1
  6
CONTINUOUS
 62
    0
370
   -2
100
AcDbMText
 10
-56.49760839782505
 20
-179.1875211404937
 30
0
 40
2.5
 41
4.722222222222532
 71
    8
 72
    1
  1
35%%D
  7
standard
210
0
220
0
230
1
 50
-17.50000000000003
 73
    2
 44
1
  0
ENDBLK
  5
F3
330
F1
100
AcDbEntity
  8
0
100
AcDbBlockEnd
  0
BLOCK
  5
F5
330
F4
100
AcDbEntity
  8
0
100
AcDbBlockBegin
  2
*D51
 70
    1
 10
0
 20
0
  3
*D51
  1

  0
LINE
  5
22E
100
AcDbEntity
  8
dimensions1
  6
ByBlock
 62
    0
370
   -2
100
AcDbLine
 10
25
 20
6.123031769111886e-016
 11
40
 21
-6.123031769111886e-016
  0
MTEXT
  5
22F
100
AcDbEntity
  8
dimensions1
  6
CONTINUOUS
 62
    0
370
   -2
100
AcDbMText
 10
40.48611111111119
 20
1.875
 30
0
 40
2.5
 41
9.722222222222378
 71
    5
 72
    1
  1
5.0000
  7
standard
210
0
220
0
230
1
 50
0
 73
    2
 44
1
  0
SOLID
  5
230
100
AcDbEntity
  8
dimensions1
  6
ByBlock
 62
    0
370
   -2
100
AcDbTrace
 10
30
 20
0
 30
0
 11
27.5
 21
-0.4162846577728404
 31
0
 12
27.5
 22
0.4162846577728404
 32
0
 13
27.5
 23
0.4162846577728404
 33
0
  0
SOLID
  5
231
100
AcDbEntity
  8
dimensions1
  6
ByBlock
 62
    0
370
   -2
100
AcDbTrace
 10
35
 20
0
 30
0
 11
37.5
 21
0.4162846577728402
 31
0
 12
37.5
 22
-0.4162846577728408
 32
0
 13
37.5
 23
-0.4162846577728408
 33
0
  0
LINE
  5
232
100
AcDbEntity
  8
dimensions1
  6
ByBlock
 62
    0
370
   -2
100
AcDbLine
 10
30
 20
0.625
 11
30
 21
1.25
  0
LINE
  5
233
100
AcDbEntity
  8
dimensions1
  6
ByBlock
 62
    0
370
   -2
100
AcDbLine
 10
35
 20
0.625
 11
35
 21
1.25
  0
ENDBLK
  5
F6
330
F4
100
AcDbEntity
  8
0
100
AcDbBlockEnd
  0
BLOCK
  5
F8
330
F7
100
AcDbEntity
  8
0
100
AcDbBlockBegin
  2
*D18
 70
    1
 10
0
 20
0
  3
*D18
  1

  0
LINE
  5
234
100
AcDbEntity
  8
dimensions
  6
ByBlock
 62
    0
370
   -2
100
AcDbLine
 10
-106.9472662670167
 20
-70.02075382097097
 11
-106.9472662670167
 21
70.02075382097088
  0
MTEXT
  5
235
100
AcDbEntity
  8
dimensions
  6
CONTINUOUS
 62
    0
370
   -2
100
AcDbMText
 10
-108.8222662670167
 20
-4.240295045426432e-014
 30
0
 40
2.5
 41
13.05555555555571
 71
    5
 72
    1
  1
140.0415
  7
standard
210
0
220
0
230
1
 50
90
 73
    2
 44
1
  0
SOLID
  5
236
100
AcDbEntity
  8
dimensions
  6
ByBlock
 62
    0
370
   -2
100
AcDbTrace
 10
-106.9472662670167
 20
-70.02075382097097
 30
0
 11
-107.3635509247895
 21
-67.52075382097097
 31
0
 12
-106.5309816092439
 22
-67.52075382097097
 32
0
 13
-106.5309816092439
 23
-67.52075382097097
 33
0
  0
SOLID
  5
237
100
AcDbEntity
  8
dimensions
  6
ByBlock
 62
    0
370
   -2
100
AcDbTrace
 10
-106.9472662670167
 20
70.02075382097088
 30
0
 11
-106.5309816092439
 21
67.52075382097088
 31
0
 12
-107.3635509247895
 22
67.52075382097088
 32
0
 13
-107.3635509247895
 23
67.52075382097088
 33
0
  0
LINE
  5
238
100
AcDbEntity
  8
dimensions
  6
ByBlock
 62
    0
370
   -2
100
AcDbLine
 10
-100.6249999999999
 20
-70.02075382097094
 11
-108.1972662670167
 21
-70.02075382097097
  0
LINE
  5
239
100
AcDbEntity
  8
dimensions
  6
ByBlock
 62
    0
370
   -2
100
AcDbLine
 10
-100.6249999999999
 20
70.02075382097088
 11
-108.1972662670167
 21
70.02075382097088
  0
ENDBLK
  5
F9
330
F7
100
AcDbEntity
  8
0
100
AcDbBlockEnd
  0
ENDSEC
  0
SECTION
  2
ENTITIES
  0
CIRCLE
  5
23A
100
AcDbEntity
  8
outline
  6
ByLayer
 62
  256
370
   -1
100
AcDbCircle
 10
0
 20
0
 40
156
  0
CIRCLE
  5
23B
100
AcDbEntity
  8
outline constrcution
  6
ByLayer
 62
  256
370
   -1
100
AcDbCircle
 10
0
 20
0
 40
45
  0
CIRCLE
  5
23C
100
AcDbEntity
  8
outline constrcution
  6
ByLayer
 62
  256
370
   -1
100
AcDbCircle
 10
0
 20
0
 40
90
  0
CIRCLE
  5
23D
100
AcDbEntity
  8
outline constrcution
  6
ByLayer
 62
  256
370
   -1
100
AcDbCircle
 10
0
 20
0
 40
135
  0
CIRCLE
  5
23E
100
AcDbEntity
  8
outline constrcution
  6
ByLayer
 62
  256
370
   -1
100
AcDbCircle
 10
0
 20
0
 40
130
  0
CIRCLE
  5
23F
100
AcDbEntity
  8
outline constrcution
  6
ByLayer
 62
  256
370
   -1
100
AcDbCircle
 10
0
 20
0
 40
85
  0
CIRCLE
  5
240
100
AcDbEntity
  8
outline constrcution
  6
ByLayer
 62
  256
370
   -1
100
AcDbCircle
 10
0
 20
0
 40
40
  0
LINE
  5
241
100
AcDbEntity
  8
outline
  6
ByLayer
 62
  256
370
   -1
100
AcDbLine
 10
99.99999999999999
 20
-100
 11
100
 21
99.99999999999999
  0
LINE
  5
242
100
AcDbEntity
  8
outline
  6
ByLayer
 62
  256
370
   -1
100
AcDbLine
 10
100
 20
99.99999999999999
 11
-99.99999999999989
 21
100.0000000000001
  0
LINE
  5
243
100
AcDbEntity
  8
outline
  6
ByLayer
 62
  256
370
   -1
100
AcDbLine
 10
-99.99999999999989
 20
100.0000000000001
 11
-99.99999999999994
 21
-100.0000000000001
  0
LINE
  5
244
100
AcDbEntity
  8
outline
  6
ByLayer
 62
  256
370
   -1
100
AcDbLine
 10
-99.99999999999994
 20
-100.0000000000001
 11
99.99999999999999
 21
-100
  0
LINE
  5
245
100
AcDbEntity
  8
outline
  6
ByLayer
 62
  256
370
   -1
100
AcDbLine
 10
0
 20
0
 11
0
 21
0
  0
LINE
  5
246
100
AcDbEntity
  8
outline
  6
ByLayer
 62
  256
370
   -1
100
AcDbLine
 10
0
 20
0
 11
0
 21
0
  0
LINE
  5
247
100
AcDbEntity
  8
outline
  6
ByLayer
 62
  256
370
   -1
100
AcDbLine
 10
0
 20
0
 11
0
 21
0
  0
LINE
  5
248
100
AcDbEntity
  8
outline
  6
ByLayer
 62
  256
370
   -1
100
AcDbLine
 10
0
 20
0
 11
0
 21
0
  0
LINE
  5
249
100
AcDbEntity
  8
outline
  6
ByLayer
 62
  256
370
   -1
100
AcDbLine
 10
94.99999999999999
 20
-95.00000000000003
 11
95.00000000000003
 21
94.99999999999999
  0
LINE
  5
24A
100
AcDbEntity
  8
outline
  6
ByLayer
 62
  256
370
   -1
100
AcDbLine
 10
95.00000000000003
 20
94.99999999999999
 11
-94.99999999999989
 21
95.00000000000011
  0
LINE
  5
24B
100
AcDbEntity
  8
outline
  6
ByLayer
 62
  256
370
   -1
100
AcDbLine
 10
-94.99999999999989
 20
95.00000000000011
 11
-94.99999999999996
 21
-95.00000000000006
  0
LINE
  5
24C
100
AcDbEntity
  8
outline
  6
ByLayer
 62
  256
370
   -1
100
AcDbLine
 10
-94.99999999999996
 20
-95.00000000000006
 11
94.99999999999999
 21
-95.00000000000003
  0
LINE
  5
24D
100
AcDbEntity
  8
outline
  6
ByLayer
 62
  256
370
   -1
100
AcDbLine
 10
0
 20
0
 11
0
 21
0
  0
LINE
  5
24E
100
AcDbEntity
  8
outline
  6
ByLayer
 62
  256
370
   -1
100
AcDbLine
 10
0
 20
0
 11
0
 21
0
  0
LINE
  5
24F
100
AcDbEntity
  8
outline
  6
ByLayer
 62
  256
370
   -1
100
AcDbLine
 10
0
 20
0
 11
0
 21
0
  0
LINE
  5
250
100
AcDbEntity
  8
outline
  6
ByLayer
 62
  256
370
   -1
100
AcDbLine
 10
0
 20
0
 11
0
 21
0
  0
LINE
  5
251
100
AcDbEntity
  8
outline
  6
ByLayer
 62
  256
370
   -1
100
AcDbLine
 10
64.99999999999999
 20
-65.00000000000001
 11
65.00000000000001
 21
64.99999999999999
  0
LINE
  5
252
100
AcDbEntity
  8
outline
  6
ByLayer
 62
  256
370
   -1
100
AcDbLine
 10
65.00000000000001
 20
64.99999999999999
 11
-64.99999999999993
 21
65.00000000000009
  0
LINE
  5
253
100
AcDbEntity
  8
outline
  6
ByLayer
 62
  256
370
   -1
100
AcDbLine
 10
-64.99999999999993
 20
65.00000000000009
 11
-64.99999999999997
 21
-65.00000000000004
  0
LINE
  5
254
100
AcDbEntity
  8
outline
  6
ByLayer
 62
  256
370
   -1
100
AcDbLine
 10
-64.99999999999997
 20
-65.00000000000004
 11
64.99999999999999
 21
-65.00000000000001
  0
LINE
  5
255
100
AcDbEntity
  8
outline
  6
ByLayer
 62
  256
370
   -1
100
AcDbLine
 10
0
 20
0
 11
0
 21
0
  0
LINE
  5
256
100
AcDbEntity
  8
outline
  6
ByLayer
 62
  256
370
   -1
100
AcDbLine
 10
0
 20
0
 11
0
 21
0
  0
LINE
  5
257
100
AcDbEntity
  8
outline
  6
ByLayer
 62
  256
370
   -1
100
AcDbLine
 10
0
 20
0
 11
0
 21
0
  0
LINE
  5
258
100
AcDbEntity
  8
outline
  6
ByLayer
 62
  256
370
   -1
100
AcDbLine
 10
0
 20
0
 11
0
 21
0
  0
LINE
  5
259
100
AcDbEntity
  8
outline
  6
ByLayer
 62
  256
370
   -1
100
AcDbLine
 10
59.99999999999999
 20
-60.00000000000001
 11
60.00000000000001
 21
59.99999999999999
  0
LINE
  5
25A
100
AcDbEntity
  8
outline
  6
ByLayer
 62
  256
370
   -1
100
AcDbLine
 10
60.00000000000001
 20
59.99999999999999
 11
-59.99999999999993
 21
60.00000000000007
  0
LINE
  5
25B
100
AcDbEntity
  8
outline
  6
ByLayer
 62
  256
370
   -1
100
AcDbLine
 10
-59.99999999999993
 20
60.00000000000007
 11
-59.99999999999997
 21
-60.00000000000004
  0
LINE
  5
25C
100
AcDbEntity
  8
outline
  6
ByLayer
 62
  256
370
   -1
100
AcDbLine
 10
-59.99999999999997
 20
-60.00000000000004
 11
59.99999999999999
 21
-60.00000000000001
  0
LINE
  5
25D
100
AcDbEntity
  8
outline
  6
ByLayer
 62
  256
370
   -1
100
AcDbLine
 10
34.99999999999999
 20
-35.00000000000001
 11
35.00000000000001
 21
34.99999999999999
  0
LINE
  5
25E
100
AcDbEntity
  8
outline
  6
ByLayer
 62
  256
370
   -1
100
AcDbLine
 10
35.00000000000001
 20
34.99999999999999
 11
-34.99999999999996
 21
35.00000000000004
  0
LINE
  5
25F
100
AcDbEntity
  8
outline
  6
ByLayer
 62
  256
370
   -1
100
AcDbLine
 10
-34.99999999999996
 20
35.00000000000004
 11
-34.99999999999998
 21
-35.00000000000002
  0
LINE
  5
260
100
AcDbEntity
  8
outline
  6
ByLayer
 62
  256
370
   -1
100
AcDbLine
 10
-34.99999999999998
 20
-35.00000000000002
 11
34.99999999999999
 21
-35.00000000000001
  0
LINE
  5
261
100
AcDbEntity
  8
outline
  6
ByLayer
 62
  256
370
   -1
100
AcDbLine
 10
29.99999999999999
 20
-30.00000000000001
 11
30.00000000000001
 21
29.99999999999999
  0
LINE
  5
262
100
AcDbEntity
  8
outline
  6
ByLayer
 62
  256
370
   -1
100
AcDbLine
 10
30.00000000000001
 20
29.99999999999999
 11
-29.99999999999996
 21
30.00000000000004
  0
LINE
  5
263
100
AcDbEntity
  8
outline
  6
ByLayer
 62
  256
370
   -1
100
AcDbLine
 10
-29.99999999999996
 20
30.00000000000004
 11
-29.99999999999999
 21
-30.00000000000002
  0
LINE
  5
264
100
AcDbEntity
  8
outline
  6
ByLayer
 62
  256
370
   -1
100
AcDbLine
 10
-29.99999999999999
 20
-30.00000000000002
 11
29.99999999999999
 21
-30.00000000000001
  0
LINE
  5
265
100
AcDbEntity
  8
constrcution
  6
ByLayer
 62
  256
370
   -1
100
AcDbLine
 10
-143.3941090877615
 20
-204.7880110722479
 11
143.3941090877615
 21
204.7880110722479
  0
LINE
  5
266
100
AcDbEntity
  8
constrcution
  6
ByLayer
 62
  256
370
   -1
100
AcDbLine
 10
143.3941090877615
 20
-204.7880110722479
 11
-143.3941090877615
 21
204.7880110722479
  0
LINE
  5
267
100
AcDbEntity
  8
constrcution
  6
ByLayer
 62
  256
370
   -1
100
AcDbLine
 10
204.788011072248
 20
-143.3941090877615
 11
-204.788011072248
 21
143.3941090877615
  0
LINE
  5
268
100
AcDbEntity
  8
constrcution
  6
ByLayer
 62
  256
370
   -1
100
AcDbLine
 10
204.7880110722479
 20
143.3941090877615
 11
-204.7880110722479
 21
-143.3941090877615
  0
LINE
  5
269
100
AcDbEntity
  8
constrcution
  6
ByLayer
 62
  256
370
   -1
100
AcDbLine
 10
-250
 20
0
 11
250
 21
0
  0
LINE
  5
26A
100
AcDbEntity
  8
constrcution
  6
ByLayer
 62
  256
370
   -1
100
AcDbLine
 10
-1.530757942277972e-014
 20
-250
 11
1.530757942277972e-014
 21
250
  0
CIRCLE
  5
26B
100
AcDbEntity
  8
0
  6
ByLayer
 62
  256
370
   -1
100
AcDbCircle
 10
0
 20
0
 40
156
  0
LINE
  5
26C
100
AcDbEntity
  8
0
  6
ByLayer
 62
  256
370
   -1
100
AcDbLine
 10
-66.5197161299225
 20
95.00000000000009
 11
-70.02075382097105
 21
100.0000000000001
  0
LINE
  5
26D
100
AcDbEntity
  8
0
  6
ByLayer
 62
  256
370
   -1
100
AcDbLine
 10
-70.02075382097105
 20
100.0000000000001
 11
70.02075382097098
 21
100
  0
LINE
  5
26E
100
AcDbEntity
  8
0
  6
ByLayer
 62
  256
370
   -1
100
AcDbLine
 10
70.02075382097098
 20
100
 11
66.51971612992243
 21
95
  0
LINE
  5
26F
100
AcDbEntity
  8
0
  6
ByLayer
 62
  256
370
   -1
100
AcDbLine
 10
66.51971612992243
 20
95
 11
-66.5197161299225
 21
95.00000000000009
  0
LINE
  5
270
100
AcDbEntity
  8
0
  6
ByLayer
 62
  256
370
   -1
100
AcDbLine
 10
-45.5134899836312
 20
65.00000000000007
 11
45.51348998363115
 21
65.00000000000001
  0
LINE
  5
271
100
AcDbEntity
  8
0
  6
ByLayer
 62
  256
370
   -1
100
AcDbLine
 10
45.51348998363115
 20
65.00000000000001
 11
42.01245229258259
 21
60
  0
LINE
  5
272
100
AcDbEntity
  8
0
  6
ByLayer
 62
  256
370
   -1
100
AcDbLine
 10
42.01245229258259
 20
60
 11
-42.01245229258264
 21
60.00000000000006
  0
LINE
  5
273
100
AcDbEntity
  8
0
  6
ByLayer
 62
  256
370
   -1
100
AcDbLine
 10
-42.01245229258264
 20
60.00000000000006
 11
-45.5134899836312
 21
65.00000000000007
  0
LINE
  5
274
100
AcDbEntity
  8
0
  6
ByLayer
 62
  256
370
   -1
100
AcDbLine
 10
-24.50726383733987
 20
35.00000000000004
 11
-21.00622614629132
 21
30.00000000000003
  0
LINE
  5
275
100
AcDbEntity
  8
0
  6
ByLayer
 62
  256
370
   -1
100
AcDbLine
 10
-21.00622614629132
 20
30.00000000000003
 11
21.00622614629129
 21
30
  0
LINE
  5
276
100
AcDbEntity
  8
0
  6
ByLayer
 62
  256
370
   -1
100
AcDbLine
 10
21.00622614629129
 20
30
 11
24.50726383733985
 21
35.00000000000001
  0
LINE
  5
277
100
AcDbEntity
  8
0
  6
ByLayer
 62
  256
370
   -1
100
AcDbLine
 10
24.50726383733985
 20
35.00000000000001
 11
-24.50726383733987
 21
35.00000000000004
  0
LINE
  5
278
100
AcDbEntity
  8
0
  6
ByLayer
 62
  256
370
   -1
100
AcDbLine
 10
35
 20
24.50726383733985
 11
30
 21
21.0062261462913
  0
LINE
  5
279
100
AcDbEntity
  8
0
  6
ByLayer
 62
  256
370
   -1
100
AcDbLine
 10
30
 20
21.0062261462913
 11
30
 21
-21.00622614629128
  0
LINE
  5
27A
100
AcDbEntity
  8
0
  6
ByLayer
 62
  256
370
   -1
100
AcDbLine
 10
30
 20
-21.00622614629128
 11
34.99999999999999
 21
-24.50726383733983
  0
LINE
  5
27B
100
AcDbEntity
  8
0
  6
ByLayer
 62
  256
370
   -1
100
AcDbLine
 10
34.99999999999999
 20
-24.50726383733983
 11
35.00000000000001
 21
24.50726383733985
  0
LINE
  5
27C
100
AcDbEntity
  8
0
  6
ByLayer
 62
  256
370
   -1
100
AcDbLine
 10
60.00000000000001
 20
42.01245229258259
 11
59.99999999999999
 21
-42.01245229258257
  0
LINE
  5
27D
100
AcDbEntity
  8
0
  6
ByLayer
 62
  256
370
   -1
100
AcDbLine
 10
59.99999999999999
 20
-42.01245229258257
 11
64.99999999999999
 21
-45.51348998363111
  0
LINE
  5
27E
100
AcDbEntity
  8
0
  6
ByLayer
 62
  256
370
   -1
100
AcDbLine
 10
64.99999999999999
 20
-45.51348998363111
 11
65.00000000000001
 21
45.51348998363115
  0
LINE
  5
27F
100
AcDbEntity
  8
0
  6
ByLayer
 62
  256
370
   -1
100
AcDbLine
 10
65.00000000000001
 20
45.51348998363115
 11
60.00000000000001
 21
42.01245229258259
  0
LINE
  5
280
100
AcDbEntity
  8
0
  6
ByLayer
 62
  256
370
   -1
100
AcDbLine
 10
100
 20
70.020753820971
 11
95.00000000000001
 21
66.51971612992244
  0
LINE
  5
281
100
AcDbEntity
  8
0
  6
ByLayer
 62
  256
370
   -1
100
AcDbLine
 10
95.00000000000001
 20
66.51971612992244
 11
94.99999999999997
 21
-66.51971612992239
  0
LINE
  5
282
100
AcDbEntity
  8
0
  6
ByLayer
 62
  256
370
   -1
100
AcDbLine
 10
94.99999999999997
 20
-66.51971612992239
 11
99.99999999999999
 21
-70.02075382097094
  0
LINE
  5
283
100
AcDbEntity
  8
0
  6
ByLayer
 62
  256
370
   -1
100
AcDbLine
 10
99.99999999999999
 20
-70.02075382097094
 11
100
 21
70.020753820971
  0
LINE
  5
284
100
AcDbEntity
  8
0
  6
ByLayer
 62
  256
370
   -1
100
AcDbLine
 10
-21.0062261462913
 20
-30.00000000000001
 11
21.0062261462913
 21
-30.00000000000001
  0
LINE
  5
285
100
AcDbEntity
  8
0
  6
ByLayer
 62
  256
370
   -1
100
AcDbLine
 10
21.0062261462913
 20
-30.00000000000001
 11
24.50726383733985
 21
-35.00000000000001
  0
LINE
  5
286
100
AcDbEntity
  8
0
  6
ByLayer
 62
  256
370
   -1
100
AcDbLine
 10
24.50726383733985
 20
-35.00000000000001
 11
-24.50726383733986
 21
-35.00000000000002
  0
LINE
  5
287
100
AcDbEntity
  8
0
  6
ByLayer
 62
  256
370
   -1
100
AcDbLine
 10
-24.50726383733986
 20
-35.00000000000002
 11
-21.0062261462913
 21
-30.00000000000001
  0
LINE
  5
288
100
AcDbEntity
  8
0
  6
ByLayer
 62
  256
370
   -1
100
AcDbLine
 10
-42.01245229258261
 20
-60.00000000000003
 11
42.01245229258261
 21
-60.00000000000001
  0
LINE
  5
289
100
AcDbEntity
  8
0
  6
ByLayer
 62
  256
370
   -1
100
AcDbLine
 10
42.01245229258261
 20
-60.00000000000001
 11
45.51348998363115
 21
-65.00000000000001
  0
LINE
  5
28A
100
AcDbEntity
  8
0
  6
ByLayer
 62
  256
370
   -1
100
AcDbLine
 10
45.51348998363115
 20
-65.00000000000001
 11
-45.51348998363117
 21
-65.00000000000004
  0
LINE
  5
28B
100
AcDbEntity
  8
0
  6
ByLayer
 62
  256
370
   -1
100
AcDbLine
 10
-45.51348998363117
 20
-65.00000000000004
 11
-42.01245229258261
 21
-60.00000000000003
  0
LINE
  5
28C
100
AcDbEntity
  8
0
  6
ByLayer
 62
  256
370
   -1
100
AcDbLine
 10
-66.51971612992247
 20
-95.00000000000006
 11
66.51971612992246
 21
-95.00000000000003
  0
LINE
  5
28D
100
AcDbEntity
  8
0
  6
ByLayer
 62
  256
370
   -1
100
AcDbLine
 10
66.51971612992246
 20
-95.00000000000003
 11
70.02075382097101
 21
-100
  0
LINE
  5
28E
100
AcDbEntity
  8
0
  6
ByLayer
 62
  256
370
   -1
100
AcDbLine
 10
70.02075382097101
 20
-100
 11
-70.02075382097102
 21
-100.0000000000001
  0
LINE
  5
28F
100
AcDbEntity
  8
0
  6
ByLayer
 62
  256
370
   -1
100
AcDbLine
 10
-70.02075382097102
 20
-100.0000000000001
 11
-66.51971612992247
 21
-95.00000000000006
  0
LINE
  5
290
100
AcDbEntity
  8
0
  6
ByLayer
 62
  256
370
   -1
100
AcDbLine
 10
-29.99999999999997
 20
21.00622614629126
 11
-29.99999999999998
 21
-21.00622614629128
  0
LINE
  5
291
100
AcDbEntity
  8
0
  6
ByLayer
 62
  256
370
   -1
100
AcDbLine
 10
-29.99999999999998
 20
-21.00622614629128
 11
-34.99999999999997
 21
-24.50726383733982
  0
LINE
  5
292
100
AcDbEntity
  8
0
  6
ByLayer
 62
  256
370
   -1
100
AcDbLine
 10
-34.99999999999997
 20
-24.50726383733982
 11
-34.99999999999996
 21
24.5072638373398
  0
LINE
  5
293
100
AcDbEntity
  8
0
  6
ByLayer
 62
  256
370
   -1
100
AcDbLine
 10
-34.99999999999996
 20
24.5072638373398
 11
-29.99999999999997
 21
21.00622614629126
  0
LINE
  5
294
100
AcDbEntity
  8
0
  6
ByLayer
 62
  256
370
   -1
100
AcDbLine
 10
-59.99999999999994
 20
42.01245229258252
 11
-64.99999999999994
 21
45.51348998363108
  0
LINE
  5
295
100
AcDbEntity
  8
0
  6
ByLayer
 62
  256
370
   -1
100
AcDbLine
 10
-64.99999999999994
 20
45.51348998363108
 11
-64.99999999999997
 21
-45.51348998363112
  0
LINE
  5
296
100
AcDbEntity
  8
0
  6
ByLayer
 62
  256
370
   -1
100
AcDbLine
 10
-64.99999999999997
 20
-45.51348998363112
 11
-59.99999999999996
 21
-42.01245229258257
  0
LINE
  5
297
100
AcDbEntity
  8
0
  6
ByLayer
 62
  256
370
   -1
100
AcDbLine
 10
-59.99999999999996
 20
-42.01245229258257
 11
-59.99999999999994
 21
42.01245229258252
  0
LINE
  5
298
100
AcDbEntity
  8
0
  6
ByLayer
 62
  256
370
   -1
100
AcDbLine
 10
-94.99999999999987
 20
66.51971612992232
 11
-99.9999999999999
 21
70.02075382097088
  0
LINE
  5
299
100
AcDbEntity
  8
0
  6
ByLayer
 62
  256
370
   -1
100
AcDbLine
 10
-99.9999999999999
 20
70.02075382097088
 11
-99.99999999999993
 21
-70.02075382097094
  0
LINE
  5
29A
100
AcDbEntity
  8
0
  6
ByLayer
 62
  256
370
   -1
100
AcDbLine
 10
-99.99999999999993
 20
-70.02075382097094
 11
-94.99999999999993
 21
-66.51971612992239
  0
LINE
  5
29B
100
AcDbEntity
  8
0
  6
ByLayer
 62
  256
370
   -1
100
AcDbLine
 10
-94.99999999999993
 20
-66.51971612992239
 11
-94.99999999999987
 21
66.51971612992232
  0
DIMENSION
  5
29C
100
AcDbEntity
  8
dimensions
  6
ByLayer
 62
  256
370
   -1
100
AcDbDimension
  2
*D1
 10
70.02075382097098
 20
107.3966245286428
 30
0
 11
-2.830690258473316e-014
 21
109.2716245286428
 31
0
 70
   32
 71
    5
  3
Standard
 53
0
210
0
220
0
230
1
100
AcDbAlignedDimension
 13
-70.02075382097105
 23
100.0000000000001
 33
0
 14
70.02075382097098
 24
100
 34
0
100
AcDbRotatedDimension
  0
DIMENSION
  5
29D
100
AcDbEntity
  8
dimensions
  6
ByLayer
 62
  256
370
   -1
100
AcDbDimension
  2
*D2
 10
-66.5197161299225
 20
88.07421927871962
 30
0
 11
-2.830690258473316e-014
 21
89.94921927871962
 31
0
 70
   32
 71
    5
  3
Standard
 53
0
210
0
220
0
230
1
100
AcDbAlignedDimension
 13
66.51971612992243
 23
95
 33
0
 14
-66.5197161299225
 24
95.00000000000009
 34
0
100
AcDbRotatedDimension
  0
DIMENSION
  5
29E
100
AcDbEntity
  8
dimensions
  6
ByLayer
 62
  256
370
   -1
100
AcDbDimension
  2
*D3
 10
-45.5134899836312
 20
71.44796359855317
 30
0
 11
-2.830690258473316e-014
 21
73.32296359855317
 31
0
 70
   32
 71
    5
  3
Standard
 53
0
210
0
220
0
230
1
100
AcDbAlignedDimension
 13
45.51348998363115
 23
65.00000000000001
 33
0
 14
-45.5134899836312
 24
65.00000000000007
 34
0
100
AcDbRotatedDimension
  0
DIMENSION
  5
29F
100
AcDbEntity
  8
dimensions
  6
ByLayer
 62
  256
370
   -1
100
AcDbDimension
  2
*D4
 10
42.01245229258259
 20
52.5749166102561
 30
0
 11
-2.830690258473316e-014
 21
54.4499166102561
 31
0
 70
   32
 71
    5
  3
Standard
 53
0
210
0
220
0
230
1
100
AcDbAlignedDimension
 13
-42.01245229258264
 23
60.00000000000006
 33
0
 14
42.01245229258259
 24
60
 34
0
100
AcDbRotatedDimension
  0
DIMENSION
  5
2A0
100
AcDbEntity
  8
dimensions
  6
ByLayer
 62
  256
370
   -1
100
AcDbDimension
  2
*D5
 10
24.50726383733985
 20
41.79031833122921
 30
0
 11
-1.764876154833166e-014
 21
43.66531833122921
 31
0
 70
   32
 71
    5
  3
Standard
 53
0
210
0
220
0
230
1
100
AcDbAlignedDimension
 13
-24.50726383733987
 23
35.00000000000004
 33
0
 14
24.50726383733985
 24
35.00000000000001
 34
0
100
AcDbRotatedDimension
  0
DIMENSION
  5
2A1
100
AcDbEntity
  8
dimensions
  6
ByLayer
 62
  256
370
   -1
100
AcDbDimension
  2
*D6
 10
21.00622614629129
 20
22.91727134293215
 30
0
 11
-1.409604786953116e-014
 21
24.79227134293215
 31
0
 70
   32
 71
    5
  3
Standard
 53
0
210
0
220
0
230
1
100
AcDbAlignedDimension
 13
-21.00622614629132
 23
30.00000000000003
 33
0
 14
21.00622614629129
 24
30
 34
0
100
AcDbRotatedDimension
  0
DIMENSION
  5
2A2
100
AcDbEntity
  8
dimensions
  6
ByLayer
 62
  256
370
   -1
100
AcDbDimension
  2
*D7
 10
-21.0062261462913
 20
-25.16406265106275
 30
0
 11
3.667520524471349e-015
 21
-23.28906265106275
 31
0
 70
   32
 71
    5
  3
Standard
 53
0
210
0
220
0
230
1
100
AcDbAlignedDimension
 13
21.0062261462913
 23
-30.00000000000001
 33
0
 14
-21.0062261462913
 24
-30.00000000000001
 34
0
100
AcDbRotatedDimension
  0
DIMENSION
  5
2A3
100
AcDbEntity
  8
dimensions
  6
ByLayer
 62
  256
370
   -1
100
AcDbDimension
  2
*D8
 10
42.01245229258261
 20
-54.82170791838671
 30
0
 11
7.22023420327185e-015
 21
-52.94670791838671
 31
0
 70
   32
 71
    5
  3
Standard
 53
0
210
0
220
0
230
1
100
AcDbAlignedDimension
 13
-42.01245229258261
 23
-60.00000000000003
 33
0
 14
42.01245229258261
 24
-60.00000000000001
 34
0
100
AcDbRotatedDimension
  0
DIMENSION
  5
2A4
100
AcDbEntity
  8
dimensions
  6
ByLayer
 62
  256
370
   -1
100
AcDbDimension
  2
*D9
 10
-24.50726383733986
 20
-43.5877513777337
 30
0
 11
-3.437906833129653e-015
 21
-41.7127513777337
 31
0
 70
   32
 71
    5
  3
Standard
 53
0
210
0
220
0
230
1
100
AcDbAlignedDimension
 13
24.50726383733985
 23
-35.00000000000001
 33
0
 14
-24.50726383733986
 24
-35.00000000000002
 34
0
100
AcDbRotatedDimension
  0
DIMENSION
  5
2A5
100
AcDbEntity
  8
dimensions
  6
ByLayer
 62
  256
370
   -1
100
AcDbDimension
  2
*D10
 10
45.51348998363115
 20
-72.34668012180541
 30
0
 11
-1.409604786953116e-014
 21
-70.47168012180541
 31
0
 70
   32
 71
    5
  3
Standard
 53
0
210
0
220
0
230
1
100
AcDbAlignedDimension
 13
-45.51348998363117
 23
-65.00000000000004
 33
0
 14
45.51348998363115
 24
-65.00000000000001
 34
0
100
AcDbRotatedDimension
  0
DIMENSION
  5
2A6
100
AcDbEntity
  8
dimensions
  6
ByLayer
 62
  256
370
   -1
100
AcDbDimension
  2
*D11
 10
66.51971612992246
 20
-88.52357754034576
 30
0
 11
-1.409604786953116e-014
 21
-86.64857754034576
 31
0
 70
   32
 71
    5
  3
Standard
 53
0
210
0
220
0
230
1
100
AcDbAlignedDimension
 13
-66.51971612992247
 23
-95.00000000000006
 33
0
 14
66.51971612992246
 24
-95.00000000000003
 34
0
100
AcDbRotatedDimension
  0
DIMENSION
  5
2A7
100
AcDbEntity
  8
dimensions
  6
ByLayer
 62
  256
370
   -1
100
AcDbDimension
  2
*D12
 10
70.02075382097101
 20
-107.3966245286428
 30
0
 11
1.148068456708479e-016
 21
-105.5216245286428
 31
0
 70
   32
 71
    5
  3
Standard
 53
0
210
0
220
0
230
1
100
AcDbAlignedDimension
 13
-70.02075382097102
 23
-100.0000000000001
 33
0
 14
70.02075382097101
 24
-100
 34
0
100
AcDbRotatedDimension
  0
DIMENSION
  5
2A8
100
AcDbEntity
  8
dimensions
  6
ByLayer
 62
  256
370
   -1
100
AcDbDimension
  2
*D13
 10
-22.01855481967991
 20
-21.00622614629128
 30
0
 11
-23.89355481967991
 21
-6.875813666259306e-015
 31
0
 70
   32
 71
    5
  3
Standard
 53
0
210
0
220
0
230
1
100
AcDbAlignedDimension
 13
-29.99999999999997
 23
21.00622614629126
 33
0
 14
-29.99999999999998
 24
-21.00622614629128
 34
0
 50
90
100
AcDbRotatedDimension
  0
DIMENSION
  5
2A9
100
AcDbEntity
  8
dimensions
  6
ByLayer
 62
  256
370
   -1
100
AcDbDimension
  2
*D14
 10
-40.44224354635085
 20
24.5072638373398
 30
0
 11
-42.31724354635085
 21
-1.398124102386031e-014
 31
0
 70
   32
 71
    5
  3
Standard
 53
0
210
0
220
0
230
1
100
AcDbAlignedDimension
 13
-34.99999999999997
 23
-24.50726383733982
 33
0
 14
-34.99999999999996
 24
24.5072638373398
 34
0
 50
90
100
AcDbRotatedDimension
  0
DIMENSION
  5
2AA
100
AcDbEntity
  8
dimensions
  6
ByLayer
 62
  256
370
   -1
100
AcDbDimension
  2
*D15
 10
-53.47363313350834
 20
-42.01245229258257
 30
0
 11
-55.34863313350834
 21
-1.398124102386031e-014
 31
0
 70
   32
 71
    5
  3
Standard
 53
0
210
0
220
0
230
1
100
AcDbAlignedDimension
 13
-59.99999999999994
 23
42.01245229258252
 33
0
 14
-59.99999999999996
 24
-42.01245229258257
 34
0
 50
90
100
AcDbRotatedDimension
  0
DIMENSION
  5
2AB
100
AcDbEntity
  8
dimensions
  6
ByLayer
 62
  256
370
   -1
100
AcDbDimension
  2
*D16
 10
-70.09988881367481
 20
45.51348998363108
 30
0
 11
-71.97488881367481
 21
-2.819209573906231e-014
 31
0
 70
   32
 71
    5
  3
Standard
 53
0
210
0
220
0
230
1
100
AcDbAlignedDimension
 13
-64.99999999999997
 23
-45.51348998363112
 33
0
 14
-64.99999999999994
 24
45.51348998363108
 34
0
 50
90
100
AcDbRotatedDimension
  0
DIMENSION
  5
2AC
100
AcDbEntity
  8
dimensions
  6
ByLayer
 62
  256
370
   -1
100
AcDbDimension
  2
*D17
 10
-86.72614449384126
 20
-66.51971612992239
 30
0
 11
-88.60114449384126
 21
-1.398124102386031e-014
 31
0
 70
   32
 71
    5
  3
Standard
 53
0
210
0
220
0
230
1
100
AcDbAlignedDimension
 13
-94.99999999999987
 23
66.51971612992232
 33
0
 14
-94.99999999999993
 24
-66.51971612992239
 34
0
 50
90
100
AcDbRotatedDimension
  0
DIMENSION
  5
2AD
100
AcDbEntity
  8
dimensions
  6
ByLayer
 62
  256
370
   -1
100
AcDbDimension
  2
*D18
 10
-106.9472662670167
 20
70.02075382097088
 30
0
 11
-108.8222662670167
 21
-4.240295045426432e-014
 31
0
 70
   32
 71
    5
  3
Standard
 53
0
210
0
220
0
230
1
100
AcDbAlignedDimension
 13
-99.99999999999993
 23
-70.02075382097094
 33
0
 14
-99.9999999999999
 24
70.02075382097088
 34
0
 50
90
100
AcDbRotatedDimension
  0
DIMENSION
  5
2AE
100
AcDbEntity
  8
dimensions
  6
ByLayer
 62
  256
370
   -1
100
AcDbDimension
  2
*D19
 10
24.71470438943663
 20
-21.00622614629128
 30
0
 11
22.83970438943663
 21
1.08877547277432e-014
 31
0
 70
   32
 71
    5
  3
Standard
 53
0
210
0
220
0
230
1
100
AcDbAlignedDimension
 13
30
 23
21.0062261462913
 33
0
 14
30
 24
-21.00622614629128
 34
0
 50
90
100
AcDbRotatedDimension
  0
DIMENSION
  5
2AF
100
AcDbEntity
  8
dimensions
  6
ByLayer
 62
  256
370
   -1
100
AcDbDimension
  2
*D20
 10
42.23967659285533
 20
24.50726383733985
 30
0
 11
40.36467659285533
 21
1.08877547277432e-014
 31
0
 70
   32
 71
    5
  3
Standard
 53
0
210
0
220
0
230
1
100
AcDbAlignedDimension
 13
34.99999999999999
 23
-24.50726383733983
 33
0
 14
35.00000000000001
 24
24.50726383733985
 34
0
 50
90
100
AcDbRotatedDimension
  0
DIMENSION
  5
2B0
100
AcDbEntity
  8
dimensions
  6
ByLayer
 62
  256
370
   -1
100
AcDbDimension
  2
*D21
 10
53.47363313350834
 20
-42.01245229258257
 30
0
 11
51.59863313350834
 21
2.15458957641447e-014
 31
0
 70
   32
 71
    5
  3
Standard
 53
0
210
0
220
0
230
1
100
AcDbAlignedDimension
 13
60.00000000000001
 23
42.01245229258259
 33
0
 14
59.99999999999999
 24
-42.01245229258257
 34
0
 50
90
100
AcDbRotatedDimension
  0
DIMENSION
  5
2B1
100
AcDbEntity
  8
dimensions
  6
ByLayer
 62
  256
370
   -1
100
AcDbDimension
  2
*D22
 10
71.89732186017929
 20
45.51348998363115
 30
0
 11
70.02232186017929
 21
1.44404684065437e-014
 31
0
 70
   32
 71
    5
  3
Standard
 53
0
210
0
220
0
230
1
100
AcDbAlignedDimension
 13
64.99999999999999
 23
-45.51348998363111
 33
0
 14
65.00000000000001
 24
45.51348998363115
 34
0
 50
90
100
AcDbRotatedDimension
  0
DIMENSION
  5
2B2
100
AcDbEntity
  8
dimensions
  6
ByLayer
 62
  256
370
   -1
100
AcDbDimension
  2
*D23
 10
88.52357754034576
 20
-66.51971612992239
 30
0
 11
86.64857754034576
 21
2.86513231217457e-014
 31
0
 70
   32
 71
    5
  3
Standard
 53
0
210
0
220
0
230
1
100
AcDbAlignedDimension
 13
95.00000000000001
 23
66.51971612992244
 33
0
 14
94.99999999999997
 24
-66.51971612992239
 34
0
 50
90
100
AcDbRotatedDimension
  0
DIMENSION
  5
2B3
100
AcDbEntity
  8
dimensions
  6
ByLayer
 62
  256
370
   -1
100
AcDbDimension
  2
*D24
 10
107.3966245286428
 20
70.020753820971
 30
0
 11
105.5216245286428
 21
2.86513231217457e-014
 31
0
 70
   32
 71
    5
  3
Standard
 53
0
210
0
220
0
230
1
100
AcDbAlignedDimension
 13
99.99999999999999
 23
-70.02075382097094
 33
0
 14
100
 24
70.020753820971
 34
0
 50
90
100
AcDbRotatedDimension
  0
DIMENSION
  5
2B4
100
AcDbEntity
  8
dimensions1
  6
ByLayer
 62
  256
370
   -1
100
AcDbDimension
  2
*D25
 10
204.7880110722479
 20
143.3941090877615
 30
0
 11
0
 21
0
 31
0
 70
   34
 71
    5
  3
Standard
 53
0
210
0
220
0
230
1
100
AcDb2LineAngularDimension
 13
-250
 23
0
 33
0
 14
250
 24
0
 34
0
 15
-204.7880110722479
 25
-143.3941090877615
 35
0
 16
189.6291864062229
 26
62.01144010440463
 36
0
  0
DIMENSION
  5
2B5
100
AcDbEntity
  8
dimensions1
  6
ByLayer
 62
  256
370
   -1
100
AcDbDimension
  2
*D26
 10
250
 20
0
 30
0
 11
0
 21
0
 31
0
 70
   34
 71
    5
  3
Standard
 53
0
210
0
220
0
230
1
100
AcDb2LineAngularDimension
 13
-204.788011072248
 23
143.3941090877615
 33
0
 14
204.788011072248
 24
-143.3941090877615
 34
0
 15
-250
 25
0
 35
0
 16
168.5093481097952
 26
-106.4979080053906
 36
0
  0
DIMENSION
  5
2B6
100
AcDbEntity
  8
dimensions1
  6
ByLayer
 62
  256
370
   -1
100
AcDbDimension
  2
*D27
 10
143.3941090877615
 20
-204.7880110722479
 30
0
 11
0
 21
0
 31
0
 70
   34
 71
    5
  3
Standard
 53
0
210
0
220
0
230
1
100
AcDb2LineAngularDimension
 13
1.530757942277972e-014
 23
250
 33
0
 14
-1.530757942277972e-014
 24
-250
 34
0
 15
-143.3941090877615
 25
204.7880110722479
 35
0
 16
39.54352702309861
 26
-184.6862455283355
 36
0
  0
DIMENSION
  5
2B7
100
AcDbEntity
  8
dimensions1
  6
ByLayer
 62
  256
370
   -1
100
AcDbDimension
  2
*D28
 10
-1.530757942277972e-014
 20
-250
 30
0
 11
0
 21
0
 31
0
 70
   34
 71
    5
  3
Standard
 53
0
210
0
220
0
230
1
100
AcDb2LineAngularDimension
 13
143.3941090877615
 23
204.7880110722479
 33
0
 14
-143.3941090877615
 24
-204.7880110722479
 34
0
 15
1.530757942277972e-014
 25
250
 35
0
 16
-50.77748356375162
 26
-181.5407376969527
 36
0
  0
DIMENSION
  5
2B8
100
AcDbEntity
  8
dimensions1
  6
ByLayer
 62
  256
370
   -1
100
AcDbDimension
  2
*D29
 10
-204.7880110722479
 20
-143.3941090877615
 30
0
 11
0
 21
0
 31
0
 70
   34
 71
    5
  3
Standard
 53
0
210
0
220
0
230
1
100
AcDb2LineAngularDimension
 13
250
 23
0
 33
0
 14
-250
 24
0
 34
0
 15
204.7880110722479
 25
143.3941090877615
 35
0
 16
-193.2240524992318
 26
-51.22684182537775
 36
0
  0
DIMENSION
  5
2B9
100
AcDbEntity
  8
dimensions1
  6
ByLayer
 62
  256
370
   -1
100
AcDbDimension
  2
*D30
 10
-250
 20
0
 30
0
 11
0
 21
0
 31
0
 70
   34
 71
    5
  3
Standard
 53
0
210
0
220
0
230
1
100
AcDb2LineAngularDimension
 13
204.788011072248
 23
-143.3941090877615
 33
0
 14
-204.788011072248
 24
143.3941090877615
 34
0
 15
250
 25
0
 35
0
 16
-186.9330368364662
 26
69.65053055204869
 36
0
  0
DIMENSION
  5
2BA
100
AcDbEntity
  8
dimensions1
  6
ByLayer
 62
  256
370
   -1
100
AcDbDimension
  2
*D31
 10
-143.3941090877615
 20
204.7880110722479
 30
0
 11
0
 21
0
 31
0
 70
   34
 71
    5
  3
Standard
 53
0
210
0
220
0
230
1
100
AcDb2LineAngularDimension
 13
-1.530757942277972e-014
 23
-250
 33
0
 14
1.530757942277972e-014
 24
250
 34
0
 15
143.3941090877615
 25
-204.7880110722479
 35
0
 16
-48.53069225562102
 26
193.2240524992318
 36
0
  0
DIMENSION
  5
2BB
100
AcDbEntity
  8
dimensions1
  6
ByLayer
 62
  256
370
   -1
100
AcDbDimension
  2
*D32
 10
1.530757942277972e-014
 20
250
 30
0
 11
0
 21
0
 31
0
 70
   34
 71
    5
  3
Standard
 53
0
210
0
220
0
230
1
100
AcDb2LineAngularDimension
 13
-143.3941090877615
 23
-204.7880110722479
 33
0
 14
143.3941090877615
 24
204.7880110722479
 34
0
 15
-1.530757942277972e-014
 25
-250
 35
0
 16
97.96010103449429
 26
173.4522889876825
 36
0
  0
DIMENSION
  5
2BC
100
AcDbEntity
  8
dimensions1
  6
ByLayer
 62
  256
370
   -1
100
AcDbDimension
  2
*D33
 10
-29.99999999999997
 20
21.00622614629126
 30
0
 11
-13.92454418184177
 21
12.03902315618749
 31
0
 70
   33
 71
    5
  3
Standard
 53
0
210
0
220
0
230
1
100
AcDbAlignedDimension
 13
0
 23
0
 33
0
 14
-29.99999999999997
 24
21.00622614629126
 34
0
  0
DIMENSION
  5
2BD
100
AcDbEntity
  8
dimensions1
  6
ByLayer
 62
  256
370
   -1
100
AcDbDimension
  2
*D34
 10
-59.99999999999994
 20
42.01245229258252
 30
0
 11
-46.42454418184173
 21
34.79576814800303
 31
0
 70
   33
 71
    5
  3
Standard
 53
0
210
0
220
0
230
1
100
AcDbAlignedDimension
 13
-34.99999999999996
 23
24.5072638373398
 33
0
 14
-59.99999999999994
 24
42.01245229258252
 34
0
  0
DIMENSION
  5
2BE
100
AcDbEntity
  8
dimensions1
  6
ByLayer
 62
  256
370
   -1
100
AcDbDimension
  2
*D35
 10
-94.99999999999987
 20
66.51971612992232
 30
0
 11
-78.9245441818417
 21
57.55251313981856
 31
0
 70
   33
 71
    5
  3
Standard
 53
0
210
0
220
0
230
1
100
AcDbAlignedDimension
 13
-64.99999999999994
 23
45.51348998363108
 33
0
 14
-94.99999999999987
 24
66.51971612992232
 34
0
  0
DIMENSION
  5
2BF
100
AcDbEntity
  8
dimensions1
  6
ByLayer
 62
  256
370
   -1
100
AcDbDimension
  2
*D36
 10
21.00622614629129
 20
30
 30
0
 11
8.967202990103788
 21
16.07545581815821
 31
0
 70
   33
 71
    5
  3
Standard
 53
0
210
0
220
0
230
1
100
AcDbAlignedDimension
 13
0
 23
0
 33
0
 14
21.00622614629129
 24
30
 34
0
  0
DIMENSION
  5
2C0
100
AcDbEntity
  8
dimensions1
  6
ByLayer
 62
  256
370
   -1
100
AcDbDimension
  2
*D37
 10
42.01245229258259
 20
60
 30
0
 11
31.72394798191936
 21
48.57545581815821
 31
0
 70
   33
 71
    5
  3
Standard
 53
0
210
0
220
0
230
1
100
AcDbAlignedDimension
 13
24.50726383733985
 23
35.00000000000001
 33
0
 14
42.01245229258259
 24
60
 34
0
  0
DIMENSION
  5
2C1
100
AcDbEntity
  8
dimensions1
  6
ByLayer
 62
  256
370
   -1
100
AcDbDimension
  2
*D38
 10
66.51971612992243
 20
95
 30
0
 11
54.48069297373493
 21
81.07545581815822
 31
0
 70
   33
 71
    5
  3
Standard
 53
0
210
0
220
0
230
1
100
AcDbAlignedDimension
 13
45.51348998363115
 23
65.00000000000001
 33
0
 14
66.51971612992243
 24
95
 34
0
  0
DIMENSION
  5
2C2
100
AcDbEntity
  8
dimensions1
  6
ByLayer
 62
  256
370
   -1
100
AcDbDimension
  2
*D39
 10
30
 20
-21.00622614629128
 30
0
 11
16.07545581815821
 21
-8.967202990103782
 31
0
 70
   33
 71
    5
  3
Standard
 53
0
210
0
220
0
230
1
100
AcDbAlignedDimension
 13
0
 23
0
 33
0
 14
30
 24
-21.00622614629128
 34
0
  0
DIMENSION
  5
2C3
100
AcDbEntity
  8
dimensions1
  6
ByLayer
 62
  256
370
   -1
100
AcDbDimension
  2
*D40
 10
59.99999999999999
 20
-42.01245229258257
 30
0
 11
48.5754558181582
 21
-31.72394798191933
 31
0
 70
   33
 71
    5
  3
Standard
 53
0
210
0
220
0
230
1
100
AcDbAlignedDimension
 13
34.99999999999999
 23
-24.50726383733983
 33
0
 14
59.99999999999999
 24
-42.01245229258257
 34
0
  0
DIMENSION
  5
2C4
100
AcDbEntity
  8
dimensions1
  6
ByLayer
 62
  256
370
   -1
100
AcDbDimension
  2
*D41
 10
94.99999999999997
 20
-66.51971612992239
 30
0
 11
81.07545581815818
 21
-54.48069297373488
 31
0
 70
   33
 71
    5
  3
Standard
 53
0
210
0
220
0
230
1
100
AcDbAlignedDimension
 13
64.99999999999999
 23
-45.51348998363111
 33
0
 14
94.99999999999997
 24
-66.51971612992239
 34
0
  0
DIMENSION
  5
2C5
100
AcDbEntity
  8
dimensions1
  6
ByLayer
 62
  256
370
   -1
100
AcDbDimension
  2
*D42
 10
-21.0062261462913
 20
-30.00000000000001
 30
0
 11
-12.03902315618751
 21
-13.9245441818418
 31
0
 70
   33
 71
    5
  3
Standard
 53
0
210
0
220
0
230
1
100
AcDbAlignedDimension
 13
0
 23
0
 33
0
 14
-21.0062261462913
 24
-30.00000000000001
 34
0
  0
DIMENSION
  5
2C6
100
AcDbEntity
  8
dimensions1
  6
ByLayer
 62
  256
370
   -1
100
AcDbDimension
  2
*D43
 10
-42.01245229258261
 20
-60.00000000000003
 30
0
 11
-34.7957681480031
 21
-46.42454418184182
 31
0
 70
   33
 71
    5
  3
Standard
 53
0
210
0
220
0
230
1
100
AcDbAlignedDimension
 13
-24.50726383733986
 23
-35.00000000000002
 33
0
 14
-42.01245229258261
 24
-60.00000000000003
 34
0
  0
DIMENSION
  5
2C7
100
AcDbEntity
  8
dimensions1
  6
ByLayer
 62
  256
370
   -1
100
AcDbDimension
  2
*D44
 10
-66.51971612992247
 20
-95.00000000000006
 30
0
 11
-57.55251313981868
 21
-78.92454418184184
 31
0
 70
   33
 71
    5
  3
Standard
 53
0
210
0
220
0
230
1
100
AcDbAlignedDimension
 13
-45.51348998363117
 23
-65.00000000000004
 33
0
 14
-66.51971612992247
 24
-95.00000000000006
 34
0
  0
DIMENSION
  5
2C8
100
AcDbEntity
  8
dimensions1
  6
ByLayer
 62
  256
370
   -1
100
AcDbDimension
  2
*D45
 10
-2.143061119189161e-015
 20
-35.00000000000001
 30
0
 11
-1.875000000000002
 21
-32.50000000000001
 31
0
 70
   32
 71
    5
  3
Standard
 53
0
210
0
220
0
230
1
100
AcDbAlignedDimension
 13
-1.836909530733567e-015
 23
-30.00000000000001
 33
0
 14
-2.143061119189161e-015
 24
-35.00000000000001
 34
0
 50
90
100
AcDbRotatedDimension
  0
DIMENSION
  5
2C9
100
AcDbEntity
  8
dimensions1
  6
ByLayer
 62
  256
370
   -1
100
AcDbDimension
  2
*D46
 10
-3.979970649922728e-015
 20
-65.00000000000003
 30
0
 11
-1.875000000000004
 21
-62.50000000000003
 31
0
 70
   32
 71
    5
  3
Standard
 53
0
210
0
220
0
230
1
100
AcDbAlignedDimension
 13
-3.673819061467133e-015
 23
-60.00000000000003
 33
0
 14
-3.979970649922728e-015
 24
-65.00000000000003
 34
0
 50
90
100
AcDbRotatedDimension
  0
DIMENSION
  5
2CA
100
AcDbEntity
  8
dimensions1
  6
ByLayer
 62
  256
370
   -1
100
AcDbDimension
  2
*D47
 10
-6.123031769111889e-015
 20
-100
 30
0
 11
-1.875000000000006
 21
-97.50000000000004
 31
0
 70
   32
 71
    5
  3
Standard
 53
0
210
0
220
0
230
1
100
AcDbAlignedDimension
 13
-5.816880180656294e-015
 23
-95.00000000000004
 33
0
 14
-6.123031769111889e-015
 24
-100
 34
0
 50
90
100
AcDbRotatedDimension
  0
DIMENSION
  5
2CB
100
AcDbEntity
  8
dimensions1
  6
ByLayer
 62
  256
370
   -1
100
AcDbDimension
  2
*D48
 10
5.816880180656294e-015
 20
95.00000000000004
 30
0
 11
-1.874999999999994
 21
97.50000000000004
 31
0
 70
   32
 71
    5
  3
Standard
 53
0
210
0
220
0
230
1
100
AcDbAlignedDimension
 13
6.123031769111889e-015
 23
100
 33
0
 14
5.816880180656294e-015
 24
95.00000000000004
 34
0
 50
90
100
AcDbRotatedDimension
  0
DIMENSION
  5
2CC
100
AcDbEntity
  8
dimensions1
  6
ByLayer
 62
  256
370
   -1
100
AcDbDimension
  2
*D49
 10
3.673819061467133e-015
 20
60.00000000000003
 30
0
 11
-1.874999999999996
 21
62.50000000000004
 31
0
 70
   32
 71
    5
  3
Standard
 53
0
210
0
220
0
230
1
100
AcDbAlignedDimension
 13
3.979970649922728e-015
 23
65.00000000000004
 33
0
 14
3.673819061467133e-015
 24
60.00000000000003
 34
0
 50
90
100
AcDbRotatedDimension
  0
DIMENSION
  5
2CD
100
AcDbEntity
  8
dimensions1
  6
ByLayer
 62
  256
370
   -1
100
AcDbDimension
  2
*D50
 10
1.836909530733567e-015
 20
30.00000000000001
 30
0
 11
-1.874999999999998
 21
32.50000000000001
 31
0
 70
   32
 71
    5
  3
Standard
 53
0
210
0
220
0
230
1
100
AcDbAlignedDimension
 13
2.143061119189161e-015
 23
35.00000000000002
 33
0
 14
1.836909530733567e-015
 24
30.00000000000001
 34
0
 50
90
100
AcDbRotatedDimension
  0
DIMENSION
  5
2CE
100
AcDbEntity
  8
dimensions1
  6
ByLayer
 62
  256
370
   -1
100
AcDbDimension
  2
*D51
 10
35
 20
0
 30
0
 11
32.5
 21
1.875
 31
0
 70
   32
 71
    5
  3
Standard
 53
0
210
0
220
0
230
1
100
AcDbAlignedDimension
 13
30
 23
0
 33
0
 14
35
 24
0
 34
0
100
AcDbRotatedDimension
  0
DIMENSION
  5
2CF
100
AcDbEntity
  8
dimensions1
  6
ByLayer
 62
  256
370
   -1
100
AcDbDimension
  2
*D52
 10
65
 20
0
 30
0
 11
62.5
 21
1.875
 31
0
 70
   32
 71
    5
  3
Standard
 53
0
210
0
220
0
230
1
100
AcDbAlignedDimension
 13
60
 23
0
 33
0
 14
65
 24
0
 34
0
100
AcDbRotatedDimension
  0
DIMENSION
  5
2D0
100
AcDbEntity
  8
dimensions1
  6
ByLayer
 62
  256
370
   -1
100
AcDbDimension
  2
*D53
 10
100
 20
0
 30
0
 11
97.5
 21
1.875
 31
0
 70
   32
 71
    5
  3
Standard
 53
0
210
0
220
0
230
1
100
AcDbAlignedDimension
 13
94.99999999999999
 23
0
 33
0
 14
100
 24
0
 34
0
100
AcDbRotatedDimension
  0
DIMENSION
  5
2D1
100
AcDbEntity
  8
dimensions1
  6
ByLayer
 62
  256
370
   -1
100
AcDbDimension
  2
*D54
 10
-34.99999999999996
 20
0
 30
0
 11
-32.49999999999997
 21
1.875
 31
0
 70
   32
 71
    5
  3
Standard
 53
0
210
0
220
0
230
1
100
AcDbAlignedDimension
 13
-29.99999999999998
 23
0
 33
0
 14
-34.99999999999996
 24
0
 34
0
100
AcDbRotatedDimension
  0
DIMENSION
  5
2D2
100
AcDbEntity
  8
dimensions1
  6
ByLayer
 62
  256
370
   -1
100
AcDbDimension
  2
*D55
 10
-64.99999999999996
 20
0
 30
0
 11
-62.49999999999996
 21
1.875
 31
0
 70
   32
 71
    5
  3
Standard
 53
0
210
0
220
0
230
1
100
AcDbAlignedDimension
 13
-59.99999999999996
 23
0
 33
0
 14
-64.99999999999996
 24
0
 34
0
100
AcDbRotatedDimension
  0
DIMENSION
  5
2D3
100
AcDbEntity
  8
dimensions1
  6
ByLayer
 62
  256
370
   -1
100
AcDbDimension
  2
*D56
 10
-99.99999999999991
 20
0
 30
0
 11
-97.49999999999991
 21
1.875
 31
0
 70
   32
 71
    5
  3
Standard
 53
0
210
0
220
0
230
1
100
AcDbAlignedDimension
 13
-94.9999999999999
 23
0
 33
0
 14
-99.99999999999991
 24
0
 34
0
100
AcDbRotatedDimension
  0
ENDSEC
  0
SECTION
  2
OBJECTS
  0
DICTIONARY
  5
C
330
0
100
AcDbDictionary
281
    1
  3
ACAD_GROUP
350
D
  0
DICTIONARY
  5
D
330
C
100
AcDbDictionary
281
    1
  0
PLOTSETTINGS
  5
2D4
100
AcDbPlotSettings
  6
1x1
 40
0
 41
0
 42
0
 43
0
  0
ENDSEC
  0
EOF
